<?xml version="1.0" encoding="UTF-8"?>
<!DOCTYPE svg PUBLIC "-//W3C//DTD SVG 1.1//EN" "http://www.w3.org/Graphics/SVG/1.1/DTD/svg11.dtd">
<svg version="1.2" width="170mm" height="170mm" viewBox="0 0 17000 17000" preserveAspectRatio="xMidYMid" fill-rule="evenodd" stroke-width="28.222" stroke-linejoin="round" xmlns="http://www.w3.org/2000/svg" xmlns:ooo="http://xml.openoffice.org/svg/export" xmlns:xlink="http://www.w3.org/1999/xlink" xmlns:presentation="http://sun.com/xmlns/staroffice/presentation" xmlns:smil="http://www.w3.org/2001/SMIL20/" xmlns:anim="urn:oasis:names:tc:opendocument:xmlns:animation:1.0" xml:space="preserve">
 <defs class="ClipPathGroup">
  <clipPath id="presentation_clip_path" clipPathUnits="userSpaceOnUse">
   <rect x="0" y="0" width="17000" height="17000"/>
  </clipPath>
  <clipPath id="presentation_clip_path_shrink" clipPathUnits="userSpaceOnUse">
   <rect x="17" y="17" width="16966" height="16966"/>
  </clipPath>
 </defs>
 <defs class="TextShapeIndex">
  <g ooo:slide="id1" ooo:id-list="id3 id4 id5 id6 id7 id8 id9 id10 id11 id12"/>
 </defs>
 <defs class="EmbeddedBulletChars">
  <g id="bullet-char-template-57356" transform="scale(0.00048828125,-0.00048828125)">
   <path d="M 580,1141 L 1163,571 580,0 -4,571 580,1141 Z"/>
  </g>
  <g id="bullet-char-template-57354" transform="scale(0.00048828125,-0.00048828125)">
   <path d="M 8,1128 L 1137,1128 1137,0 8,0 8,1128 Z"/>
  </g>
  <g id="bullet-char-template-10146" transform="scale(0.00048828125,-0.00048828125)">
   <path d="M 174,0 L 602,739 174,1481 1456,739 174,0 Z M 1358,739 L 309,1346 659,739 1358,739 Z"/>
  </g>
  <g id="bullet-char-template-10132" transform="scale(0.00048828125,-0.00048828125)">
   <path d="M 2015,739 L 1276,0 717,0 1260,543 174,543 174,936 1260,936 717,1481 1274,1481 2015,739 Z"/>
  </g>
  <g id="bullet-char-template-10007" transform="scale(0.00048828125,-0.00048828125)">
   <path d="M 0,-2 C -7,14 -16,27 -25,37 L 356,567 C 262,823 215,952 215,954 215,979 228,992 255,992 264,992 276,990 289,987 310,991 331,999 354,1012 L 381,999 492,748 772,1049 836,1024 860,1049 C 881,1039 901,1025 922,1006 886,937 835,863 770,784 769,783 710,716 594,584 L 774,223 C 774,196 753,168 711,139 L 727,119 C 717,90 699,76 672,76 641,76 570,178 457,381 L 164,-76 C 142,-110 111,-127 72,-127 30,-127 9,-110 8,-76 1,-67 -2,-52 -2,-32 -2,-23 -1,-13 0,-2 Z"/>
  </g>
  <g id="bullet-char-template-10004" transform="scale(0.00048828125,-0.00048828125)">
   <path d="M 285,-33 C 182,-33 111,30 74,156 52,228 41,333 41,471 41,549 55,616 82,672 116,743 169,778 240,778 293,778 328,747 346,684 L 369,508 C 377,444 397,411 428,410 L 1163,1116 C 1174,1127 1196,1133 1229,1133 1271,1133 1292,1118 1292,1087 L 1292,965 C 1292,929 1282,901 1262,881 L 442,47 C 390,-6 338,-33 285,-33 Z"/>
  </g>
  <g id="bullet-char-template-9679" transform="scale(0.00048828125,-0.00048828125)">
   <path d="M 813,0 C 632,0 489,54 383,161 276,268 223,411 223,592 223,773 276,916 383,1023 489,1130 632,1184 813,1184 992,1184 1136,1130 1245,1023 1353,916 1407,772 1407,592 1407,412 1353,268 1245,161 1136,54 992,0 813,0 Z"/>
  </g>
  <g id="bullet-char-template-8226" transform="scale(0.00048828125,-0.00048828125)">
   <path d="M 346,457 C 273,457 209,483 155,535 101,586 74,649 74,723 74,796 101,859 155,911 209,963 273,989 346,989 419,989 480,963 531,910 582,859 608,796 608,723 608,648 583,586 532,535 482,483 420,457 346,457 Z"/>
  </g>
  <g id="bullet-char-template-8211" transform="scale(0.00048828125,-0.00048828125)">
   <path d="M -4,459 L 1135,459 1135,606 -4,606 -4,459 Z"/>
  </g>
  <g id="bullet-char-template-61548" transform="scale(0.00048828125,-0.00048828125)">
   <path d="M 173,740 C 173,903 231,1043 346,1159 462,1274 601,1332 765,1332 928,1332 1067,1274 1183,1159 1299,1043 1357,903 1357,740 1357,577 1299,437 1183,322 1067,206 928,148 765,148 601,148 462,206 346,322 231,437 173,577 173,740 Z"/>
  </g>
 </defs>
 <g>
  <g id="id2" class="Master_Slide">
   <g id="bg-id2" class="Background"/>
   <g id="bo-id2" class="BackgroundObjects"/>
  </g>
 </g>
 <g class="SlideGroup">
  <g>
   <g id="container-id1">
    <g id="id1" class="Slide" clip-path="url(#presentation_clip_path)">
     <g class="Page">
      <g class="com.sun.star.drawing.ClosedBezierShape">
       <g id="id3">
        <rect class="BoundingBox" stroke="none" fill="none" x="776" y="867" width="15609" height="15609"/>
        <path fill="rgb(151,1,1)" stroke="none" d="M 776,8672 C 776,4361 4269,867 8580,867 12890,867 16384,4361 16384,8672 16384,12981 12890,16475 8580,16475 4269,16475 776,12981 776,8672 Z"/>
       </g>
      </g>
      <g class="com.sun.star.drawing.ClosedBezierShape">
       <g id="id4">
        <rect class="BoundingBox" stroke="none" fill="none" x="6911" y="10725" width="2313" height="2986"/>
        <path fill="rgb(255,255,255)" stroke="none" d="M 7530,12059 C 7649,12059 7766,12059 7884,12059 8076,12060 8271,12065 8461,12028 8640,11993 8761,11879 8840,11718 8894,11607 8902,11488 8888,11370 8875,11256 8826,11155 8711,11107 8663,11087 8607,11078 8555,11077 8285,11074 8013,11076 7743,11076 7728,11076 7714,11077 7697,11078 7641,11405 7586,11730 7530,12059 Z M 9028,13710 L 8657,13710 C 8579,13464 8508,13215 8420,12973 8365,12823 8288,12680 8211,12539 8165,12455 8083,12403 7981,12399 7823,12394 7664,12392 7506,12388 7479,12388 7470,12398 7466,12426 7442,12575 7414,12723 7389,12872 7364,13018 7342,13164 7317,13310 7295,13444 7270,13576 7247,13710 L 6912,13710 C 7082,12714 7251,11723 7421,10726 L 7472,10726 C 7812,10726 8153,10723 8493,10728 8608,10730 8726,10742 8837,10769 8986,10805 9091,10904 9150,11047 9198,11165 9218,11287 9222,11414 9226,11579 9209,11738 9140,11889 9046,12094 8885,12224 8676,12298 8593,12328 8506,12349 8421,12375 8579,12514 8679,12696 8753,12892 8852,13156 8938,13426 9030,13693 9031,13697 9029,13702 9028,13710 Z"/>
       </g>
      </g>
      <g class="com.sun.star.drawing.ClosedBezierShape">
       <g id="id5">
        <rect class="BoundingBox" stroke="none" fill="none" x="12584" y="7025" width="2315" height="2987"/>
        <path fill="rgb(255,255,255)" stroke="none" d="M 13371,7375 C 13315,7705 13259,8030 13203,8357 13212,8358 13219,8360 13225,8359 13501,8353 13776,8350 14051,8337 14124,8334 14202,8315 14265,8281 14513,8148 14603,7888 14552,7630 14533,7534 14488,7446 14391,7410 14333,7388 14267,7378 14205,7377 14011,7373 13817,7375 13623,7375 L 13371,7375 Z M 14085,8673 C 14302,8863 14404,9111 14495,9364 14570,9576 14636,9791 14708,10009 L 14329,10009 C 14255,9775 14187,9538 14104,9306 14050,9155 13978,9010 13905,8867 13846,8753 13740,8696 13613,8691 13457,8685 13302,8690 13146,8690 13071,9132 12996,9571 12921,10010 L 12584,10010 C 12755,9015 12924,8024 13094,7026 L 13142,7026 C 13507,7026 13872,7023 14237,7027 14355,7029 14474,7042 14584,7095 14730,7165 14806,7288 14854,7435 14903,7583 14902,7735 14891,7885 14876,8090 14804,8276 14649,8420 14518,8541 14359,8609 14187,8649 14156,8657 14124,8664 14085,8673 Z"/>
       </g>
      </g>
      <g class="com.sun.star.drawing.ClosedBezierShape">
       <g id="id6">
        <rect class="BoundingBox" stroke="none" fill="none" x="10015" y="7027" width="2441" height="2985"/>
        <path fill="rgb(255,255,255)" stroke="none" d="M 11946,10010 L 11610,10010 C 11690,9544 11769,9079 11849,8609 11826,8609 11810,8609 11794,8609 11411,8609 11027,8609 10643,8608 10599,8608 10587,8621 10581,8665 10559,8811 10530,8956 10505,9102 10480,9248 10457,9394 10433,9540 10407,9696 10379,9853 10352,10010 L 10016,10010 C 10186,9016 10355,8024 10525,7028 L 10861,7028 C 10791,7437 10722,7845 10651,8259 L 10710,8259 C 11083,8259 11454,8259 11826,8259 11912,8259 11911,8259 11925,8176 11968,7924 12012,7673 12054,7420 12076,7290 12096,7160 12117,7027 L 12455,7027 C 12285,8022 12116,9015 11946,10010 Z"/>
       </g>
      </g>
      <g class="com.sun.star.drawing.ClosedBezierShape">
       <g id="id7">
        <rect class="BoundingBox" stroke="none" fill="none" x="9419" y="10728" width="2440" height="2983"/>
        <path fill="rgb(255,255,255)" stroke="none" d="M 9928,10728 L 10264,10728 C 10194,11138 10124,11544 10054,11959 L 10114,11959 C 10485,11959 10857,11959 11229,11959 11315,11959 11314,11958 11328,11875 11374,11604 11421,11333 11467,11062 11486,10952 11502,10841 11520,10728 L 11858,10728 C 11688,11722 11518,12715 11349,13710 L 11013,13710 C 11092,13242 11171,12778 11251,12308 L 11192,12308 C 10812,12308 10432,12309 10052,12307 10005,12307 9989,12319 9983,12369 9969,12488 9945,12606 9925,12725 9902,12856 9879,12987 9856,13119 9822,13315 9788,13513 9754,13710 L 9419,13710 C 9589,12715 9758,11723 9928,10728 Z"/>
       </g>
      </g>
      <g class="com.sun.star.drawing.ClosedBezierShape">
       <g id="id8">
        <rect class="BoundingBox" stroke="none" fill="none" x="4335" y="10723" width="2185" height="2992"/>
        <path fill="rgb(255,255,255)" stroke="none" d="M 6028,12533 C 5970,12058 5912,11588 5858,11146 5661,11591 5452,12061 5243,12533 L 6028,12533 Z M 6519,13710 L 6186,13710 C 6148,13425 6111,13141 6074,12855 6044,12855 6021,12855 5998,12855 5706,12855 5413,12856 5121,12854 5089,12854 5076,12866 5064,12893 4970,13102 4874,13310 4780,13520 4757,13571 4735,13621 4714,13672 4704,13699 4690,13713 4657,13713 4553,13710 4449,13712 4335,13712 4354,13666 4370,13626 4388,13587 4479,13389 4572,13191 4664,12993 4809,12679 4955,12364 5101,12050 5183,11871 5266,11692 5349,11514 5464,11265 5580,11018 5693,10769 5708,10735 5726,10723 5763,10724 5877,10727 5992,10725 6115,10725 6249,11720 6384,12713 6519,13710 Z"/>
       </g>
      </g>
      <g class="com.sun.star.drawing.ClosedBezierShape">
       <g id="id9">
        <rect class="BoundingBox" stroke="none" fill="none" x="7470" y="7024" width="2185" height="2989"/>
        <path fill="rgb(255,255,255)" stroke="none" d="M 8990,7417 C 8824,7897 8579,8355 8378,8833 L 9163,8833 C 9104,8356 9047,7882 8990,7417 Z M 7470,10011 C 7486,9971 7499,9938 7513,9907 7609,9701 7706,9497 7801,9291 7944,8984 8085,8677 8227,8370 8306,8200 8384,8030 8462,7860 8584,7597 8707,7334 8827,7070 8843,7035 8862,7023 8901,7024 9014,7026 9127,7025 9249,7025 9384,8018 9519,9011 9654,10009 L 9321,10009 C 9283,9725 9246,9442 9209,9158 9192,9157 9179,9156 9166,9156 8864,9156 8562,9156 8260,9155 8234,9155 8216,9157 8203,9187 8101,9417 7997,9647 7894,9877 7876,9915 7859,9954 7840,9991 7836,10000 7824,10010 7816,10010 7704,10011 7591,10011 7470,10011 Z"/>
       </g>
      </g>
      <g class="com.sun.star.drawing.ClosedBezierShape">
       <g id="id10">
        <rect class="BoundingBox" stroke="none" fill="none" x="3313" y="3304" width="2186" height="2989"/>
        <path fill="rgb(255,255,255)" stroke="none" d="M 4836,3727 C 4639,4172 4431,4642 4223,5113 L 5005,5113 C 4947,4640 4890,4169 4836,3727 Z M 5498,6291 C 5390,6291 5291,6292 5191,6289 5179,6289 5159,6271 5158,6259 5136,6095 5117,5929 5096,5764 5084,5664 5071,5564 5055,5464 5053,5453 5032,5437 5019,5437 4958,5434 4896,5435 4835,5435 4593,5435 4351,5436 4109,5435 4071,5434 4054,5448 4040,5481 3945,5692 3849,5902 3754,6112 3732,6161 3713,6211 3689,6259 3683,6272 3665,6289 3652,6289 3541,6292 3430,6291 3313,6291 3332,6246 3348,6206 3366,6167 3478,5925 3591,5683 3704,5441 3806,5220 3909,4998 4012,4777 4115,4554 4218,4330 4321,4107 4420,3893 4519,3679 4618,3465 4639,3421 4657,3375 4680,3332 4688,3319 4709,3306 4724,3306 4833,3303 4943,3305 5052,3304 5082,3304 5095,3311 5099,3345 5116,3484 5138,3622 5157,3761 5171,3867 5183,3974 5198,4081 5216,4220 5237,4358 5256,4498 5271,4605 5283,4712 5297,4818 5316,4957 5337,5095 5356,5234 5370,5344 5382,5454 5397,5564 5411,5672 5429,5780 5444,5888 5456,5974 5466,6060 5477,6145 5483,6192 5490,6238 5498,6291 Z"/>
       </g>
      </g>
      <g class="com.sun.star.drawing.ClosedBezierShape">
       <g id="id11">
        <rect class="BoundingBox" stroke="none" fill="none" x="6899" y="3304" width="2186" height="2987"/>
        <path fill="rgb(255,255,255)" stroke="none" d="M 8421,3702 C 8253,4176 8013,4637 7807,5114 L 8593,5114 C 8535,4639 8477,4163 8421,3702 Z M 8680,3304 C 8815,4301 8949,5293 9084,6288 L 8751,6288 C 8714,6006 8677,5724 8639,5439 L 7649,5439 C 7520,5720 7391,6005 7261,6290 L 6899,6290 C 6932,6216 6964,6146 6996,6076 7089,5877 7182,5678 7275,5479 7399,5210 7523,4941 7648,4672 7730,4495 7813,4317 7894,4140 8019,3869 8142,3599 8266,3328 8271,3318 8287,3306 8298,3305 8423,3304 8549,3304 8680,3304 Z"/>
       </g>
      </g>
      <g class="com.sun.star.drawing.ClosedBezierShape">
       <g id="id12">
        <rect class="BoundingBox" stroke="none" fill="none" x="5984" y="3256" width="1245" height="3033"/>
        <path fill="rgb(255,255,255)" stroke="none" d="M 6301,4429 L 6033,4429 C 6051,4327 6067,4230 6084,4130 6162,4130 6237,4128 6311,4131 6344,4132 6355,4119 6361,4087 6396,3902 6425,3716 6473,3534 6515,3377 6625,3290 6797,3263 6939,3241 7070,3278 7203,3308 7214,3311 7229,3338 7227,3352 7213,3440 7195,3527 7179,3615 7175,3641 7164,3647 7138,3640 7079,3623 7019,3604 6959,3596 6861,3584 6780,3612 6752,3719 6718,3847 6697,3979 6671,4109 6670,4114 6672,4119 6673,4129 L 7003,4129 C 6994,4192 6986,4250 6977,4307 6972,4335 6962,4364 6961,4393 6960,4425 6943,4430 6916,4430 6832,4429 6746,4431 6662,4429 6628,4429 6615,4436 6609,4474 6569,4731 6525,4985 6481,5240 6446,5441 6408,5642 6373,5844 6348,5991 6325,6139 6301,6288 L 5984,6288 C 6089,5671 6195,5055 6301,4429 Z"/>
       </g>
      </g>
     </g>
    </g>
   </g>
  </g>
 </g>
</svg>