<?xml version="1.0" encoding="UTF-8"?>
<svg id="Layer_1" xmlns="http://www.w3.org/2000/svg" version="1.1" viewBox="0 0 319.91 100">
  <!-- Generator: Adobe Illustrator 29.6.1, SVG Export Plug-In . SVG Version: 2.1.1 Build 9)  -->
  <defs>
    <style>
      .st0 {
        fill: #4f4f4f;
      }

      .st1 {
        fill: #d6b66d;
      }
    </style>
  </defs>
  <g>
    <path class="st1" d="M57.55,39.78l-2.05-1.77c-3.34-2.88-8.88-2.93-12.34-.12l-2.03,1.66-12.62-12.63,2.07-2.09c1.42-1.43,3.53-3.1,5.49-4.39-.78-1.82-1.19-3.79-1.19-5.82,0-8.07,6.5-14.63,14.5-14.63s14.5,6.56,14.5,14.63c0,2.01-.4,3.96-1.17,5.77,2.1,1.3,4.41,2.99,5.84,4.44l2.11,2.13-2.16,2.08c-.07.06-6.66,6.42-9.03,8.81l-1.91,1.92ZM49.27,29.93c2.72,0,5.43.68,7.8,2.03,1.56-1.53,3.52-3.43,5.03-4.89-1.58-1.16-3.41-2.29-4.62-2.87l-3.21-1.52,2.1-2.89c1.1-1.51,1.68-3.29,1.68-5.16,0-4.82-3.88-8.74-8.66-8.74s-8.66,3.92-8.66,8.74c0,1.87.58,3.65,1.68,5.16l2.09,2.88-3.21,1.52c-1.15.55-2.84,1.68-4.35,2.86l4.77,4.77c2.32-1.27,4.94-1.9,7.57-1.9Z"/>
    <path class="st1" d="M49.37,100c-7.99,0-14.5-6.56-14.5-14.63,0-2.03.41-3.99,1.19-5.82-1.96-1.29-4.07-2.95-5.49-4.39l-2.07-2.09,12.62-12.63,2.04,1.66c3.46,2.82,8.99,2.77,12.34-.12l2.05-1.77,1.91,1.93c2.37,2.39,8.97,8.74,9.03,8.81l2.16,2.08-2.11,2.13c-1.43,1.44-3.74,3.14-5.84,4.44.77,1.81,1.17,3.76,1.17,5.77,0,8.07-6.5,14.63-14.5,14.63ZM36.93,72.94c1.5,1.18,3.2,2.31,4.35,2.86l3.21,1.52-2.09,2.88c-1.1,1.51-1.68,3.3-1.68,5.16,0,4.82,3.88,8.74,8.66,8.74s8.66-3.92,8.66-8.74c0-1.87-.58-3.65-1.68-5.16l-2.1-2.89,3.21-1.52c1.21-.58,3.04-1.71,4.62-2.87-1.51-1.46-3.47-3.36-5.03-4.89-4.64,2.66-10.65,2.71-15.37.13l-4.77,4.77Z"/>
    <path class="st0" d="M26.69,71.24l-2.07-2.09c-1.42-1.43-3.07-3.56-4.35-5.54-1.81.79-3.76,1.2-5.77,1.2-8,0-14.5-6.56-14.5-14.63s6.5-14.63,14.5-14.63c1.99,0,3.93.4,5.72,1.18,1.29-2.12,2.96-4.45,4.4-5.89l2.11-2.13,2.06,2.18c.06.07,6.36,6.72,8.73,9.11l1.91,1.92-1.75,2.07c-2.86,3.38-2.91,8.96-.12,12.44l1.64,2.05-12.52,12.74ZM22.48,55.12l1.51,3.24c.54,1.16,1.66,2.87,2.83,4.38l4.73-4.81c-2.55-4.76-2.5-10.82.13-15.5-1.52-1.57-3.4-3.55-4.85-5.07-1.15,1.6-2.27,3.44-2.84,4.66l-1.51,3.24-2.86-2.11c-1.5-1.11-3.27-1.69-5.12-1.69-4.78,0-8.66,3.92-8.66,8.74s3.88,8.74,8.66,8.74c1.85,0,3.62-.58,5.12-1.69l2.86-2.12Z"/>
    <path class="st0" d="M72.43,71.24l-12.52-12.74,1.64-2.05c2.79-3.49,2.74-9.07-.12-12.44l-1.75-2.07,1.91-1.93c2.37-2.39,8.67-9.04,8.73-9.11l2.06-2.18,2.11,2.13c1.43,1.44,3.11,3.77,4.4,5.89,1.79-.78,3.73-1.18,5.72-1.18,7.99,0,14.5,6.56,14.5,14.63s-6.5,14.63-14.5,14.63c-2.01,0-3.96-.41-5.77-1.2-1.28,1.98-2.93,4.1-4.35,5.54l-2.07,2.09ZM67.57,57.93l4.73,4.81c1.17-1.52,2.29-3.23,2.83-4.38l1.51-3.24,2.86,2.12c1.49,1.11,3.26,1.69,5.12,1.69,4.77,0,8.66-3.92,8.66-8.74s-3.88-8.74-8.66-8.74c-1.85,0-3.62.58-5.12,1.69l-2.86,2.11-1.51-3.24c-.57-1.22-1.69-3.07-2.84-4.66-1.45,1.52-3.33,3.5-4.85,5.07,2.63,4.68,2.69,10.74.13,15.5Z"/>
  </g>
  <rect class="st0" x="110.68" y="1.73" width="3.08" height="96.55"/>
  <g>
    <g>
      <path class="st1" d="M134.23,44.42c-1.82,0-3.51-.37-5.07-1.12-1.56-.75-2.83-1.84-3.83-3.27l3.06-3.79c.8,1.15,1.68,2.01,2.63,2.59.95.57,2.01.86,3.17.86,2.98,0,4.47-1.85,4.47-5.56v-15.55h-10.3v-4.74h15.64v19.99c0,3.56-.83,6.22-2.48,7.97-1.66,1.75-4.08,2.63-7.28,2.63Z"/>
      <path class="st1" d="M163.98,44.42c-3.95,0-7.04-1.16-9.29-3.49-2.25-2.33-3.37-5.7-3.37-10.12V13.83h5.38v16.8c0,3.1.64,5.36,1.92,6.76,1.28,1.41,3.1,2.11,5.44,2.11s4.15-.7,5.42-2.11c1.27-1.41,1.9-3.66,1.9-6.76V13.83h5.3v16.97c0,4.42-1.12,7.8-3.37,10.12-2.25,2.33-5.36,3.49-9.33,3.49Z"/>
      <path class="st1" d="M193.2,44.42c-2.26,0-4.42-.34-6.48-1.01-2.06-.67-3.7-1.54-4.95-2.61l1.86-4.35c1.16.95,2.59,1.74,4.3,2.37,1.71.63,3.46.95,5.26.95,1.52,0,2.74-.17,3.68-.52.94-.34,1.63-.81,2.07-1.4.44-.59.66-1.26.66-2,0-.92-.32-1.66-.95-2.22-.63-.56-1.46-1.01-2.46-1.34-1.01-.33-2.12-.63-3.35-.9-1.23-.27-2.46-.61-3.68-1.01-1.23-.4-2.35-.91-3.37-1.53-1.02-.62-1.84-1.44-2.46-2.48-.62-1.03-.93-2.35-.93-3.96s.42-3.14,1.26-4.5c.84-1.36,2.12-2.46,3.85-3.27,1.72-.82,3.91-1.23,6.56-1.23,1.74,0,3.46.23,5.17.69,1.71.46,3.2,1.12,4.47,1.98l-1.7,4.35c-1.3-.8-2.63-1.4-4.01-1.79-1.38-.39-2.7-.58-3.97-.58-1.46,0-2.66.19-3.6.56-.94.37-1.62.87-2.05,1.49-.43.62-.64,1.3-.64,2.05,0,.92.31,1.66.93,2.22.62.56,1.43,1,2.44,1.31,1.01.32,2.13.62,3.37.9,1.24.29,2.47.62,3.68,1.01,1.21.39,2.33.89,3.35,1.51,1.02.62,1.84,1.44,2.46,2.46.62,1.02.93,2.32.93,3.9s-.42,3.1-1.26,4.46c-.84,1.36-2.13,2.46-3.87,3.27-1.74.82-3.93,1.23-6.58,1.23Z"/>
      <path class="st1" d="M215.71,43.99v-25.42h-9.6v-4.74h24.58v4.74h-9.6v25.42h-5.38Z"/>
      <path class="st1" d="M234.75,43.99V13.83h21.15v4.74h-15.77v20.68h16.35v4.74h-21.73ZM239.71,30.98v-4.61h14.4v4.61h-14.4Z"/>
      <path class="st1" d="M275.88,44.42c-2.23,0-4.29-.38-6.17-1.14-1.88-.76-3.51-1.85-4.9-3.25-1.39-1.41-2.48-3.04-3.25-4.91-.77-1.87-1.16-3.93-1.16-6.2s.39-4.34,1.16-6.2c.77-1.87,1.86-3.5,3.27-4.91,1.41-1.41,3.05-2.49,4.92-3.25,1.88-.76,3.93-1.14,6.17-1.14,2.37,0,4.54.42,6.5,1.27,1.96.85,3.61,2.1,4.97,3.77l-3.48,3.4c-1.08-1.18-2.26-2.06-3.56-2.65-1.3-.59-2.69-.88-4.18-.88s-2.9.26-4.16.78c-1.26.52-2.35,1.25-3.27,2.2-.92.95-1.65,2.07-2.17,3.36-.52,1.29-.79,2.71-.79,4.27s.26,2.97.79,4.27c.52,1.29,1.25,2.41,2.17,3.36.92.95,2.01,1.68,3.27,2.2,1.26.52,2.64.78,4.16.78s2.88-.29,4.18-.88c1.3-.59,2.48-1.49,3.56-2.69l3.48,3.4c-1.35,1.67-3.01,2.93-4.97,3.79-1.96.86-4.14,1.29-6.54,1.29Z"/>
      <path class="st1" d="M304.35,44.42c-2.23,0-4.31-.39-6.23-1.16-1.92-.78-3.58-1.87-4.99-3.27-1.41-1.41-2.5-3.05-3.27-4.93-.77-1.88-1.16-3.93-1.16-6.14s.39-4.3,1.16-6.18c.77-1.88,1.86-3.52,3.27-4.91,1.41-1.39,3.06-2.48,4.97-3.25s3.99-1.16,6.25-1.16,4.3.38,6.21,1.14c1.9.76,3.55,1.84,4.95,3.23,1.39,1.39,2.48,3.04,3.25,4.93.77,1.9,1.16,3.96,1.16,6.2s-.39,4.3-1.16,6.18c-.77,1.88-1.86,3.53-3.25,4.93-1.39,1.41-3.04,2.49-4.95,3.25-1.9.76-3.97,1.14-6.21,1.14ZM304.35,39.51c1.46,0,2.81-.26,4.03-.78,1.23-.52,2.3-1.25,3.21-2.2.91-.95,1.62-2.07,2.13-3.36.51-1.29.77-2.71.77-4.27s-.25-2.97-.74-4.27c-.5-1.29-1.21-2.41-2.13-3.36-.92-.95-2-1.68-3.23-2.2-1.23-.52-2.57-.78-4.03-.78s-2.82.26-4.08.78c-1.26.52-2.34,1.26-3.25,2.22-.91.96-1.63,2.08-2.15,3.36-.52,1.28-.79,2.69-.79,4.24s.26,2.93.79,4.22c.52,1.29,1.24,2.42,2.15,3.38.91.96,1.99,1.7,3.25,2.22,1.26.52,2.61.78,4.08.78Z"/>
    </g>
    <g>
      <path class="st0" d="M141.2,86.6c-2.29,0-4.4-.39-6.32-1.17-1.92-.78-3.6-1.89-5.03-3.34-1.43-1.44-2.54-3.12-3.33-5.04-.79-1.91-1.19-4.04-1.19-6.36s.4-4.45,1.19-6.36c.79-1.91,1.91-3.59,3.35-5.04,1.44-1.44,3.13-2.55,5.05-3.34,1.92-.78,4.03-1.17,6.32-1.17,2.43,0,4.65.43,6.66,1.3,2.01.87,3.71,2.16,5.09,3.87l-3.56,3.49c-1.1-1.21-2.32-2.11-3.65-2.72-1.33-.6-2.76-.91-4.29-.91s-2.98.27-4.27.8c-1.29.53-2.41,1.28-3.35,2.25-.95.97-1.69,2.12-2.23,3.45-.54,1.33-.81,2.78-.81,4.37s.27,3.05.81,4.37c.54,1.33,1.28,2.47,2.23,3.45.95.97,2.07,1.72,3.35,2.25,1.29.53,2.71.8,4.27.8s2.96-.3,4.29-.91c1.33-.6,2.55-1.52,3.65-2.76l3.56,3.49c-1.39,1.71-3.08,3-5.09,3.89-2.01.88-4.24,1.33-6.71,1.33Z"/>
      <path class="st0" d="M157.92,86.16v-30.93h5.52v30.93h-5.52ZM163.02,72.9v-4.9h16.21v4.9h-16.21ZM178.8,86.16v-30.93h5.47v30.93h-5.47Z"/>
      <path class="st0" d="M188.1,86.16l13.37-30.93h5.43l13.41,30.93h-5.81l-11.46-27.88h2.21l-11.5,27.88h-5.64ZM194.25,79l1.53-4.51h16l1.49,4.51h-19.01Z"/>
      <path class="st0" d="M224.09,86.16v-30.93h12.18c3.96,0,7.07.98,9.32,2.94,2.25,1.96,3.37,4.65,3.37,8.06,0,2.27-.51,4.21-1.53,5.83-1.02,1.62-2.47,2.87-4.35,3.76-1.88.88-4.14,1.33-6.77,1.33h-9.12l2.42-2.56v11.58h-5.52ZM229.6,75.2l-2.42-2.78h8.87c2.43,0,4.27-.54,5.5-1.63,1.23-1.09,1.85-2.61,1.85-4.55s-.62-3.45-1.85-4.53c-1.23-1.07-3.06-1.61-5.5-1.61h-8.87l2.42-2.83v17.94ZM243.52,86.16l-7.51-11.22h5.9l7.55,11.22h-5.94Z"/>
      <path class="st0" d="M255.11,86.16v-30.93h5.52v30.93h-5.52Z"/>
      <path class="st0" d="M274.67,86.16v-26.07h-9.85v-4.86h25.21v4.86h-9.85v26.07h-5.52Z"/>
      <path class="st0" d="M302.77,86.16v-12.24l1.27,3.49-12.94-22.18h5.86l10.44,17.89h-3.31l10.4-17.89h5.43l-12.9,22.18,1.23-3.49v12.24h-5.47Z"/>
    </g>
  </g>
</svg>