<svg fill="none" xmlns="http://www.w3.org/2000/svg" viewBox="0 0 196 111">
  <path d="M178.756 25.34h-1.158v7.363h1.158V25.34Zm-6.211 38.56h-1.159v7.362h1.159V63.9Zm-1.184-3.127a.851.851 0 0 0-.257.621c0 .241.086.444.257.612a.869.869 0 0 0 .62.249.835.835 0 0 0 .612-.249.833.833 0 0 0 .249-.612.868.868 0 0 0-.249-.62.817.817 0 0 0-.612-.258.842.842 0 0 0-.62.257ZM157.488 83.18h-1.143v7.36h1.159v-4.432c0-.303.058-.578.173-.822a2.058 2.058 0 0 1 1.081-1.042c.23-.093.465-.14.704-.14.564 0 .976.133 1.238.4.261.267.392.707.392 1.324v4.714h1.142V86.11c0-.304.058-.579.174-.823a2.076 2.076 0 0 1 1.075-1.042c.224-.093.445-.14.665-.14.541 0 .981.133 1.316.4.334.267.502.707.502 1.324v4.715h1.128v-5.028c0-.385-.066-.73-.196-1.035a2.235 2.235 0 0 0-.541-.767 2.21 2.21 0 0 0-.829-.469 3.364 3.364 0 0 0-1.051-.157c-.564 0-1.059.133-1.487.4a2.532 2.532 0 0 0-.957 1.025 2.651 2.651 0 0 0-.227-.445 1.911 1.911 0 0 0-.408-.464 2.34 2.34 0 0 0-.618-.368 2.239 2.239 0 0 0-.848-.148c-.311 0-.596.035-.853.108a2.658 2.658 0 0 0-1.199.714 2.544 2.544 0 0 0-.361.46h-.03v-1.19h-.001Zm1.475-11.919h1.16V60.202h-1.16V71.26Zm-4.966 8.22h-1.16v11.06h1.16V79.48Zm-2.832-12.574c.032-.249.097-.506.198-.768.098-.26.245-.5.438-.72.193-.22.445-.398.755-.533.308-.135.685-.204 1.123-.204.356 0 .674.06.952.175.277.114.509.274.691.477.183.202.325.44.424.712.098.272.148.56.148.861h-4.729Zm-.385 3.377c.301.351.681.633 1.143.854.466.217 1.021.327 1.67.327.814 0 1.508-.161 2.083-.484a3.217 3.217 0 0 0 1.315-1.394l-1.018-.407a2.476 2.476 0 0 1-.298.445 2.087 2.087 0 0 1-.473.407c-.188.12-.408.222-.658.298-.252.08-.541.118-.866.118-.398 0-.751-.062-1.06-.19a2.158 2.158 0 0 1-.787-.53 2.451 2.451 0 0 1-.504-.821 3.017 3.017 0 0 1-.18-1.058h5.935v-.486c0-.628-.082-1.17-.249-1.63a3.08 3.08 0 0 0-.704-1.142 2.843 2.843 0 0 0-1.081-.676 4.074 4.074 0 0 0-1.362-.218c-.575 0-1.094.098-1.558.298a3.406 3.406 0 0 0-1.19.829c-.33.357-.583.779-.761 1.27a4.73 4.73 0 0 0-.266 1.614c0 .469.07.927.211 1.379.143.448.363.846.658 1.197Zm-1.585 11.001a.857.857 0 0 0 .618.25.84.84 0 0 0 .612-.25.832.832 0 0 0 .249-.61.86.86 0 0 0-.249-.621.818.818 0 0 0-.612-.259.834.834 0 0 0-.618.259.838.838 0 0 0-.26.62c0 .24.086.443.26.611Zm1.182 1.895h-1.16v7.36h1.16v-7.36Zm-.03-38.559h-1.298l3.021 7.364h1.034l3.07-7.364h-1.24l-2.316 5.719h-.03l-2.241-5.719Zm-7.677 39.497h1.566v6.423h1.159v-6.423h2.13v-.938h-2.13v-.437c0-.269.017-.536.047-.802a2.28 2.28 0 0 1 .189-.7c.093-.202.225-.365.391-.49.168-.125.388-.188.659-.188.178 0 .347.008.51.023.16.019.303.05.429.102v-1.093a2.994 2.994 0 0 0-.493-.087 4.772 4.772 0 0 0-.463-.025c-.469 0-.861.094-1.175.283a2.12 2.12 0 0 0-.744.736 3.19 3.19 0 0 0-.393 1.024 5.75 5.75 0 0 0-.117 1.154v.502h-1.567v.936h.002Zm-4.682 18.342h-1.3l3.025 7.362h1.033l3.068-7.362h-1.237l-2.319 5.716h-.03l-2.24-5.716Zm1.192-56.57h-.016v-4.966h-1.16v11.06h1.16v-4.089c0-.376.065-.711.194-1.002a2.251 2.251 0 0 1 1.23-1.191 2.135 2.135 0 0 1 1.428-.064c.207.064.399.172.572.329.172.157.312.363.422.618.11.257.164.578.164.964v4.434h1.16v-4.949c0-.514-.096-.93-.291-1.254a2.446 2.446 0 0 0-.695-.768 2.442 2.442 0 0 0-.862-.384 3.61 3.61 0 0 0-.783-.103c-.534 0-1.025.11-1.473.33a2.34 2.34 0 0 0-1.05 1.035Zm-1.872-32.696h2.089V5.747h-2.089v7.446Zm-.51 77.347h1.158V79.48h-1.158v11.06Zm-.762-39.586c.167-.225.297-.444.392-.663l-1.129-.36a2.284 2.284 0 0 1-.657.862c-.294.24-.727.359-1.301.359-.459 0-.846-.078-1.159-.235a2.346 2.346 0 0 1-.776-.611 2.356 2.356 0 0 1-.438-.862 3.773 3.773 0 0 1-.134-.987c0-.417.055-.812.166-1.183.108-.37.271-.69.485-.956.214-.265.474-.477.782-.634a2.34 2.34 0 0 1 1.074-.235c.575 0 1.007.11 1.294.33.287.22.503.495.649.83l1.097-.299a2.39 2.39 0 0 0-1.033-1.385c-.524-.34-1.186-.509-1.99-.509-.511 0-.994.092-1.45.275a3.563 3.563 0 0 0-1.198.791 3.66 3.66 0 0 0-.813 1.27c-.199.5-.298 1.07-.298 1.706 0 .522.082 1.008.242 1.458a3.4 3.4 0 0 0 .72 1.183c.321.338.712.605 1.175.798.466.194.995.29 1.589.29a3.75 3.75 0 0 0 1.191-.173c.346-.114.641-.264.892-.445.252-.181.461-.39.628-.614Zm-6.159 15.952a3.21 3.21 0 0 1 .197-.768c.099-.26.246-.5.44-.72a2.11 2.11 0 0 1 .756-.533c.307-.135.682-.204 1.122-.204.357 0 .674.06.952.175.277.114.508.274.69.477.184.202.326.44.424.712.1.272.149.56.149.861h-4.73Zm.165 1.998c-.12-.319-.18-.674-.18-1.058h5.937v-.484c0-.628-.083-1.17-.25-1.63a3.07 3.07 0 0 0-.706-1.142 2.828 2.828 0 0 0-1.079-.676 4.111 4.111 0 0 0-1.363-.218c-.576 0-1.093.098-1.559.298a3.411 3.411 0 0 0-1.189.829c-.33.357-.581.779-.759 1.27a4.682 4.682 0 0 0-.267 1.614c0 .469.071.927.212 1.379.139.449.358.847.658 1.198.299.351.678.633 1.143.854.464.218 1.022.328 1.667.328.816 0 1.51-.162 2.083-.485a3.213 3.213 0 0 0 1.316-1.393l-1.019-.408a2.254 2.254 0 0 1-.3.445 1.987 1.987 0 0 1-.47.408c-.188.12-.409.22-.659.298-.252.08-.542.118-.865.118-.397 0-.751-.063-1.062-.19a2.163 2.163 0 0 1-.784-.53 2.493 2.493 0 0 1-.505-.825Zm5.25 33.555h-1.159v7.362h1.159v-7.362Zm-1.181-3.126a.84.84 0 0 0-.259.62c0 .24.086.443.259.609a.85.85 0 0 0 .619.251.83.83 0 0 0 .61-.251.825.825 0 0 0 .25-.609.856.856 0 0 0-.25-.62.814.814 0 0 0-.61-.26.835.835 0 0 0-.619.26Zm-2.192-9.64c-.266.075-.525.11-.775.11-.524 0-.933-.107-1.231-.32-.297-.213-.447-.53-.447-.948 0-.28.061-.515.182-.695.119-.184.292-.332.516-.44.225-.109.502-.188.831-.236.328-.046.701-.08 1.119-.1l1.286-.048v.957c0 .312-.071.586-.211.823a1.81 1.81 0 0 1-.542.572 2.449 2.449 0 0 1-.728.326Zm-.344.996c.234-.038.466-.099.688-.188.225-.088.435-.211.629-.36.194-.15.353-.343.476-.572h.032v.97h1.252a11.21 11.21 0 0 1-.079-.704 9.187 9.187 0 0 1-.031-.736v-3.65c0-.794-.251-1.408-.758-1.835-.508-.428-1.256-.64-2.249-.64-.864 0-1.567.184-2.097.556-.533.37-.863.967-.988 1.793h1.143c.033-.207.088-.4.166-.573.079-.17.193-.317.346-.437.149-.12.341-.215.572-.282.229-.069.51-.1.846-.1.373 0 .685.039.922.124.243.084.431.197.573.345.14.145.241.32.298.525.057.205.086.42.086.649v.567l-1.69.06a9.593 9.593 0 0 0-1.396.158 3.234 3.234 0 0 0-1.096.407c-.303.189-.54.431-.714.73-.172.296-.258.664-.258 1.104a1.993 1.993 0 0 0 .671 1.51c.22.194.496.348.823.463.329.115.714.174 1.152.174a4.96 4.96 0 0 0 .681-.058Zm-4.771 8.072h-1.16v11.06h1.16v-4.088c0-.377.064-.712.195-1.004.131-.292.303-.538.517-.735.214-.2.452-.351.713-.456.261-.103.526-.157.799-.157.21 0 .417.031.628.094.208.063.398.173.572.327.169.159.312.365.421.621.11.255.165.579.165.964v4.434h1.159v-4.949c0-.513-.096-.93-.291-1.253a2.428 2.428 0 0 0-.697-.768 2.46 2.46 0 0 0-.861-.383 3.301 3.301 0 0 0-2.254.227c-.45.219-.799.564-1.05 1.033h-.014v-4.967h-.002Zm-3.126-9.238c-.302.126-.607.19-.909.19a2.41 2.41 0 0 1-.939-.182c-.292-.12-.545-.3-.761-.54a2.534 2.534 0 0 1-.501-.9c-.12-.361-.18-.788-.18-1.278 0-.385.053-.75.158-1.088.103-.338.258-.637.462-.893a2.194 2.194 0 0 1 1.777-.84c.387 0 .735.075 1.049.22.314.149.58.346.8.595.22.251.386.543.5.88.116.332.173.693.173 1.077 0 .492-.077.92-.227 1.286a2.872 2.872 0 0 1-.587.915c-.241.247-.512.43-.815.558Zm-.118 1.073a3.206 3.206 0 0 0 1.356-.861c.156-.172.277-.331.359-.478h.032v1.284h1.127v-11.06h-1.127v4.841h-.032a2.804 2.804 0 0 0-.359-.494 2.394 2.394 0 0 0-.534-.43 2.984 2.984 0 0 0-.72-.305 3.293 3.293 0 0 0-.91-.116c-.501 0-.971.092-1.408.28-.44.19-.82.455-1.144.8-.323.346-.58.754-.769 1.23-.187.476-.28 1-.28 1.574 0 .68.101 1.262.305 1.745.202.486.467.888.79 1.207.325.318.689.553 1.089.704.403.153.806.228 1.214.228a3.272 3.272 0 0 0 1.011-.15Zm2.019-19.336h1.16V60.202h-1.16V71.26Zm-8.044 33.327a4.652 4.652 0 0 0-.298 1.708c0 .522.081 1.01.244 1.457.162.449.401.844.719 1.184.321.339.71.605 1.175.799.465.193.994.29 1.59.29.448 0 .847-.057 1.191-.174.346-.115.642-.262.894-.446.249-.182.458-.387.626-.611.167-.223.297-.445.392-.664l-1.128-.361a2.29 2.29 0 0 1-.658.861c-.293.241-.727.362-1.301.362-.459 0-.846-.081-1.158-.237a2.293 2.293 0 0 1-1.215-1.472 3.784 3.784 0 0 1-.132-.986c0-.417.054-.812.164-1.184.11-.372.271-.69.486-.956.213-.265.475-.477.783-.635.307-.157.666-.234 1.074-.234.573 0 1.003.108 1.292.328.288.219.503.496.649.831l1.097-.301a2.406 2.406 0 0 0-1.035-1.387c-.523-.337-1.186-.505-1.989-.505-.511 0-.993.088-1.449.274-.454.18-.854.443-1.197.789a3.712 3.712 0 0 0-.816 1.27Zm.716-35.329c0-.282.059-.516.18-.698.12-.183.292-.33.516-.44.225-.11.502-.186.83-.234.329-.045.702-.082 1.12-.1l1.284-.05v.958c0 .312-.07.585-.21.822a1.837 1.837 0 0 1-.541.574c-.22.144-.463.253-.729.327-.267.073-.525.11-.775.11-.523 0-.931-.108-1.229-.322-.298-.216-.446-.531-.446-.947Zm-.965-1.04c-.172.294-.258.664-.258 1.104 0 .29.057.566.172.827.116.261.282.489.502.682.22.194.494.349.823.464.329.115.712.17 1.152.17.218 0 .445-.018.682-.052.234-.039.463-.101.689-.191a2.45 2.45 0 0 0 .626-.359c.193-.15.352-.342.477-.57h.031v.969h1.253a10.643 10.643 0 0 1-.108-1.441v-3.65c0-.795-.255-1.405-.76-1.834-.506-.428-1.256-.641-2.249-.641-.866 0-1.566.187-2.098.555-.532.372-.862.97-.987 1.794h1.143c.032-.208.085-.401.165-.572.078-.173.193-.32.344-.438.151-.12.342-.215.573-.282.228-.07.512-.101.845-.101.376 0 .684.04.925.124.238.084.43.2.57.346.141.144.24.32.298.523.056.204.085.421.085.65v.565l-1.691.063a9.706 9.706 0 0 0-1.393.156c-.429.084-.795.22-1.098.408a2.05 2.05 0 0 0-.713.73Zm4.244-19.761v.956c0 .314-.071.587-.212.824a1.777 1.777 0 0 1-.541.57 2.494 2.494 0 0 1-.727.33c-.266.073-.524.11-.776.11-.523 0-.932-.107-1.229-.322-.298-.213-.446-.53-.446-.948 0-.282.06-.514.181-.696.12-.182.292-.33.517-.439.225-.11.501-.19.829-.234.33-.048.703-.082 1.12-.103l1.284-.048Zm0-1.441v.564l-1.693.062a9.394 9.394 0 0 0-1.394.157c-.428.084-.794.22-1.097.407-.303.19-.54.432-.712.73-.173.297-.259.666-.259 1.105a1.99 1.99 0 0 0 .673 1.511c.22.193.494.345.822.46.33.116.714.173 1.153.173.218 0 .445-.017.682-.055.234-.038.464-.099.688-.189.225-.087.435-.208.628-.359a1.81 1.81 0 0 0 .477-.572h.032v.972h1.252a11.59 11.59 0 0 1-.078-.706 9.178 9.178 0 0 1-.032-.736v-3.65c0-.793-.251-1.405-.758-1.833-.506-.428-1.256-.64-2.248-.64-.867 0-1.566.185-2.099.555-.533.371-.861.969-.988 1.794h1.146c.032-.21.085-.4.164-.572.078-.173.193-.32.344-.439.151-.119.342-.214.571-.282.231-.069.511-.102.848-.102.374 0 .683.041.923.125.241.083.43.198.572.344.14.147.241.322.298.524.054.206.085.423.085.652Zm-7.893 55.443h-1.13v7.362h1.159v-3.338c0-.438.071-.841.213-1.206.14-.366.331-.681.571-.947.239-.266.523-.475.846-.628a2.436 2.436 0 0 1 1.049-.227h.376v-1.112h-.405c-.315 0-.615.061-.902.187a3.515 3.515 0 0 0-.783.472c-.236.188-.436.39-.602.61a2.577 2.577 0 0 0-.362.609h-.029v-1.782h-.001Zm-.861-11.92h1.159V79.482h-1.159V90.54Zm-2.459-24.368c.131-.293.3-.536.508-.738a2.23 2.23 0 0 1 1.504-.612c.21 0 .418.034.628.096.209.063.399.172.572.328a1.8 1.8 0 0 1 .423.619c.11.257.164.578.164.965v4.433h1.159v-4.95c0-.51-.096-.929-.29-1.252a2.453 2.453 0 0 0-.698-.768 2.493 2.493 0 0 0-.861-.384 3.594 3.594 0 0 0-.783-.1 3.25 3.25 0 0 0-1.464.327c-.444.22-.792.566-1.044 1.033h-.014v-1.267h-1.159v7.362h1.159v-4.088c0-.378.064-.711.196-1.004Zm-5.274-14.189v-4.434c0-.303.056-.577.171-.822a2.059 2.059 0 0 1 1.081-1.042c.23-.093.464-.14.705-.14.563 0 .976.133 1.236.4.262.265.393.706.393 1.322v4.716h1.143v-4.434c0-.303.057-.577.172-.822a2.095 2.095 0 0 1 1.073-1.042c.225-.093.446-.14.665-.14.543 0 .981.133 1.316.4.335.265.502.706.502 1.322v4.716h1.127v-5.028a2.63 2.63 0 0 0-.194-1.036 2.18 2.18 0 0 0-.541-.765 2.207 2.207 0 0 0-.83-.47 3.402 3.402 0 0 0-1.049-.158c-.564 0-1.059.134-1.489.4a2.54 2.54 0 0 0-.954 1.026 2.84 2.84 0 0 0-.228-.447 1.928 1.928 0 0 0-.408-.463 2.193 2.193 0 0 0-1.463-.517c-.314 0-.599.037-.855.11a2.63 2.63 0 0 0-1.198.713 2.544 2.544 0 0 0-.36.462h-.031v-1.19h-1.143v7.363h1.159Zm4.335 35.991c0 .312-.071.586-.212.823a1.807 1.807 0 0 1-.541.572 2.515 2.515 0 0 1-.727.327c-.269.074-.525.11-.776.11-.522 0-.932-.107-1.23-.32-.297-.214-.446-.53-.446-.949 0-.28.059-.515.18-.695.12-.184.294-.331.516-.44.225-.108.502-.188.831-.236.329-.046.701-.08 1.12-.1l1.285-.048v.956Zm0 2.567h1.251a11.304 11.304 0 0 1-.109-1.44v-3.65c0-.794-.251-1.407-.758-1.835-.508-.428-1.256-.64-2.248-.64-.867 0-1.566.184-2.099.557-.532.37-.861.966-.986 1.793h1.144c.03-.208.086-.4.164-.574.081-.17.193-.316.346-.437a1.67 1.67 0 0 1 .572-.282c.229-.069.511-.1.846-.1.376 0 .683.04.924.124.241.085.432.197.572.346.141.144.242.32.298.524.057.205.087.42.087.649v.566l-1.693.06a9.534 9.534 0 0 0-1.393.158 3.237 3.237 0 0 0-1.098.407c-.302.189-.54.431-.712.73-.173.296-.259.664-.259 1.104 0 .292.057.57.172.829.114.26.281.488.501.682.22.193.494.347.822.462.329.115.713.174 1.153.174.218 0 .445-.02.682-.055.234-.038.463-.1.688-.188.224-.089.433-.212.627-.36.193-.151.352-.343.478-.572h.032v.968h-.004Zm-4.14 17.274c0-.28.059-.515.18-.695a1.26 1.26 0 0 1 .516-.44 2.85 2.85 0 0 1 .831-.235c.329-.045.702-.08 1.119-.101l1.284-.046v.956c0 .311-.07.585-.21.822a1.786 1.786 0 0 1-.541.572 2.53 2.53 0 0 1-.728.327 2.865 2.865 0 0 1-.776.112c-.522 0-.932-.109-1.23-.321-.296-.216-.445-.532-.445-.951Zm-.964-1.041c-.173.298-.259.667-.259 1.106 0 .293.057.568.173.829.115.261.282.489.501.682.219.194.493.346.823.461.33.117.712.174 1.151.174.22 0 .446-.02.682-.055a3.2 3.2 0 0 0 .69-.189c.222-.087.431-.209.626-.359.193-.151.352-.342.477-.572h.03v.971h1.254c-.03-.208-.056-.445-.078-.705a9.206 9.206 0 0 1-.031-.736v-3.651c0-.794-.252-1.405-.761-1.833-.505-.427-1.255-.64-2.247-.64-.866 0-1.565.183-2.099.555-.532.37-.861.968-.987 1.793h1.143c.032-.206.086-.398.164-.573.08-.17.194-.315.346-.437.151-.121.343-.215.572-.284a3.09 3.09 0 0 1 .845-.099c.376 0 .685.04.924.125.242.083.431.197.573.345.14.145.241.322.298.525.055.202.084.418.084.647v.567l-1.69.062a9.27 9.27 0 0 0-1.394.157 3.213 3.213 0 0 0-1.097.407c-.303.187-.54.429-.713.727ZM102.29 70.22a2.289 2.289 0 0 1-.799-.587 2.666 2.666 0 0 1-.51-.903 3.507 3.507 0 0 1-.18-1.15c0-.408.059-.787.18-1.135.121-.35.29-.65.51-.902.22-.25.485-.446.799-.586.314-.14.669-.212 1.065-.212.396 0 .754.071 1.074.212.319.14.588.336.806.586.22.25.388.551.51.902.12.35.18.729.18 1.135 0 .419-.06.801-.18 1.15a2.68 2.68 0 0 1-.51.903 2.28 2.28 0 0 1-.806.587c-.318.141-.677.21-1.074.21-.398 0-.751-.068-1.065-.21Zm-.643.917c.481.217 1.049.327 1.708.327.615 0 1.162-.11 1.638-.327a3.51 3.51 0 0 0 1.189-.88 3.85 3.85 0 0 0 .728-1.243 4.21 4.21 0 0 0 .251-1.433c0-.478-.074-.956-.22-1.425a3.516 3.516 0 0 0-.682-1.246 3.436 3.436 0 0 0-1.184-.875c-.48-.224-1.053-.338-1.723-.338-.616 0-1.159.114-1.629.338a3.776 3.776 0 0 0-1.191.875c-.323.36-.565.778-.727 1.246a4.36 4.36 0 0 0-.242 1.425c0 .49.073.968.218 1.433.146.465.374.88.683 1.244.308.367.703.658 1.183.88Zm-1.272-19.155h1.159v-11.06h-1.159v11.06Zm-1.264-19.28h1.159v-7.361h-1.159v7.362ZM89.12 102.46h-1.144v7.362h1.159v-4.434c0-.303.057-.579.172-.823.115-.243.266-.455.454-.634s.396-.312.627-.408c.229-.094.465-.141.704-.141.563 0 .976.135 1.237.401.261.266.392.707.392 1.324v4.715h1.143v-4.434c0-.303.057-.579.172-.823a2.073 2.073 0 0 1 1.073-1.042c.224-.094.445-.141.665-.141.543 0 .981.135 1.315.401.334.266.502.707.502 1.324v4.715h1.128v-5.029c0-.386-.066-.731-.196-1.034a2.203 2.203 0 0 0-.539-.768 2.25 2.25 0 0 0-.83-.469 3.375 3.375 0 0 0-1.05-.156c-.563 0-1.06.134-1.488.397a2.527 2.527 0 0 0-.956 1.028 2.896 2.896 0 0 0-.226-.447 2.028 2.028 0 0 0-.407-.463 2.34 2.34 0 0 0-.618-.367 2.213 2.213 0 0 0-.847-.148c-.313 0-.598.036-.854.11a2.483 2.483 0 0 0-.682.296 2.713 2.713 0 0 0-.877.878h-.03v-1.19h.001Zm7.434-40.454a.862.862 0 0 0 .618.249c.24 0 .443-.084.61-.25a.835.835 0 0 0 .25-.611.862.862 0 0 0-.25-.621.815.815 0 0 0-.61-.257.842.842 0 0 0-.618.257.85.85 0 0 0-.26.62c0 .242.088.444.26.613Zm1.181 1.895h-1.159v7.362h1.16V63.9Zm-.977-11.918h1.159V44.62h-1.16v7.363Zm-1.374-21.426V26.28h2.192v-.94h-2.192V23.21H94.24v2.13h-1.457v.941h1.459v4.51c0 .732.164 1.245.493 1.543.329.298.807.447 1.435.447.165 0 .334-.004.5-.016.169-.01.355-.027.565-.046v-1.003c-.24.03-.496.046-.767.046-.428 0-.715-.116-.861-.352-.15-.236-.223-.519-.223-.854Zm-3.608 13.562v.502h-1.567v.94h1.567v6.422h1.16V45.56h2.13v-.939h-2.13v-.437c0-.269.014-.537.046-.801s.094-.498.19-.7c.092-.203.222-.366.39-.49.167-.125.387-.189.658-.189.178 0 .347.008.509.024.162.016.305.05.432.102v-1.094a3.028 3.028 0 0 0-.494-.087 4.778 4.778 0 0 0-.462-.025c-.47 0-.863.094-1.175.282-.313.19-.562.433-.745.738a3.186 3.186 0 0 0-.39 1.025c-.08.38-.12.764-.12 1.15Zm-1.335-14.94v.957c0 .312-.072.586-.212.822a1.76 1.76 0 0 1-.54.572 2.44 2.44 0 0 1-.729.329c-.267.073-.524.11-.776.11-.523 0-.932-.108-1.23-.32-.298-.215-.445-.53-.445-.949 0-.282.06-.514.18-.697.12-.182.293-.33.518-.44a2.8 2.8 0 0 1 .829-.234c.33-.047.703-.08 1.12-.102l1.285-.047Zm0-1.442v.565l-1.691.062a9.348 9.348 0 0 0-1.395.157c-.428.085-.793.22-1.097.408-.303.188-.54.43-.713.729-.172.296-.258.665-.258 1.103 0 .291.056.57.172.83.115.261.282.488.502.682.218.194.494.347.822.461.33.115.713.172 1.15.172.22 0 .447-.018.683-.054.236-.037.465-.1.69-.19.224-.087.433-.207.626-.358.194-.153.354-.343.478-.572h.03v.97h1.254a10.26 10.26 0 0 1-.077-.704 8.541 8.541 0 0 1-.032-.735V27.61c0-.794-.253-1.404-.76-1.833-.506-.428-1.256-.641-2.248-.641-.867 0-1.566.185-2.1.556-.532.37-.86.968-.987 1.793h1.143c.032-.21.086-.4.166-.572.078-.172.193-.318.344-.438.151-.12.34-.215.572-.282.23-.068.51-.102.845-.102.378 0 .684.042.926.126.24.083.429.198.572.344.14.145.24.32.298.524.057.204.085.421.085.65Zm-6.168 21.786c.063.136.094.298.094.487 0 .428-.19.739-.572.93-.381.194-.86.291-1.434.291-.365 0-.667-.033-.908-.102a1.734 1.734 0 0 1-.588-.276.956.956 0 0 1-.32-.406 1.563 1.563 0 0 1-.11-.502h-1.16c.03.335.101.637.212.908.11.272.282.508.517.705.236.2.545.352.932.462.387.11.871.165 1.457.165.575 0 1.06-.064 1.458-.195.396-.13.716-.298.963-.506.245-.207.422-.448.532-.718.11-.27.164-.547.164-.826 0-.387-.073-.703-.22-.954a1.744 1.744 0 0 0-.602-.609 3.425 3.425 0 0 0-.924-.373 11.04 11.04 0 0 0-1.199-.236 9.021 9.021 0 0 1-.862-.166 2.512 2.512 0 0 1-.564-.204.74.74 0 0 1-.314-.307 1.108 1.108 0 0 1-.094-.489c0-.198.05-.378.148-.536.098-.157.23-.287.392-.392.16-.106.35-.188.563-.245.215-.058.436-.087.666-.087.323 0 .595.037.813.11.221.072.4.172.542.298.14.125.248.271.322.438.073.167.12.35.14.548h1.128c0-.386-.07-.723-.212-1.01a1.975 1.975 0 0 0-.595-.72 2.732 2.732 0 0 0-.901-.439c-.344-.1-.72-.148-1.128-.148-.418 0-.81.046-1.175.14a3 3 0 0 0-.956.422c-.272.19-.486.424-.641.705a2.04 2.04 0 0 0-.236 1.002c0 .377.065.681.195.917s.311.426.54.572c.23.146.503.258.824.337.318.078.665.143 1.042.196.428.063.782.13 1.065.203.282.075.504.16.666.259.164.099.277.215.34.35ZM74.478 71.26v-4.088c0-.375.065-.708.194-1.002a2.206 2.206 0 0 1 1.214-1.19 2.106 2.106 0 0 1 1.426-.065c.209.064.4.173.572.329.172.158.314.363.424.618.11.257.164.58.164.966v4.432h1.16v-4.949c0-.51-.097-.93-.29-1.252a2.435 2.435 0 0 0-.697-.769 2.5 2.5 0 0 0-.86-.384 3.592 3.592 0 0 0-.784-.1c-.532 0-1.02.108-1.464.328-.444.22-.79.566-1.042 1.033h-.016V63.9H73.32v7.362h1.158v-.002Zm20.51-1.017h-4.275l4.276-5.358V63.9h-5.547v1.018h4.136l-4.276 5.358v.986h5.687v-1.019ZM88.808 83.18h-1.144v4.948c0 .523.094.947.282 1.267.188.325.418.58.696.77.277.188.564.316.862.384.298.067.557.1.776.1.533 0 1.023-.11 1.472-.328.449-.218.8-.564 1.049-1.034h.032v1.253h1.144v-7.361h-1.144v4.088c0 .384-.068.725-.204 1.017a2.427 2.427 0 0 1-.517.74c-.21.195-.449.348-.72.452a2.239 2.239 0 0 1-.799.156c-.21 0-.418-.03-.626-.094-.21-.062-.4-.17-.572-.328a1.734 1.734 0 0 1-.423-.62c-.109-.257-.164-.577-.164-.963V83.18Zm-3.181 15.582h-1.159v11.06h1.159v-11.06ZM85.48 83.18h-1.16v7.36h1.159v-7.36h.001Zm-1.184-3.126a.849.849 0 0 0-.258.62c0 .24.087.443.258.611a.863.863 0 0 0 .619.25c.24 0 .443-.084.61-.25a.834.834 0 0 0 .25-.61.858.858 0 0 0-.25-.621.814.814 0 0 0-.61-.259.84.84 0 0 0-.619.259Zm-1.688-10.795c0-.282.06-.516.181-.698.12-.183.293-.33.517-.44.223-.11.5-.186.829-.234.33-.045.701-.082 1.12-.1l1.285-.05v.958c0 .312-.072.585-.212.822-.14.235-.322.424-.54.574-.22.144-.464.253-.729.327-.266.073-.524.11-.776.11-.522 0-.931-.108-1.229-.322-.297-.216-.446-.531-.446-.947Zm-.549 1.572c.22.193.494.348.823.463.33.116.712.171 1.152.171.22 0 .446-.018.682-.053.234-.038.465-.1.69-.19.224-.086.433-.208.626-.36.192-.15.354-.34.478-.57h.03v.97h1.254c-.03-.209-.057-.444-.077-.705a8.55 8.55 0 0 1-.033-.736v-3.65c0-.795-.253-1.405-.759-1.835-.506-.427-1.255-.64-2.247-.64-.868 0-1.567.186-2.1.554-.532.373-.86.97-.986 1.795h1.144c.03-.208.086-.401.166-.572.078-.174.192-.32.344-.439.151-.119.342-.214.572-.282.23-.07.513-.1.846-.1.376 0 .684.04.925.124.24.084.43.199.57.346.14.144.24.32.298.523.057.204.087.421.087.65v.564l-1.692.064a9.733 9.733 0 0 0-1.394.156 3.25 3.25 0 0 0-1.098.408c-.303.19-.54.43-.712.731-.173.295-.259.665-.259 1.105 0 .29.057.566.171.827.113.261.28.489.5.681Zm-5.01 19.71h5.684V89.52h-4.276l4.277-5.358v-.984h-5.547v1.019h4.136l-4.276 5.357v.985h.001Zm4.959 11.919h-1.159v7.362h1.159v-7.362Zm-1.183-3.126a.838.838 0 0 0-.258.62c0 .24.085.443.258.609a.85.85 0 0 0 .619.251c.24 0 .442-.084.61-.251a.826.826 0 0 0 .25-.609.857.857 0 0 0-.25-.62.813.813 0 0 0-.61-.26.84.84 0 0 0-.619.26Zm-4.957 3.126h-1.566v.939h1.566v6.423h1.159v-6.423h2.13v-.939h-2.13v-.437c0-.269.014-.535.046-.803.032-.263.094-.496.188-.699.094-.203.224-.366.392-.49.167-.127.386-.188.659-.188.176 0 .347.008.508.025.162.016.305.048.43.1v-1.093a3.12 3.12 0 0 0-.492-.087 4.762 4.762 0 0 0-.462-.024c-.47 0-.861.092-1.175.283a2.133 2.133 0 0 0-.746.735 3.223 3.223 0 0 0-.39 1.024 5.731 5.731 0 0 0-.117 1.153v.501Zm-5.516-13.924c0-.28.06-.515.18-.695a1.25 1.25 0 0 1 .518-.44c.224-.109.5-.188.83-.236.33-.046.703-.08 1.12-.1l1.284-.048v.957c0 .312-.07.586-.212.823-.139.234-.32.423-.539.572-.22.145-.462.254-.728.327a2.88 2.88 0 0 1-.775.11c-.523 0-.932-.107-1.23-.32-.298-.214-.448-.532-.448-.95Zm-.962-1.041c-.172.297-.26.665-.26 1.104 0 .293.058.57.172.83.115.26.282.488.502.681.22.194.494.348.822.463.329.115.713.173 1.151.173.22 0 .447-.02.682-.054.235-.038.465-.1.69-.188.225-.089.435-.212.627-.36.193-.151.352-.343.478-.573h.03v.97h1.254a9.411 9.411 0 0 1-.078-.703 9.08 9.08 0 0 1-.03-.737v-3.65c0-.794-.253-1.407-.76-1.835-.508-.428-1.258-.64-2.25-.64-.866 0-1.567.184-2.1.557-.532.37-.86.966-.986 1.793h1.143c.03-.208.085-.4.164-.574.08-.17.193-.316.346-.437.15-.119.341-.214.572-.282.228-.069.51-.1.845-.1.376 0 .684.04.924.124a1.4 1.4 0 0 1 .57.346c.143.144.243.32.3.524.056.205.085.42.085.649v.566l-1.691.06a9.558 9.558 0 0 0-1.395.158 3.23 3.23 0 0 0-1.096.407 2.078 2.078 0 0 0-.711.728Zm-.43 11.267H67.8v11.06h1.16v-11.06Zm0-57.838H67.8v11.06h1.16v-11.06ZM66.99 67.58c0 .419-.06.801-.18 1.15-.12.352-.291.65-.508.903-.22.25-.49.446-.808.587-.318.141-.677.21-1.073.21-.397 0-.752-.069-1.066-.21a2.297 2.297 0 0 1-.799-.587 2.658 2.658 0 0 1-.508-.903 3.494 3.494 0 0 1-.18-1.15c0-.408.06-.787.18-1.135.12-.35.29-.65.508-.902.22-.25.486-.446.799-.586.314-.14.669-.212 1.066-.212.395 0 .754.071 1.073.212.319.14.588.336.808.586.218.25.388.551.508.902.12.348.18.729.18 1.135Zm1.019-1.425a3.506 3.506 0 0 0-.682-1.246 3.469 3.469 0 0 0-1.183-.876c-.48-.223-1.055-.337-1.723-.337-.617 0-1.16.114-1.629.338a3.75 3.75 0 0 0-1.19.875c-.325.36-.567.777-.727 1.246a4.325 4.325 0 0 0-.243 1.425c0 .49.073.968.219 1.433.145.465.373.88.682 1.243a3.34 3.34 0 0 0 1.184.88c.48.217 1.048.327 1.708.327.614 0 1.16-.11 1.637-.327a3.51 3.51 0 0 0 1.19-.88c.317-.364.56-.78.728-1.243.166-.465.25-.943.25-1.433a4.927 4.927 0 0 0-.221-1.425Zm-2.38 18.37c.172.157.312.363.424.618.108.258.162.579.162.964v4.433h1.16v-4.95c0-.512-.096-.929-.29-1.252a2.453 2.453 0 0 0-.697-.768 2.486 2.486 0 0 0-.861-.383 3.53 3.53 0 0 0-.783-.102c-.534 0-1.02.109-1.465.33-.443.22-.79.566-1.042 1.033h-.014v-1.267h-1.16v7.36h1.16v-4.088c0-.376.065-.71.194-1.001.132-.293.301-.54.509-.738.21-.197.444-.35.705-.455.262-.104.527-.157.798-.157.21 0 .417.032.628.096.208.06.4.17.572.327Zm-5.158 23.289c0-.28.06-.515.181-.695.12-.184.291-.331.517-.44.225-.108.502-.188.83-.235.328-.045.702-.08 1.12-.101l1.285-.046v.956c0 .311-.07.585-.212.822-.14.236-.32.424-.54.572-.22.145-.463.253-.729.327a2.85 2.85 0 0 1-.774.112c-.524 0-.933-.109-1.23-.321-.3-.216-.448-.532-.448-.951Zm-.963-1.041c-.172.298-.258.667-.258 1.106 0 .293.056.568.172.829.115.261.282.489.5.682.22.194.494.346.823.461.33.117.714.174 1.15.174.22 0 .447-.02.683-.055.234-.037.463-.099.69-.189.223-.087.431-.209.626-.359.192-.151.352-.342.477-.572h.03v.971h1.253c-.03-.208-.057-.445-.078-.705a9.103 9.103 0 0 1-.03-.736v-3.651c0-.794-.254-1.405-.76-1.833-.507-.427-1.256-.64-2.248-.64-.866 0-1.567.183-2.098.555-.534.37-.862.968-.988 1.793h1.143c.032-.206.086-.398.166-.573.078-.17.193-.315.345-.437.151-.121.342-.215.571-.284.23-.066.513-.099.846-.099.376 0 .685.04.925.125.24.083.431.197.572.345.14.145.24.322.3.525.056.202.084.418.084.647v.567l-1.691.062c-.5.021-.966.073-1.393.157-.43.083-.795.218-1.098.407a2.041 2.041 0 0 0-.714.727Zm.963-56.796c0-.282.06-.514.181-.696.12-.182.291-.33.517-.439.225-.11.502-.19.83-.234a12.14 12.14 0 0 1 1.12-.103l1.285-.047v.956c0 .314-.07.587-.212.824-.14.234-.32.424-.54.57-.22.147-.463.258-.729.33-.267.073-.524.11-.774.11-.524 0-.933-.107-1.23-.321-.3-.216-.448-.531-.448-.95Zm-.963-1.04c-.172.296-.258.665-.258 1.104a1.986 1.986 0 0 0 .673 1.511c.22.193.493.345.822.46.33.116.714.173 1.15.173.22 0 .447-.017.683-.055.234-.038.463-.099.69-.189.223-.087.431-.208.626-.359.192-.15.352-.341.477-.572h.03v.972h1.253c-.03-.21-.057-.445-.078-.706a9.082 9.082 0 0 1-.03-.736v-3.65c0-.793-.254-1.405-.76-1.833-.507-.428-1.256-.64-2.248-.64-.866 0-1.567.185-2.098.555-.534.371-.862.969-.988 1.794h1.143c.032-.21.086-.4.166-.572.08-.173.193-.32.345-.439.151-.119.342-.214.571-.282.23-.069.513-.102.846-.102.376 0 .685.041.925.125.24.083.431.198.572.344.14.147.24.322.3.524.056.204.084.422.084.65v.565l-1.691.062c-.5.021-.966.073-1.393.156a3.27 3.27 0 0 0-1.098.408 2.06 2.06 0 0 0-.714.731ZM58.802 63.9h-1.16v7.362h1.16V63.9Zm-1.441-2.507c0 .24.086.444.26.612a.86.86 0 0 0 .618.249c.24 0 .445-.084.612-.25a.84.84 0 0 0 .25-.611.867.867 0 0 0-.25-.621.82.82 0 0 0-.612-.257.842.842 0 0 0-.619.257.847.847 0 0 0-.26.62ZM49.127 63.9l3.024 7.362h1.034l3.07-7.362h-1.237L52.7 69.614h-.031L50.43 63.9h-1.304Zm3.54 24.995-2.238-5.714h-1.3l3.023 7.36h1.035l3.07-7.36h-1.238l-2.317 5.714h-.035Zm3.84-43.883a2.44 2.44 0 0 0-.86-.384 3.254 3.254 0 0 0-2.247.227 2.36 2.36 0 0 0-1.042 1.034h-.016V44.62h-1.16v7.364h1.16v-4.09c0-.376.065-.711.196-1.002.13-.292.299-.538.508-.737.208-.199.444-.35.705-.454a2.129 2.129 0 0 1 1.426-.064c.21.064.4.172.572.329.172.157.313.363.422.618.11.257.165.578.165.964v4.434h1.16v-4.949c0-.514-.098-.93-.29-1.254a2.404 2.404 0 0 0-.698-.767Zm-3.322-12.31 3.07-7.361h-1.237L52.7 31.056h-.031l-2.238-5.715h-1.3l3.023 7.362h1.031Zm-.843 69.757h-1.16v7.362h1.16v-4.088c0-.377.065-.712.196-1.004.13-.292.299-.538.508-.735a2.183 2.183 0 0 1 1.503-.613c.21 0 .417.031.628.094.21.063.4.173.572.327.172.159.313.365.422.621.11.255.165.579.165.964v4.434h1.16v-4.949c0-.513-.098-.93-.29-1.253a2.424 2.424 0 0 0-.698-.768 2.447 2.447 0 0 0-.86-.383 3.265 3.265 0 0 0-2.247.227 2.36 2.36 0 0 0-1.043 1.033h-.016v-1.269Zm-9.32 3.68c0-.408.063-.787.182-1.136.12-.35.29-.652.51-.901.218-.25.486-.447.8-.586a2.563 2.563 0 0 1 1.064-.212c.398 0 .755.071 1.074.212.318.139.587.336.807.586.22.249.388.551.508.901.12.351.18.73.18 1.136 0 .417-.06.8-.18 1.15-.119.351-.288.651-.508.901a2.28 2.28 0 0 1-.807.588 2.62 2.62 0 0 1-1.074.212c-.396 0-.75-.071-1.065-.212a2.291 2.291 0 0 1-.8-.588 2.63 2.63 0 0 1-.51-.901 3.535 3.535 0 0 1-.18-1.15Zm-.993-1.425a4.356 4.356 0 0 0-.242 1.425c0 .49.073.968.22 1.433.145.465.373.879.68 1.244.308.365.702.658 1.183.879.48.218 1.049.327 1.707.327.616 0 1.161-.109 1.637-.327a3.537 3.537 0 0 0 1.19-.879c.32-.365.562-.78.729-1.244.167-.465.25-.943.25-1.433a4.79 4.79 0 0 0-.22-1.425 3.496 3.496 0 0 0-.68-1.247 3.472 3.472 0 0 0-1.183-.876c-.48-.224-1.056-.335-1.724-.335-.616 0-1.16.111-1.63.335-.47.225-.865.517-1.19.876a3.618 3.618 0 0 0-.727 1.247Zm4.52-42.71a.862.862 0 0 0 .618.25.838.838 0 0 0 .612-.25.84.84 0 0 0 .25-.611.868.868 0 0 0-.25-.621.818.818 0 0 0-.612-.257.844.844 0 0 0-.618.257.848.848 0 0 0-.258.62c0 .242.086.444.258.613Zm1.184 1.896h-1.16v7.362h1.16V63.9Zm.298 16.774a.863.863 0 0 0-.25-.621.814.814 0 0 0-.612-.259.84.84 0 0 0-.619.259.844.844 0 0 0-.258.62c0 .24.086.443.258.611a.863.863 0 0 0 .619.25.839.839 0 0 0 .612-.25.838.838 0 0 0 .25-.61Zm-.298 2.505h-1.16v7.36h1.16v-7.36Zm-7.776 19.28h-1.16v7.362h1.16v-7.362Zm-1.183-3.126a.842.842 0 0 0-.257.62c0 .24.085.443.257.609a.85.85 0 0 0 .62.251c.24 0 .443-.084.61-.251a.831.831 0 0 0 .25-.609.862.862 0 0 0-.25-.62.815.815 0 0 0-.61-.26.834.834 0 0 0-.62.26Zm.469-19.852h-1.16V90.54h1.16v-4.088c0-.376.065-.71.194-1.001.132-.293.304-.54.518-.738.213-.197.452-.35.713-.456a2.16 2.16 0 0 1 .8-.156c.209 0 .417.032.626.095.21.061.4.17.572.328.172.157.313.362.423.618.108.258.164.58.164.965v4.433h1.16v-4.95c0-.512-.098-.929-.29-1.252a2.45 2.45 0 0 0-.697-.768 2.474 2.474 0 0 0-.86-.383 3.287 3.287 0 0 0-2.255.228c-.45.22-.8.566-1.05 1.033h-.016v-4.967h-.002Zm0-19.277h-1.16v11.058h1.16v-4.088c0-.375.065-.709.194-1.003.132-.293.304-.536.518-.738.213-.197.452-.35.713-.453a2.112 2.112 0 0 1 1.426-.063c.21.063.4.172.572.328.172.158.313.363.423.619.108.257.164.578.164.965v4.433h1.16v-4.95c0-.51-.098-.929-.29-1.252a2.436 2.436 0 0 0-.697-.768 2.477 2.477 0 0 0-.86-.384 3.304 3.304 0 0 0-2.255.228c-.45.22-.8.565-1.05 1.032h-.016v-4.964h-.002Zm-.47-17.48c.173.167.38.25.62.25s.444-.083.611-.25a.834.834 0 0 0 .25-.61.866.866 0 0 0-.25-.62.819.819 0 0 0-.61-.257.847.847 0 0 0-.62.258.843.843 0 0 0-.257.618.81.81 0 0 0 .257.61Zm1.183 1.896h-1.158v7.364h1.158V44.62Zm-.713-22.977h-1.16v11.06h1.16v-4.089c0-.376.065-.71.194-1.002a2.263 2.263 0 0 1 1.23-1.19 2.16 2.16 0 0 1 1.427-.063c.21.064.4.172.572.33.172.157.313.363.423.618.108.257.164.578.164.965v4.432h1.16v-4.949c0-.512-.098-.93-.29-1.254a2.435 2.435 0 0 0-.697-.768 2.45 2.45 0 0 0-.86-.383 3.68 3.68 0 0 0-.783-.102c-.533 0-1.024.11-1.473.33-.449.22-.8.564-1.049 1.033h-.016v-4.968h-.002Zm-5.316 80.816h-1.458v.939h1.458v4.51c0 .731.164 1.245.494 1.542.328.299.806.448 1.433.448.167 0 .334-.006.5-.016.166-.011.355-.027.565-.047v-1.002c-.241.03-.497.046-.769.046-.429 0-.716-.116-.862-.353a1.585 1.585 0 0 1-.22-.853v-4.277h2.194v-.939h-2.194v-2.13h-1.142v2.132Zm0-59.97v2.13h-1.458v.939h1.458v4.51c0 .732.164 1.247.494 1.545.328.296.806.446 1.433.446.167 0 .334-.005.5-.016.166-.01.355-.028.565-.048v-1c-.241.03-.497.046-.769.046-.429 0-.716-.118-.862-.353a1.594 1.594 0 0 1-.22-.854v-4.276h2.194v-.94h-2.194V42.49h-1.141Zm-3.801 5.968v.956c0 .314-.07.587-.212.824a1.78 1.78 0 0 1-.539.57c-.22.146-.462.257-.73.33-.266.073-.524.11-.773.11-.523 0-.934-.107-1.23-.322-.298-.213-.447-.53-.447-.948 0-.282.06-.514.18-.696.121-.182.292-.33.518-.439.224-.11.501-.19.83-.234.33-.048.703-.082 1.12-.103l1.283-.048Zm0-1.441v.564l-1.691.062a9.39 9.39 0 0 0-1.395.157c-.429.084-.793.22-1.096.407-.303.19-.54.432-.713.73-.173.297-.26.666-.26 1.105 0 .291.058.57.173.829.117.26.282.487.502.682.218.193.492.345.822.46.33.116.713.173 1.152.173.219 0 .445-.017.681-.055.236-.038.465-.099.69-.189.224-.087.433-.208.627-.359a1.82 1.82 0 0 0 .478-.572h.031v.972h1.253a10.435 10.435 0 0 1-.108-1.442v-3.65c0-.793-.253-1.405-.76-1.833-.506-.428-1.256-.64-2.25-.64-.865 0-1.566.185-2.097.555-.534.371-.862.969-.988 1.794h1.143c.03-.21.086-.4.165-.572.079-.173.194-.32.345-.439.15-.119.343-.214.572-.282.229-.069.511-.102.846-.102.376 0 .685.041.923.125.241.083.432.198.572.344.142.147.241.322.298.524.056.206.085.423.085.652Zm1.862 16.954a3.575 3.575 0 0 0-1.198.793 3.665 3.665 0 0 0-.815 1.268c-.199.5-.297 1.072-.297 1.705 0 .525.081 1.01.243 1.458.16.45.401.844.72 1.183.318.34.71.607 1.175.8.465.192.994.289 1.59.289.448 0 .845-.056 1.19-.171.344-.115.642-.264.892-.447.252-.184.46-.388.628-.613.167-.222.297-.445.392-.663l-1.13-.362a2.311 2.311 0 0 1-.658.863c-.292.24-.726.358-1.3.358-.46 0-.845-.078-1.16-.234a2.33 2.33 0 0 1-.774-.61 2.344 2.344 0 0 1-.44-.863 3.767 3.767 0 0 1-.132-.988c0-.416.056-.81.166-1.182.11-.368.271-.69.486-.956.213-.265.474-.476.78-.635a2.34 2.34 0 0 1 1.074-.234c.576 0 1.005.108 1.292.328.289.219.505.495.65.83l1.098-.299a2.388 2.388 0 0 0-1.034-1.385c-.523-.339-1.187-.51-1.99-.51a3.9 3.9 0 0 0-1.448.277Zm-1.347 25.685c.318.34.71.607 1.175.8.465.194.994.29 1.59.29.448 0 .845-.058 1.19-.173a3.25 3.25 0 0 0 .892-.445c.252-.184.46-.387.628-.612.167-.224.297-.446.392-.665l-1.13-.361a2.295 2.295 0 0 1-.658.863c-.292.238-.726.359-1.3.359-.46 0-.845-.08-1.16-.236a2.302 2.302 0 0 1-.774-.612 2.32 2.32 0 0 1-.44-.86 3.75 3.75 0 0 1-.132-.987c0-.417.056-.81.166-1.184.11-.37.271-.69.486-.955.213-.266.474-.477.78-.634a2.375 2.375 0 0 1 1.074-.235c.576 0 1.005.109 1.292.329.289.22.505.496.65.83l1.098-.3a2.396 2.396 0 0 0-1.034-1.384c-.523-.34-1.187-.509-1.99-.509-.51 0-.994.09-1.448.275-.454.18-.853.446-1.198.79a3.683 3.683 0 0 0-.815 1.269c-.199.501-.297 1.072-.297 1.706 0 .525.081 1.011.243 1.459.16.447.401.842.72 1.182Zm-4.447 18.159c0-.28.06-.515.18-.695.12-.184.292-.331.518-.44.224-.108.5-.188.83-.235.329-.045.702-.08 1.12-.101l1.284-.046v.956c0 .311-.07.585-.212.822-.14.236-.32.424-.539.572-.22.145-.462.253-.73.327a2.849 2.849 0 0 1-.773.112c-.523 0-.934-.109-1.23-.321-.298-.216-.448-.532-.448-.951Zm-.963-1.041c-.173.298-.26.667-.26 1.106 0 .293.058.568.173.829.117.261.282.489.502.682.218.194.492.346.822.461.33.117.713.174 1.152.174.219 0 .445-.02.681-.055.236-.037.465-.099.69-.189.224-.087.433-.209.627-.359.193-.151.352-.342.478-.572h.031v.971h1.253a10.283 10.283 0 0 1-.108-1.441v-3.651c0-.794-.253-1.405-.76-1.833-.506-.427-1.256-.64-2.25-.64-.865 0-1.566.183-2.097.555-.534.37-.862.968-.988 1.793h1.143a2.14 2.14 0 0 1 .165-.573c.079-.17.194-.315.345-.437.15-.121.343-.215.572-.284a3.1 3.1 0 0 1 .846-.099c.376 0 .685.04.923.125.241.083.432.197.572.345.142.145.241.322.298.525.057.202.086.418.086.647v.567l-1.69.062a9.28 9.28 0 0 0-1.395.157c-.43.083-.794.218-1.097.407a2.041 2.041 0 0 0-.714.727Zm.844-23.594h-1.128v7.36h1.158v-3.335c0-.44.07-.841.212-1.205.14-.367.331-.682.572-.95a2.65 2.65 0 0 1 .847-.626 2.428 2.428 0 0 1 1.049-.227h.377v-1.113h-.408a2.24 2.24 0 0 0-.9.188c-.288.126-.55.282-.783.47-.237.19-.437.392-.604.612a2.513 2.513 0 0 0-.36.61h-.03V83.18h-.002Zm0-19.28h-1.128v7.363h1.158v-3.336c0-.44.07-.841.212-1.207.142-.365.331-.682.572-.948.24-.267.522-.475.847-.626a2.429 2.429 0 0 1 1.049-.228h.377v-1.113h-.408a2.24 2.24 0 0 0-.9.188 3.56 3.56 0 0 0-1.387 1.08 2.469 2.469 0 0 0-.36.613h-.03V63.9h-.002Zm.477-58.152h-2.089v7.446h2.089V5.747Zm-8.488 96.712h-1.159v7.362h1.16v-4.088c0-.377.064-.712.195-1.004.131-.292.3-.538.509-.735a2.198 2.198 0 0 1 1.504-.613c.21 0 .417.031.628.094.208.063.398.173.572.327.17.159.313.365.422.621.11.255.165.579.165.964v4.434h1.158v-4.949c0-.513-.096-.93-.288-1.253a2.442 2.442 0 0 0-.698-.768 2.443 2.443 0 0 0-.862-.383 3.265 3.265 0 0 0-2.247.227c-.444.219-.791.564-1.042 1.033h-.017v-1.269Zm0-50.477v-4.088c0-.376.065-.711.196-1.002.131-.292.3-.538.509-.737a2.187 2.187 0 0 1 1.504-.612c.21 0 .417.03.628.094.208.064.398.172.572.329.17.157.313.363.422.618.11.257.165.578.165.964v4.434h1.158v-4.949c0-.514-.096-.93-.288-1.254a2.442 2.442 0 0 0-.698-.768 2.436 2.436 0 0 0-.862-.384 3.254 3.254 0 0 0-2.247.227c-.444.22-.791.563-1.042 1.034h-.017v-1.27h-1.159v7.364h1.16Zm-.387 36.553c0-.28.06-.515.18-.695.12-.184.293-.332.517-.44.224-.109.5-.188.83-.236.329-.046.702-.08 1.12-.1l1.285-.048v.957c0 .312-.071.586-.212.823-.14.234-.321.423-.541.572-.22.145-.462.254-.729.327-.266.074-.524.11-.776.11-.521 0-.93-.107-1.229-.32-.296-.215-.445-.532-.445-.95Zm-.964-1.041c-.172.297-.257.665-.257 1.104 0 .293.057.57.172.83.114.26.283.488.501.681.22.194.494.348.824.463.328.115.712.173 1.15.173.22 0 .447-.02.683-.054.234-.038.465-.1.688-.188.226-.089.433-.212.627-.36.193-.151.352-.343.478-.573h.032v.97h1.252a11.02 11.02 0 0 1-.078-.703 9.08 9.08 0 0 1-.03-.737v-3.65c0-.794-.253-1.407-.759-1.835-.507-.428-1.257-.64-2.249-.64-.867 0-1.566.184-2.099.557-.532.37-.862.966-.986 1.793h1.144c.03-.208.085-.4.164-.574.08-.17.195-.316.346-.437.152-.119.341-.214.572-.282.23-.069.512-.1.846-.1.375 0 .685.04.923.124.241.085.432.197.574.346.14.144.24.32.296.524.058.205.086.42.086.649v.566l-1.692.06a9.56 9.56 0 0 0-1.393.158 3.24 3.24 0 0 0-1.097.407 2.043 2.043 0 0 0-.718.728Zm.964-18.236c0-.282.06-.516.18-.698.12-.183.293-.33.517-.44a2.8 2.8 0 0 1 .83-.234c.329-.045.702-.082 1.12-.1l1.285-.05v.958c0 .312-.071.585-.212.822-.14.235-.321.424-.541.574-.22.144-.462.253-.729.327-.266.073-.524.11-.776.11-.521 0-.93-.108-1.229-.322-.296-.216-.445-.531-.445-.947Zm-.964-1.04c-.172.294-.257.664-.257 1.104 0 .29.057.566.172.827.114.261.283.489.501.682.22.194.494.349.824.464.328.115.712.17 1.15.17.22 0 .447-.018.683-.052.234-.039.465-.101.688-.191.226-.086.433-.208.627-.359.193-.15.352-.342.478-.57h.032v.969h1.252c-.03-.208-.056-.444-.078-.705a9.059 9.059 0 0 1-.03-.736v-3.65c0-.795-.253-1.405-.759-1.834-.507-.428-1.257-.641-2.249-.641-.867 0-1.566.187-2.099.555-.532.372-.862.97-.986 1.794h1.144c.03-.208.085-.401.164-.572.08-.173.195-.32.346-.438.152-.12.341-.215.572-.282.23-.07.512-.101.846-.101.375 0 .685.04.923.124.241.084.432.2.574.346.14.144.24.32.296.523.058.204.086.421.086.65v.565l-1.692.063a9.75 9.75 0 0 0-1.393.156c-.428.084-.794.22-1.097.408-.309.187-.546.43-.718.73Zm.964-37.52c0-.282.06-.514.18-.697.12-.183.293-.33.517-.44.224-.108.5-.188.83-.234.329-.048.702-.08 1.12-.102l1.285-.046v.956c0 .312-.071.586-.212.822-.14.236-.321.425-.541.572-.22.147-.462.257-.729.329-.266.073-.524.11-.776.11-.521 0-.93-.108-1.229-.32-.296-.217-.445-.533-.445-.95Zm-.964-1.041c-.172.296-.257.665-.257 1.103 0 .291.057.57.172.83.114.261.283.488.501.682.22.194.494.347.824.461.328.115.712.172 1.15.172.22 0 .447-.018.683-.054.234-.037.465-.1.688-.19.226-.087.433-.207.627-.358.193-.153.352-.343.478-.572h.032v.97h1.252a11.08 11.08 0 0 1-.078-.704 9.073 9.073 0 0 1-.03-.735V27.61c0-.794-.253-1.404-.759-1.833-.507-.428-1.257-.641-2.249-.641-.867 0-1.566.185-2.099.556-.532.37-.862.968-.986 1.793h1.144c.03-.21.085-.4.164-.572.08-.172.195-.318.346-.438.152-.12.341-.215.572-.282.23-.068.512-.102.846-.102.375 0 .685.042.923.126.241.083.432.198.574.344.14.145.24.32.296.524.058.203.086.421.086.65v.565l-1.692.062c-.5.022-.966.073-1.393.157-.428.084-.794.22-1.097.408-.309.187-.546.43-.718.729ZM7.207 1.122c0-.607-.492-1.101-1.1-1.101A5.504 5.504 0 0 0 .602 5.526a5.504 5.504 0 0 0 5.505 5.505 1.1 1.1 0 0 0 0-2.203 3.304 3.304 0 0 1 0-6.606c.609.001 1.1-.491 1.1-1.1Zm4.408 8.808a5.506 5.506 0 0 0-5.507-5.506 1.1 1.1 0 1 0 0 2.201 3.305 3.305 0 0 1 0 6.607 1.1 1.1 0 0 0 0 2.202 5.505 5.505 0 0 0 5.507-5.504Zm9.871-1.711 1.886-.714a3.302 3.302 0 0 0-1.229-1.419c-.555-.362-1.323-.544-2.304-.544-.613 0-1.167.1-1.664.3-.496.2-.921.477-1.274.831a3.63 3.63 0 0 0-.815 1.267 4.352 4.352 0 0 0-.284 1.592c0 .56.078 1.074.237 1.544.158.47.404.873.736 1.212.334.338.754.607 1.259.801.508.194 1.106.292 1.79.292.9 0 1.641-.184 2.226-.554a3.501 3.501 0 0 0 1.307-1.425l-1.87-.712c-.146.327-.348.58-.602.76-.253.18-.584.269-.997.269-.612 0-1.082-.198-1.41-.592-.327-.395-.49-.892-.49-1.491 0-.317.034-.625.104-.925.066-.3.177-.561.331-.79.152-.224.35-.406.593-.543s.546-.204.904-.204c.443 0 .787.108 1.036.324.248.219.425.457.53.72Zm5.144-4.34c.062-.147.095-.302.095-.46 0-.168-.036-.328-.103-.475a1.285 1.285 0 0 0-.656-.635 1.13 1.13 0 0 0-.454-.094 1.17 1.17 0 0 0-.494.104c-.148.069-.277.16-.39.276a1.237 1.237 0 0 0-.343.856 1.142 1.142 0 0 0 .344.816c.111.11.24.202.39.275.148.074.314.111.493.111.16 0 .313-.034.464-.103.148-.069.276-.161.388-.277.113-.113.204-.246.266-.394Zm2.123 21.368c-.314 0-.613.062-.9.188a3.43 3.43 0 0 0-.784.469c-.236.189-.436.392-.603.611a2.53 2.53 0 0 0-.36.61h-.031V25.34h-1.128v7.362h1.158v-3.336c0-.439.07-.841.212-1.207.14-.365.331-.682.572-.948a2.65 2.65 0 0 1 .847-.626 2.448 2.448 0 0 1 1.049-.228h.377v-1.111h-.41Zm4.48-12.054h2.09V8.142c0-.36-.055-.698-.157-1.015a2.302 2.302 0 0 0-.475-.823 2.248 2.248 0 0 0-.813-.555 3.03 3.03 0 0 0-1.16-.206c-.42 0-.832.083-1.23.247-.4.163-.758.471-1.073.925h-.035V5.75h-1.993v7.445h2.09v-4.23c0-.506.139-.919.416-1.242a1.315 1.315 0 0 1 1.031-.483c.17 0 .332.025.49.071.157.048.297.127.416.238.122.112.219.259.292.444.072.186.11.41.11.674v4.527Zm-2.185 16.972a3.78 3.78 0 0 1-.133-.988c0-.417.056-.811.166-1.182.11-.371.271-.69.486-.957.213-.266.474-.476.781-.634a2.34 2.34 0 0 1 1.073-.234c.576 0 1.005.11 1.293.328.288.22.504.497.65.83l1.098-.297a2.387 2.387 0 0 0-1.035-1.387c-.523-.339-1.186-.508-1.989-.508-.511 0-.994.09-1.449.274a3.566 3.566 0 0 0-1.198.79 3.709 3.709 0 0 0-.815 1.269c-.198.5-.296 1.071-.296 1.707 0 .523.08 1.008.242 1.458.16.448.401.842.72 1.183.318.339.71.605 1.175.8.465.192.995.288 1.59.288.448 0 .846-.057 1.19-.172.344-.114.642-.262.893-.446.251-.183.46-.387.627-.61.167-.224.297-.447.392-.665l-1.13-.36a2.287 2.287 0 0 1-.657.86c-.293.24-.726.36-1.301.36-.46 0-.845-.078-1.159-.234a2.301 2.301 0 0 1-.774-.612 2.328 2.328 0 0 1-.44-.86ZM41.216 4.418l2.012-2.012h-2.092L39.87 4.418h1.346Zm-2.504 4.261c.022-.17.069-.352.141-.547.073-.194.187-.374.331-.539.149-.162.345-.3.588-.411.242-.11.542-.166.902-.166.318 0 .579.053.783.159a1.419 1.419 0 0 1 .754.927c.051.195.078.387.078.579h-3.577v-.002Zm0 1.33h5.702v-.587c0-1.214-.319-2.165-.957-2.85-.643-.687-1.59-1.03-2.845-1.03-.602 0-1.152.093-1.649.276-.496.185-.92.45-1.274.793a3.492 3.492 0 0 0-.818 1.242 4.488 4.488 0 0 0-.28 1.632c0 .592.09 1.128.274 1.607.183.48.45.889.8 1.228.349.338.773.599 1.276.783.5.185 1.074.277 1.719.277.93 0 1.686-.16 2.274-.481.584-.323 1.026-.828 1.321-1.514l-1.915-.46c-.275.57-.802.856-1.584.856a2.47 2.47 0 0 1-.896-.151 1.895 1.895 0 0 1-.641-.396 1.567 1.567 0 0 1-.379-.57 1.765 1.765 0 0 1-.128-.655Zm7.938 35.668c.318.14.586.337.806.587.22.25.388.55.509.9.12.35.18.729.18 1.135 0 .419-.06.803-.18 1.152-.12.351-.289.65-.509.9a2.31 2.31 0 0 1-.806.589 2.63 2.63 0 0 1-1.074.212 2.58 2.58 0 0 1-1.065-.212 2.285 2.285 0 0 1-.8-.588c-.22-.25-.39-.55-.51-.9a3.55 3.55 0 0 1-.181-1.153c0-.406.062-.785.181-1.135.12-.35.29-.65.51-.9.218-.25.486-.447.8-.587.312-.14.667-.212 1.065-.212.398 0 .756.072 1.074.212Zm.65-.924c-.48-.225-1.056-.337-1.724-.337-.616 0-1.16.112-1.63.337-.47.225-.865.516-1.19.878a3.594 3.594 0 0 0-.728 1.245 4.35 4.35 0 0 0-.243 1.425c0 .492.073.969.22 1.434.146.465.374.88.68 1.243.308.368.703.658 1.184.878.48.22 1.048.329 1.707.329.615 0 1.161-.109 1.636-.329.475-.22.873-.51 1.191-.878.32-.364.562-.778.728-1.243.167-.465.25-.942.25-1.434 0-.48-.073-.955-.22-1.425a3.477 3.477 0 0 0-.68-1.245 3.429 3.429 0 0 0-1.181-.878Zm-.751-21.309c.172.167.379.25.618.25a.834.834 0 0 0 .612-.25.834.834 0 0 0 .25-.61.865.865 0 0 0-.25-.62.82.82 0 0 0-.612-.258.845.845 0 0 0-.618.258.845.845 0 0 0-.258.62c0 .24.086.445.258.61Zm1.184 1.897h-1.16v7.362h1.16V25.34Zm7.444-12.148h2.092V7.84c0-.39-.075-.729-.22-1.013a2.214 2.214 0 0 0-.582-.714 2.476 2.476 0 0 0-.81-.428c-.301-.094-.61-.142-.929-.142-.159 0-.34.014-.539.039a2.819 2.819 0 0 0-.628.167c-.22.084-.435.204-.653.356a2.637 2.637 0 0 0-.594.595 2.025 2.025 0 0 0-.489-.61 2.217 2.217 0 0 0-.587-.348 2.545 2.545 0 0 0-.576-.16 3.528 3.528 0 0 0-.465-.039c-.431 0-.85.087-1.255.261-.405.175-.77.478-1.098.911h-.03V5.75H45.82v7.445h2.09V8.681c0-.182.031-.356.093-.53.061-.175.151-.328.268-.46.114-.133.257-.24.425-.325.168-.085.356-.127.566-.127.44 0 .757.13.952.388.193.258.291.582.291.973v4.594h2.091V8.57c0-.147.035-.301.105-.461.067-.158.165-.301.291-.427.127-.127.28-.232.462-.316a1.39 1.39 0 0 1 .603-.127c.4 0 .686.12.86.365.175.242.26.505.26.792v4.797h-.001Zm3.58 13.667c.196-.221.446-.398.756-.533.308-.136.683-.204 1.124-.204.356 0 .673.057.951.173.277.114.507.274.69.476.184.204.326.441.425.714.1.272.15.559.15.861h-4.73c.031-.25.097-.507.197-.768.099-.261.245-.5.438-.72Zm.328-1.427c-.466.198-.86.476-1.19.83a3.689 3.689 0 0 0-.76 1.27 4.712 4.712 0 0 0-.267 1.612c0 .47.07.93.21 1.38.142.45.36.848.659 1.199.298.35.68.634 1.144.854.464.22 1.021.329 1.667.329.815 0 1.51-.162 2.084-.486a3.201 3.201 0 0 0 1.316-1.395l-1.018-.408a2.253 2.253 0 0 1-.3.447 2.03 2.03 0 0 1-.47.407c-.19.12-.41.22-.66.298a2.907 2.907 0 0 1-.864.118c-.399 0-.752-.063-1.061-.19a2.196 2.196 0 0 1-.785-.532 2.446 2.446 0 0 1-.504-.822 2.996 2.996 0 0 1-.18-1.058h5.937V28.8c0-.626-.083-1.17-.25-1.629a3.068 3.068 0 0 0-.704-1.144 2.837 2.837 0 0 0-1.081-.673 4.08 4.08 0 0 0-1.364-.218c-.575 0-1.094.1-1.559.296Zm4.418-15.091c0 .284-.046.524-.135.72-.09.196-.21.357-.364.482-.151.127-.325.221-.515.277-.19.06-.386.087-.586.087-.347 0-.633-.066-.855-.198-.221-.132-.333-.378-.333-.737 0-.221.064-.401.192-.539.126-.138.294-.243.508-.316.21-.075.443-.125.704-.151.257-.027.525-.04.8-.04h.585v.415h-.001Zm.224 2.85h1.884a4.268 4.268 0 0 1-.08-.529 6.44 6.44 0 0 1-.03-.626V8.395c0-.423-.049-.81-.143-1.166a2.03 2.03 0 0 0-.508-.902c-.241-.247-.567-.44-.974-.578-.405-.137-.915-.206-1.528-.206-.601 0-1.12.065-1.552.198-.434.132-.792.311-1.077.537a2.198 2.198 0 0 0-.634.786 2.39 2.39 0 0 0-.222.933h1.997c.02-.274.139-.5.356-.68.216-.178.548-.27.99-.27.465 0 .796.121.996.357.202.237.301.579.301 1.022v.301h-.808c-.612 0-1.17.035-1.67.103-.502.07-.93.191-1.283.365-.355.173-.63.411-.825.712-.195.302-.293.69-.293 1.164 0 .433.081.797.239 1.094.16.297.361.532.61.714.249.179.523.307.83.387.306.079.61.117.905.117.592 0 1.077-.098 1.457-.29.38-.196.675-.49.887-.88h.032l.143.98Zm6.05-5.812h1.74V5.747h-1.74V3.61h-2.09v2.137H66.56V7.38h1.126v3.806c0 .41.055.751.166 1.02.11.269.268.482.468.64.2.157.44.269.72.33.28.063.588.095.927.095.17 0 .379-.007.626-.023.248-.015.456-.034.627-.055V11.56a4.376 4.376 0 0 1-.617.048c-.276 0-.481-.045-.62-.135-.136-.089-.204-.261-.204-.513v-3.58h-.003Zm1.59 24.107c.11-.271.165-.547.165-.828 0-.385-.072-.703-.22-.952a1.722 1.722 0 0 0-.603-.608 3.53 3.53 0 0 0-.925-.376c-.36-.091-.76-.17-1.198-.233a9.366 9.366 0 0 1-.861-.165 2.414 2.414 0 0 1-.564-.206.71.71 0 0 1-.314-.306 1.13 1.13 0 0 1-.093-.49c0-.198.05-.377.148-.535.1-.157.23-.29.391-.393.163-.106.351-.187.564-.245a2.58 2.58 0 0 1 .665-.086c.325 0 .596.037.815.11.22.074.398.172.54.298.14.125.248.271.32.44.075.166.121.349.14.548h1.128c0-.387-.07-.723-.21-1.01a1.987 1.987 0 0 0-.597-.721 2.707 2.707 0 0 0-.9-.44 4.06 4.06 0 0 0-1.129-.148c-.415 0-.809.046-1.174.139a2.955 2.955 0 0 0-.955.424 2.087 2.087 0 0 0-.644.704c-.156.282-.234.616-.234 1.003 0 .376.065.682.195.916.13.234.31.425.54.572.229.147.503.258.822.337.318.08.665.143 1.041.196.43.062.784.13 1.066.202.282.073.504.16.666.26.162.1.275.217.337.352.062.135.093.297.093.485 0 .429-.19.739-.571.932-.382.193-.86.29-1.435.29-.364 0-.667-.033-.908-.102a1.726 1.726 0 0 1-.587-.274.948.948 0 0 1-.322-.408 1.604 1.604 0 0 1-.11-.5h-1.158c.03.333.102.635.21.908.11.271.282.507.518.704.235.2.544.353.932.464.387.11.872.164 1.457.164.575 0 1.061-.065 1.457-.194.399-.13.718-.298.964-.508.25-.212.43-.45.538-.72Zm1.37 14.652c.193-.22.444-.396.753-.532.308-.135.683-.203 1.123-.203.356 0 .675.057.952.172.277.116.507.275.69.478.184.203.324.441.425.713.1.271.15.557.15.86H72.1c.031-.248.096-.505.195-.766.1-.262.246-.502.441-.722Zm.326-1.425a3.397 3.397 0 0 0-1.19.83c-.33.356-.583.778-.76 1.27a4.715 4.715 0 0 0-.265 1.612c0 .47.07.93.212 1.38.14.45.36.85.658 1.198.298.35.678.634 1.143.854.465.22 1.02.328 1.668.328.816 0 1.509-.163 2.085-.485a3.223 3.223 0 0 0 1.316-1.394l-1.018-.408a2.415 2.415 0 0 1-.3.446 2.038 2.038 0 0 1-.471.408c-.188.12-.41.221-.66.298a2.921 2.921 0 0 1-.864.117c-.398 0-.751-.063-1.061-.19a2.188 2.188 0 0 1-.785-.53 2.459 2.459 0 0 1-.504-.823 2.97 2.97 0 0 1-.178-1.057h5.934v-.486c0-.626-.084-1.168-.25-1.627a3.045 3.045 0 0 0-.705-1.143 2.828 2.828 0 0 0-1.08-.674 4.112 4.112 0 0 0-1.363-.219 3.883 3.883 0 0 0-1.562.295Zm4.593-31.521h2.09V8.142c0-.36-.056-.698-.166-1.015a2.273 2.273 0 0 0-.496-.823 2.403 2.403 0 0 0-.839-.555 3.075 3.075 0 0 0-1.164-.206c-.402 0-.786.083-1.154.247-.369.163-.701.471-.995.925H74.9V2.011h-2.09v11.183h2.09v-4.23c0-.506.129-.919.387-1.242a1.236 1.236 0 0 1 1.016-.483c.156 0 .317.025.479.071.166.048.31.127.442.238.134.112.236.259.314.444.08.186.12.41.12.674v4.527h-.002Zm4.029 12.156a3.691 3.691 0 0 0-.784-.102c-.531 0-1.02.11-1.464.33-.443.22-.79.564-1.042 1.032h-.016v-1.268H77.22v7.362h1.16v-4.089c0-.376.064-.71.194-1.002.13-.291.3-.538.51-.735.209-.199.442-.351.704-.454a2.155 2.155 0 0 1 1.427-.064c.207.064.4.172.57.33.172.157.314.363.424.618.11.257.164.578.164.965v4.432h1.16v-4.949c0-.512-.098-.93-.291-1.254a2.435 2.435 0 0 0-.697-.768 2.415 2.415 0 0 0-.86-.384ZM84.59 4.418h1.35l-1.253-2.012h-2.09l1.993 2.012Zm-1.503 4.261c.022-.17.068-.352.143-.547a1.68 1.68 0 0 1 .333-.539c.147-.162.343-.3.585-.411.241-.11.544-.166.903-.166.318 0 .576.053.784.159.207.105.367.237.49.396.12.159.208.335.263.531.051.195.08.387.08.579h-3.58v-.002Zm0 1.33h5.702v-.587c0-1.214-.318-2.165-.958-2.85-.638-.687-1.586-1.03-2.843-1.03-.604 0-1.154.093-1.648.276-.496.185-.92.45-1.275.793a3.449 3.449 0 0 0-.814 1.242c-.194.486-.286 1.029-.286 1.632 0 .592.09 1.128.276 1.607.186.48.45.889.8 1.228a3.56 3.56 0 0 0 1.273.783c.503.185 1.075.277 1.722.277.928 0 1.684-.16 2.27-.481.586-.323 1.027-.828 1.325-1.514l-1.918-.46c-.274.57-.802.856-1.582.856-.34 0-.637-.05-.895-.151a1.883 1.883 0 0 1-.641-.396 1.737 1.737 0 0 1-.507-1.225Zm12.623-.555c0 .276-.04.543-.121.808a2.023 2.023 0 0 1-.356.695 1.765 1.765 0 0 1-.601.485c-.244.12-.529.181-.856.181-.297 0-.558-.06-.783-.181a1.645 1.645 0 0 1-.565-.491 2.376 2.376 0 0 1-.338-.708 2.735 2.735 0 0 1-.12-.822c0-.295.038-.576.12-.84a2.06 2.06 0 0 1 .356-.697c.155-.2.354-.36.584-.475a1.8 1.8 0 0 1 .808-.174c.297 0 .56.058.794.174.231.116.427.273.584.468.159.196.28.428.365.696.086.272.129.563.129.881Zm-.08 6.906h2.09V5.747h-1.996v1.03h-.03c-.306-.442-.665-.76-1.077-.951a3.181 3.181 0 0 0-1.344-.284c-.52 0-.992.107-1.42.325-.429.217-.796.507-1.102.871a4.022 4.022 0 0 0-.712 1.258 4.434 4.434 0 0 0-.253 1.49c0 .516.08 1.013.238 1.49.16.475.386.891.68 1.25a3.231 3.231 0 0 0 2.54 1.175c.487 0 .915-.088 1.287-.263.37-.174.728-.493 1.078-.958h.02v4.18h.001Zm2.33 26.364a.829.829 0 0 0 .251-.61.86.86 0 0 0-.25-.62.816.816 0 0 0-.61-.257.841.841 0 0 0-.618.258.84.84 0 0 0-.26.618c0 .241.087.444.26.61.172.168.378.251.617.251a.824.824 0 0 0 .61-.25Zm1.877 40.36c-.53 0-1.02.108-1.463.33-.445.22-.79.565-1.042 1.033h-.016v-1.268h-1.159v7.36h1.159v-4.087c0-.376.066-.71.196-1.001a2.227 2.227 0 0 1 1.214-1.193 2.15 2.15 0 0 1 .8-.157c.208 0 .417.032.627.095.209.061.398.17.572.328.172.157.312.362.422.618.11.258.164.58.164.965v4.433h1.159v-4.95c0-.512-.095-.929-.29-1.252a2.432 2.432 0 0 0-.698-.768 2.472 2.472 0 0 0-.859-.383 3.583 3.583 0 0 0-.785-.103Zm-.13-61.127a.845.845 0 0 0-.62.258.847.847 0 0 0-.259.62c0 .24.088.444.26.61.17.168.379.25.618.25.24 0 .444-.082.612-.25a.83.83 0 0 0 .251-.61.86.86 0 0 0-.251-.62.823.823 0 0 0-.612-.258Zm4.723-8.764h2.013V5.747h-2.092v4.229c0 .508-.137.926-.409 1.253-.275.327-.624.49-1.053.49-.159 0-.315-.024-.468-.073a1.077 1.077 0 0 1-.416-.245 1.227 1.227 0 0 1-.299-.444 1.854 1.854 0 0 1-.11-.68v-4.53h-2.092V10.8c0 .359.049.694.15 1.006a2.19 2.19 0 0 0 1.275 1.385c.328.138.719.207 1.173.207.421 0 .833-.085 1.237-.253.4-.17.752-.482 1.058-.935h.032v.983h.001Zm4.029 15.828c0 .417-.061.801-.18 1.152-.121.351-.29.65-.51.9-.219.251-.488.447-.805.589-.32.14-.677.21-1.073.21-.397 0-.752-.07-1.065-.21a2.306 2.306 0 0 1-.8-.588 2.667 2.667 0 0 1-.51-.9 3.535 3.535 0 0 1-.178-1.153c0-.407.058-.785.178-1.135s.29-.651.51-.902c.22-.249.486-.446.8-.586a2.555 2.555 0 0 1 1.065-.212c.396 0 .753.07 1.073.212.319.14.586.337.805.586.22.25.389.551.51.902.119.35.18.729.18 1.135Zm.336-2.67a3.425 3.425 0 0 0-1.182-.877c-.481-.225-1.056-.336-1.723-.336-.618 0-1.159.111-1.629.336a3.728 3.728 0 0 0-1.191.877 3.609 3.609 0 0 0-.73 1.245 4.368 4.368 0 0 0-.242 1.425c0 .491.073.97.22 1.434.147.465.373.88.681 1.245.308.366.703.658 1.184.878.48.22 1.048.329 1.708.329.616 0 1.161-.11 1.637-.329a3.5 3.5 0 0 0 1.189-.878c.319-.365.563-.781.728-1.245.167-.464.251-.941.251-1.434 0-.48-.073-.955-.22-1.425a3.454 3.454 0 0 0-.681-1.245Zm1.208-17.672c.021-.17.068-.352.143-.547.073-.194.184-.374.332-.539.145-.162.345-.3.584-.411.244-.11.545-.166.905-.166.315 0 .577.053.784.159a1.417 1.417 0 0 1 .752.927c.054.195.081.387.081.579h-3.581v-.002Zm0 1.33h5.701v-.587c0-1.214-.319-2.165-.957-2.85-.64-.687-1.587-1.03-2.844-1.03-.602 0-1.15.093-1.644.276-.5.185-.922.45-1.277.793a3.495 3.495 0 0 0-.816 1.242c-.191.486-.283 1.029-.283 1.632 0 .592.092 1.128.275 1.607.186.48.452.889.8 1.228.35.338.773.599 1.275.783.501.185 1.074.277 1.719.277.93 0 1.685-.16 2.272-.481.585-.323 1.027-.828 1.321-1.514l-1.915-.46c-.274.57-.801.856-1.582.856a2.47 2.47 0 0 1-.898-.151c-.256-.1-.47-.233-.64-.396a1.585 1.585 0 0 1-.38-.57 1.759 1.759 0 0 1-.127-.655Zm6.647 22.694h1.159v-4.95c0-.512-.096-.929-.29-1.253a2.426 2.426 0 0 0-.696-.769 2.47 2.47 0 0 0-.862-.382 3.696 3.696 0 0 0-.783-.102 3.25 3.25 0 0 0-1.464.33c-.444.22-.791.564-1.041 1.032h-.016v-1.268h-1.16v7.362h1.16v-4.089c0-.376.065-.71.195-1.002.131-.291.3-.538.509-.735a2.184 2.184 0 0 1 2.131-.518c.21.064.399.172.572.33.173.157.314.363.423.618.11.257.164.578.164.965v4.43h-.001Zm8.066-3.524v.956c0 .312-.07.586-.21.822a1.771 1.771 0 0 1-.542.572c-.22.147-.462.257-.727.329-.266.073-.526.11-.776.11-.523 0-.932-.108-1.23-.32-.298-.215-.445-.53-.445-.949 0-.282.059-.514.178-.697.12-.182.293-.33.518-.44.224-.108.501-.187.829-.234a12.7 12.7 0 0 1 1.121-.102l1.284-.047Zm-3.962-3.486c-.533.37-.861.968-.987 1.793h1.144c.03-.21.085-.4.165-.572.078-.172.193-.318.343-.438.152-.12.343-.215.572-.282a3.03 3.03 0 0 1 .846-.102c.376 0 .683.042.924.126.24.083.431.198.571.344a1.2 1.2 0 0 1 .298.524c.057.203.086.421.086.65v.565l-1.691.062a9.375 9.375 0 0 0-1.394.157c-.43.085-.794.22-1.098.408-.304.188-.541.43-.713.729-.172.296-.258.665-.258 1.103 0 .291.058.57.172.83.114.261.281.488.501.682.22.194.494.347.822.461.329.115.713.172 1.152.172.219 0 .447-.018.681-.054.234-.037.465-.1.689-.19.225-.087.434-.207.626-.358.195-.153.354-.343.478-.572h.032v.97h1.253a10.6 10.6 0 0 1-.11-1.44v-3.65c0-.794-.252-1.404-.758-1.833-.507-.428-1.255-.641-2.248-.641-.867 0-1.566.185-2.098.556Zm1.858-17.98c0-.223.112-.388.34-.498.227-.113.477-.167.754-.167.401 0 .719.08.956.237.238.159.368.39.389.697l1.963-.08c-.064-.813-.387-1.409-.972-1.79-.587-.38-1.36-.57-2.32-.57-.55 0-1.02.07-1.411.213a2.743 2.743 0 0 0-.949.554 2.154 2.154 0 0 0-.541.768c-.115.285-.172.57-.172.856 0 .507.109.903.325 1.186.217.286.487.507.817.665.327.159.68.27 1.059.334.379.062.734.125 1.061.189.328.065.6.151.816.262a.57.57 0 0 1 .326.547c0 .16-.04.288-.121.388a.792.792 0 0 1-.302.237 1.4 1.4 0 0 1-.401.12c-.148.022-.287.031-.413.031-.317 0-.607-.062-.872-.192-.265-.126-.406-.373-.427-.744l-2.028.064c.044.442.155.815.332 1.116.181.302.412.547.692.738.278.189.606.324.988.402.381.08.792.12 1.237.12.695 0 1.266-.084 1.709-.252.443-.17.791-.382 1.045-.635.254-.253.431-.524.533-.814.099-.291.148-.556.148-.8 0-.495-.113-.883-.338-1.164a2.247 2.247 0 0 0-.849-.641 4.51 4.51 0 0 0-1.092-.317c-.39-.064-.756-.128-1.094-.198a3.103 3.103 0 0 1-.846-.284.613.613 0 0 1-.342-.578Zm6.061 36.812a2.21 2.21 0 0 0-.9.188 3.484 3.484 0 0 0-1.387 1.08 2.56 2.56 0 0 0-.36.613h-.032v-1.787h-1.127v7.363h1.159v-3.337c0-.44.07-.84.211-1.207a2.98 2.98 0 0 1 .573-.948c.24-.265.522-.475.846-.626a2.421 2.421 0 0 1 1.046-.227h.377v-1.112h-.406Zm.6-22.882h-1.159v11.06h1.159v-11.06Zm4.111-8.45h2.012V5.747h-2.09v4.229c0 .508-.138.926-.411 1.253-.275.327-.625.49-1.054.49-.159 0-.314-.024-.463-.073a1.106 1.106 0 0 1-.422-.245 1.21 1.21 0 0 1-.296-.444 1.794 1.794 0 0 1-.11-.68v-4.53h-2.091V10.8c0 .359.05.694.149 1.006a2.186 2.186 0 0 0 1.274 1.385c.329.138.72.207 1.174.207.421 0 .831-.085 1.234-.253.404-.17.756-.482 1.063-.935h.031v.983Zm3.76 15.155h-4.729c.027-.25.094-.507.194-.768.1-.26.247-.5.441-.72.194-.221.444-.398.754-.533.308-.136.684-.204 1.124-.204.355 0 .673.057.951.173.278.114.509.274.69.476.184.204.324.441.425.714.099.272.15.559.15.862Zm.233-2.319a2.818 2.818 0 0 0-1.08-.672 4.06 4.06 0 0 0-1.361-.219c-.576 0-1.095.1-1.56.297a3.415 3.415 0 0 0-1.189.83c-.33.355-.583.777-.76 1.269a4.675 4.675 0 0 0-.265 1.613c0 .47.07.93.212 1.38.137.449.358.847.655 1.198.298.35.68.635 1.143.855.464.22 1.021.328 1.67.328.813 0 1.508-.162 2.083-.486a3.195 3.195 0 0 0 1.315-1.395l-1.018-.408a2.4 2.4 0 0 1-.299.447 2.018 2.018 0 0 1-.472.408c-.189.119-.408.22-.659.298a2.918 2.918 0 0 1-.864.118c-.4 0-.752-.064-1.062-.19a2.177 2.177 0 0 1-.785-.532 2.447 2.447 0 0 1-.504-.823 2.957 2.957 0 0 1-.181-1.058h5.937v-.485c0-.626-.085-1.169-.252-1.628-.165-.461-.4-.843-.704-1.145Zm2.095-22.15a1.13 1.13 0 0 0-.008-.935 1.284 1.284 0 0 0-.652-.634 1.183 1.183 0 0 0-1.337.286 1.223 1.223 0 0 0-.343.856c0 .147.028.292.087.435.057.141.142.27.256.38.108.11.239.202.386.275.15.074.318.111.496.111.16 0 .314-.034.463-.103a1.25 1.25 0 0 0 .652-.671Zm2.279 21.398a2.983 2.983 0 0 0-.959.424 2.06 2.06 0 0 0-.639.704c-.157.283-.236.616-.236 1.003 0 .376.066.682.193.916.131.235.313.426.542.573.229.147.503.258.824.336.317.08.664.143 1.04.196a10.8 10.8 0 0 1 1.065.203c.282.072.503.16.666.26.161.099.275.216.337.351.065.136.094.297.094.485 0 .43-.192.74-.572.932-.382.194-.86.29-1.433.29-.366 0-.669-.033-.91-.101a1.737 1.737 0 0 1-.587-.275.968.968 0 0 1-.322-.408 1.564 1.564 0 0 1-.108-.5h-1.159c.029.334.101.636.211.908.11.272.282.508.516.705.235.198.546.352.934.463.386.11.87.165 1.457.165.574 0 1.06-.065 1.458-.195.394-.13.717-.298.962-.507a1.84 1.84 0 0 0 .534-.718 2.2 2.2 0 0 0 .162-.828c0-.385-.073-.703-.219-.952a1.725 1.725 0 0 0-.602-.608 3.48 3.48 0 0 0-.923-.376c-.361-.091-.762-.17-1.199-.233a9.273 9.273 0 0 1-.861-.165 2.42 2.42 0 0 1-.564-.206.715.715 0 0 1-.313-.306 1.099 1.099 0 0 1-.095-.49c0-.198.05-.377.151-.535a1.22 1.22 0 0 1 .391-.393 1.95 1.95 0 0 1 .563-.245c.214-.057.437-.086.666-.086.324 0 .594.037.816.11.218.074.398.172.541.298.139.125.245.271.318.44.073.166.122.349.142.548h1.128c0-.387-.071-.723-.212-1.01a1.984 1.984 0 0 0-.594-.721 2.726 2.726 0 0 0-.9-.44 4.068 4.068 0 0 0-1.129-.148 4.514 4.514 0 0 0-1.175.136Zm1.3-17.564c0-.223.112-.388.34-.498.227-.113.476-.167.752-.167.402 0 .721.08.961.237.236.159.366.39.387.697l1.963-.08c-.063-.813-.387-1.409-.975-1.79-.583-.38-1.36-.57-2.316-.57-.553 0-1.023.07-1.412.213a2.8 2.8 0 0 0-.951.554 2.115 2.115 0 0 0-.536.768 2.22 2.22 0 0 0-.176.856c0 .507.108.903.325 1.186.214.286.488.507.816.665.325.159.681.27 1.061.334.379.062.734.125 1.061.189.327.065.597.151.814.262a.572.572 0 0 1 .326.547c0 .16-.04.288-.118.388a.825.825 0 0 1-.305.237c-.12.059-.253.098-.402.12-.147.022-.282.031-.411.031-.316 0-.608-.062-.872-.192-.263-.126-.406-.373-.427-.744l-2.026.064c.041.442.152.815.334 1.116.18.302.409.547.688.738.28.189.609.324.991.402.377.08.792.12 1.236.12.696 0 1.266-.084 1.711-.252.443-.17.791-.382 1.044-.635.255-.253.43-.524.529-.814.098-.291.151-.556.151-.8 0-.495-.113-.883-.339-1.164a2.25 2.25 0 0 0-.85-.641 4.5 4.5 0 0 0-1.094-.317c-.39-.064-.753-.128-1.092-.198a3.106 3.106 0 0 1-.848-.284.611.611 0 0 1-.34-.578Zm4.646 35.01a.83.83 0 0 0 .251-.61.86.86 0 0 0-.251-.618.812.812 0 0 0-.612-.258.846.846 0 0 0-.618.258.844.844 0 0 0-.257.618c0 .241.085.444.257.61a.86.86 0 0 0 .618.251.824.824 0 0 0 .612-.25Zm-.046 1.897h-1.16v7.364h1.16V44.62Zm-.683 22.866c0 .491-.077.92-.228 1.287a2.849 2.849 0 0 1-.59.914 2.438 2.438 0 0 1-1.721.744c-.335 0-.648-.06-.939-.178-.293-.12-.546-.301-.76-.542a2.564 2.564 0 0 1-.501-.9c-.122-.36-.183-.787-.183-1.279 0-.385.053-.748.157-1.087a2.67 2.67 0 0 1 .464-.892c.203-.257.455-.461.751-.612.297-.151.64-.228 1.025-.228.387 0 .737.074 1.049.218.314.149.58.346.8.596.22.25.387.543.502.878.117.335.174.697.174 1.081Zm0 3.774h1.128V60.202h-1.128v4.838h-.032a2.807 2.807 0 0 0-.36-.493 2.36 2.36 0 0 0-.533-.431 2.986 2.986 0 0 0-.72-.304 3.277 3.277 0 0 0-.91-.117c-.501 0-.971.092-1.408.282-.438.189-.821.455-1.144.8-.322.345-.58.754-.766 1.23-.19.473-.283 1-.283 1.573 0 .68.102 1.262.305 1.746.204.487.468.887.792 1.205.323.32.687.555 1.088.706.403.152.805.226 1.213.226.376 0 .713-.049 1.011-.147.299-.1.56-.227.785-.377.223-.15.415-.312.571-.484.157-.172.277-.332.36-.478h.032v1.283h-.001Zm2.179 32.154c.277.114.509.274.69.478.186.202.325.439.425.711.1.271.147.56.147.862h-4.727c.029-.249.095-.507.194-.768.101-.26.247-.501.44-.721.193-.219.446-.397.755-.533.308-.135.683-.203 1.123-.203.359 0 .675.06.953.174Zm.419-.939a4.076 4.076 0 0 0-1.363-.219c-.575 0-1.092.097-1.56.296a3.469 3.469 0 0 0-1.189.83 3.707 3.707 0 0 0-.76 1.27 4.748 4.748 0 0 0-.264 1.614c0 .469.07.93.211 1.378.139.448.359.848.658 1.198a3.38 3.38 0 0 0 1.141.856c.468.218 1.023.327 1.669.327.815 0 1.511-.162 2.083-.485a3.205 3.205 0 0 0 1.317-1.396l-1.02-.405a2.312 2.312 0 0 1-.299.445 2.077 2.077 0 0 1-.471.408c-.189.12-.409.218-.659.298a2.931 2.931 0 0 1-.865.119c-.398 0-.751-.064-1.061-.191a2.178 2.178 0 0 1-.785-.531 2.521 2.521 0 0 1-.505-.822 3.012 3.012 0 0 1-.18-1.058h5.936v-.484c0-.629-.083-1.17-.249-1.631a3.084 3.084 0 0 0-.705-1.142 2.763 2.763 0 0 0-1.08-.675Zm1.156-94.762c0-.223.113-.388.338-.498.225-.113.474-.167.747-.167.4 0 .716.08.952.237.236.159.363.39.388.697l1.949-.08c-.065-.813-.386-1.409-.967-1.79-.582-.38-1.352-.57-2.305-.57-.544 0-1.012.07-1.4.213a2.746 2.746 0 0 0-.942.554 2.112 2.112 0 0 0-.535.768c-.116.285-.173.57-.173.856 0 .507.106.903.322 1.186.213.286.483.507.81.665.325.159.676.27 1.052.334.378.062.729.125 1.053.189.329.065.597.151.811.262a.573.573 0 0 1 .325.547.615.615 0 0 1-.121.388.833.833 0 0 1-.3.237c-.12.059-.253.098-.402.12a2.83 2.83 0 0 1-.409.031c-.312 0-.604-.062-.865-.192-.262-.126-.401-.373-.422-.744l-2.013.064c.038.442.15.815.33 1.116.177.302.405.547.682.738.279.189.609.324.982.402.38.08.788.12 1.231.12.69 0 1.256-.084 1.697-.252.439-.17.787-.382 1.037-.635.252-.253.426-.524.526-.814.1-.291.151-.556.151-.8 0-.495-.115-.883-.339-1.164a2.234 2.234 0 0 0-.843-.641 4.468 4.468 0 0 0-1.085-.317 28.14 28.14 0 0 1-1.085-.198 3.084 3.084 0 0 1-.842-.284.617.617 0 0 1-.335-.578Zm5.469 19.257c.22.25.387.541.501.876a3.3 3.3 0 0 1 .174 1.081c0 .491-.076.918-.228 1.285a2.823 2.823 0 0 1-.587.915 2.422 2.422 0 0 1-.814.556 2.357 2.357 0 0 1-.91.188c-.333 0-.646-.06-.939-.18-.293-.12-.546-.3-.762-.54a2.541 2.541 0 0 1-.498-.901 4.051 4.051 0 0 1-.182-1.277c0-.386.053-.75.157-1.088a2.64 2.64 0 0 1 .464-.894 2.21 2.21 0 0 1 1.776-.837c.385 0 .736.073 1.05.22.312.147.58.345.798.596Zm.283-.979a2.301 2.301 0 0 0-.533-.432 3.036 3.036 0 0 0-.72-.304 3.24 3.24 0 0 0-.91-.117c-.501 0-.971.093-1.409.282-.437.187-.82.454-1.142.799-.323.344-.58.755-.769 1.229-.187.475-.281 1-.281 1.573 0 .68.102 1.262.305 1.747.202.485.467.886.79 1.206.326.32.689.554 1.092.705.399.15.805.226 1.211.226.376 0 .714-.049 1.012-.148a3.214 3.214 0 0 0 1.355-.862c.157-.172.277-.331.36-.478h.031V32.7h1.128v-11.06h-1.128v4.841h-.031a2.805 2.805 0 0 0-.361-.491Zm1.81-17.312c.024-.17.069-.352.142-.547.075-.194.186-.374.335-.539.145-.162.341-.3.584-.411.242-.11.543-.166.904-.166.315 0 .579.053.783.159.208.105.371.237.492.396.121.159.21.335.26.531.054.195.08.387.08.579h-3.58v-.002Zm0 1.33h5.704v-.587c0-1.214-.321-2.165-.959-2.85-.638-.687-1.587-1.03-2.842-1.03-.604 0-1.151.093-1.646.276-.497.185-.922.45-1.276.793a3.401 3.401 0 0 0-.815 1.242 4.404 4.404 0 0 0-.288 1.632c0 .592.092 1.128.277 1.607.187.48.453.889.801 1.228.349.338.774.599 1.273.783.505.185 1.075.277 1.719.277.931 0 1.688-.16 2.276-.481.582-.323 1.027-.828 1.322-1.514l-1.917-.46c-.276.57-.8.856-1.584.856a2.45 2.45 0 0 1-.893-.151 1.888 1.888 0 0 1-.644-.396 1.58 1.58 0 0 1-.378-.57 1.763 1.763 0 0 1-.13-.655Zm7.031 22.694h1.144V25.34h-1.144v4.088c0 .385-.068.726-.203 1.018a2.33 2.33 0 0 1-.518.737c-.208.197-.449.35-.72.454a2.132 2.132 0 0 1-1.425.062 1.43 1.43 0 0 1-.572-.33 1.712 1.712 0 0 1-.424-.618c-.11-.254-.164-.578-.164-.964V25.34h-1.143v4.95c0 .522.094.946.279 1.269.192.323.421.58.698.768.277.188.563.315.862.384.298.066.557.102.776.102.53 0 1.021-.11 1.472-.33a2.337 2.337 0 0 0 1.05-1.033h.029v1.252h.003Zm4.042 28.604c.161.017.304.049.431.102v-1.094a3.187 3.187 0 0 0-.495-.089 4.692 4.692 0 0 0-.462-.022c-.47 0-.861.092-1.175.282a2.138 2.138 0 0 0-.745.735 3.305 3.305 0 0 0-.392 1.025 5.8 5.8 0 0 0-.117 1.152v.502h-1.567v.939h1.567v6.423h1.159v-6.423h2.131v-.94h-2.131v-.435c0-.27.017-.538.047-.803a2.28 2.28 0 0 1 .188-.699c.092-.204.224-.365.392-.491.167-.124.386-.188.657-.188.18-.001.35.008.512.024Zm6.211-38.56c.163.017.304.051.43.103v-1.094a3.553 3.553 0 0 0-.493-.089 5.229 5.229 0 0 0-.464-.024c-.469 0-.861.094-1.174.282a2.105 2.105 0 0 0-.745.737 3.24 3.24 0 0 0-.392 1.026 5.656 5.656 0 0 0-.118 1.152v.5h-1.566v.941h1.566v6.422h1.16V26.28h2.128v-.94h-2.128v-.437c0-.27.014-.535.046-.8s.094-.498.188-.702c.094-.201.225-.366.394-.49.165-.123.385-.187.656-.187.181 0 .349.008.512.023Zm-.565 48.513h1.159V60.202h-1.159V71.26Zm3.799-47.816a.825.825 0 0 0 .251-.61.855.855 0 0 0-.251-.62.818.818 0 0 0-.611-.258.841.841 0 0 0-.618.258.84.84 0 0 0-.259.62c0 .24.085.444.259.61.172.167.377.25.618.25a.83.83 0 0 0 .611-.25Zm2.413 9.259h1.158v-11.06h-1.158v11.06Zm3.938 31.501a2.542 2.542 0 0 0-.956 1.025 2.483 2.483 0 0 0-.228-.446 1.89 1.89 0 0 0-.405-.462 2.212 2.212 0 0 0-1.466-.516 3.14 3.14 0 0 0-.856.108 2.647 2.647 0 0 0-.68.3 2.77 2.77 0 0 0-.518.414 2.41 2.41 0 0 0-.359.462h-.032v-1.19h-1.143v7.363h1.16v-4.433c0-.303.057-.578.173-.822.115-.247.266-.458.452-.636a2.11 2.11 0 0 1 .63-.406c.229-.092.463-.142.704-.142.564 0 .975.135 1.238.4.259.267.388.708.388 1.323v4.717h1.146V66.83c0-.303.058-.578.173-.822a2.092 2.092 0 0 1 1.073-1.042c.225-.091.448-.142.666-.142.543 0 .98.135 1.317.4.333.268.5.709.5 1.323v4.717h1.127v-5.027c0-.385-.065-.732-.193-1.034a2.197 2.197 0 0 0-.54-.767 2.218 2.218 0 0 0-.83-.469 3.374 3.374 0 0 0-1.05-.157c-.567-.004-1.063.13-1.491.394Zm10.317-31.501v-5.029c0-.385-.068-.73-.195-1.034a2.253 2.253 0 0 0-.542-.767 2.237 2.237 0 0 0-.829-.47 3.411 3.411 0 0 0-1.049-.156c-.565 0-1.062.132-1.488.4a2.549 2.549 0 0 0-.958 1.025 2.586 2.586 0 0 0-.227-.447 1.967 1.967 0 0 0-.407-.462 2.353 2.353 0 0 0-.618-.368 2.223 2.223 0 0 0-.848-.148 3.07 3.07 0 0 0-.854.11 2.645 2.645 0 0 0-.682.298 2.804 2.804 0 0 0-.518.414 2.574 2.574 0 0 0-.359.461h-.03v-1.19h-1.143v7.363h1.158V28.27c0-.303.059-.577.173-.822.115-.245.266-.457.454-.635a2.02 2.02 0 0 1 .629-.406 1.83 1.83 0 0 1 .703-.14c.566 0 .975.132 1.238.398.261.266.391.707.391 1.324v4.715h1.144v-4.433c0-.303.056-.577.171-.822a2.1 2.1 0 0 1 1.074-1.04c.227-.095.448-.141.668-.141.543 0 .981.132 1.315.398.335.267.502.708.502 1.325v4.714h1.127v-.002Z" fill="#C03"/>
</svg>