<svg width="161" height="20" viewBox="0 0 161 20" fill="none" xmlns="http://www.w3.org/2000/svg">
    <path d="M72.2241 0V19.9839H80.3452V16.354H76.1805V3.60685H80.3452V0H72.2241Z" fill="#E30613"/>
    <path d="M83.7184 0V3.63134H87.8831V16.3757H83.7184V19.9839H91.8408V0H83.7184Z" fill="#E30613"/>
    <path d="M17.457 0.0244141L11.4343 14.4489L5.26911 0.0244141H0V20H3.82217V6.11014L9.72737 20H13.0574L18.9612 5.99586V20H22.898V0.0244141H17.457ZM28.402 0.0244141V20H41.2539V16.3374H32.3961V11.717H40.4151V8.25164H32.3961V3.68701H41.2539V0.0244141H28.402ZM63.5187 0.0244141L57.4974 14.4489L51.3322 0.0244141H46.0631V20H49.8853V6.11014L55.7891 20H59.1205L65.0243 5.99586V20H68.9611V0.0244141H63.5187Z" fill="#222222"/>
    <path d="M151.214 14.8565L145.858 0.0102539H141.487L149.072 19.9844H153.182L160.796 0.0102539H156.57L151.214 14.8565ZM132.277 4.32046L135.113 11.8701H129.439L132.277 4.32046ZM138.152 19.9844H142.495L134.678 0.0102539H130.047L122.173 19.9844H126.399L128.108 15.4198H136.444L138.152 19.9844ZM118.951 0.0102539H114.898V19.9844H118.951V0.0102539ZM99.9755 8.94087V3.39121H103.217C105.245 3.39121 106.43 4.48917 106.43 6.18032C106.43 7.81434 105.245 8.94087 103.217 8.94087H99.9755ZM106.083 19.9844H110.542L106.141 11.8143C108.833 11.0538 110.512 8.94087 110.512 6.15175C110.512 2.68644 107.965 0.0102539 103.97 0.0102539H95.952V19.9844H99.9755V12.2933H102.06L106.083 19.9844Z" fill="#222222"/>
</svg>