<?xml version="1.0" encoding="UTF-8" standalone="no"?>
<svg version="1.0" width="447.000000pt" height="408.000000pt" viewBox="0 0 447.000000 408.000000" preserveAspectRatio="xMidYMid meet" id="svg5" sodipodi:docname="logo.svg" inkscape:version="1.3 (0e150ed6c4, 2023-07-21)" xmlns:inkscape="http://www.inkscape.org/namespaces/inkscape" xmlns:sodipodi="http://sodipodi.sourceforge.net/DTD/sodipodi-0.dtd" xmlns="http://www.w3.org/2000/svg" xmlns:svg="http://www.w3.org/2000/svg">
  <defs id="defs5"/>
  <sodipodi:namedview id="namedview5" pagecolor="#ffffff" bordercolor="#000000" borderopacity="0.25" inkscape:showpageshadow="2" inkscape:pageopacity="0.0" inkscape:pagecheckerboard="0" inkscape:deskcolor="#d1d1d1" inkscape:document-units="pt" inkscape:zoom="1.4944853" inkscape:cx="297.76138" inkscape:cy="272" inkscape:window-width="1920" inkscape:window-height="1009" inkscape:window-x="-8" inkscape:window-y="-8" inkscape:window-maximized="1" inkscape:current-layer="svg5"/>
  <g transform="translate(0.000000,408.000000) scale(0.100000,-0.100000)" fill="#f1d166" stroke="none" id="g5">
    <path d="M632 4054 c-526 -155 -784 -728 -542 -1205 13 -24 61 -109 108 -189 47 -80 104 -179 127 -220 23 -41 80 -140 127 -220 80 -137 146 -250 448 -775 70 -121 177 -305 237 -410 61 -104 154 -266 208 -360 53 -93 115 -200 136 -237 119 -204 278 -335 495 -409 81 -27 95 -29 247 -29 172 0 211 7 330 55 162 66 321 209 421 378 83 141 299 515 336 582 18 33 53 93 77 132 24 40 105 180 180 310 260 453 460 799 538 933 262 451 291 506 321 610 24 85 26 101 22 258 -4 163 -5 169 -40 259 -107 277 -322 470 -605 542 -81 21 -93 21 -1585 20 l-1503 0 -83 -25z m3146 -29 c270 -56 503 -259 594 -514 37 -104 47 -165 48 -280 0 -185 -39 -304 -172 -518 -21 -34 -38 -65 -38 -68 0 -2 -22 -42 -49 -87 -87 -148 -298 -512 -326 -563 -24 -42 -78 -136 -185 -320 -45 -78 -210 -364 -228 -396 -11 -20 -40 -69 -64 -110 -48 -79 -79 -134 -123 -214 -30 -54 -203 -353 -291 -501 -88 -150 -227 -284 -354 -342 -94 -42 -123 -52 -202 -67 -303 -57 -600 50 -791 285 -36 45 -91 135 -207 340 -51 91 -101 176 -110 190 -9 14 -31 50 -47 80 -33 60 -156 273 -208 360 -18 30 -44 75 -57 100 -14 25 -57 99 -95 165 -38 66 -109 190 -158 275 -48 85 -98 171 -110 190 -31 50 -202 344 -238 410 -16 30 -42 75 -57 100 -229 375 -269 476 -270 687 0 64 6 139 15 175 70 303 292 536 585 614 l85 23 1492 1 c1274 0 1502 -2 1561 -15z" id="path1"/>
    <path d="M690 3865 c-181 -44 -337 -171 -424 -343 -47 -94 -66 -175 -66 -292 0 -166 23 -226 214 -555 54 -93 107 -186 118 -205 11 -19 35 -60 53 -90 18 -30 43 -75 57 -100 13 -25 28 -44 33 -43 5 1 17 32 27 69 34 122 101 248 175 330 88 97 236 187 371 226 76 22 89 22 837 25 l760 3 22 27 c31 38 83 181 94 261 11 75 5 168 -17 256 -52 203 -225 381 -421 432 -78 20 -1750 19 -1833 -1z m1833 -39 c91 -24 158 -64 232 -140 125 -129 170 -242 169 -431 -1 -111 -3 -127 -34 -205 -52 -135 47 -120 -811 -123 l-744 -3 -95 -27 c-115 -34 -222 -90 -314 -165 -100 -82 -165 -179 -248 -372 l-15 -34 -35 54 c-39 62 -264 453 -314 545 -57 106 -74 175 -74 300 0 67 6 134 15 169 53 203 233 382 433 430 85 21 1756 22 1835 2z" id="path2"/>
    <path d="M2850 3876 c0 -3 15 -20 34 -38 267 -259 317 -659 125 -993 -29 -49 -60 -105 -70 -122 -11 -18 -27 -48 -38 -65 -98 -171 -140 -244 -177 -305 -24 -40 -44 -75 -44 -77 0 -3 -30 -56 -66 -118 -37 -62 -84 -142 -104 -178 -21 -36 -72 -123 -114 -194 -42 -71 -76 -134 -76 -141 0 -11 67 -121 93 -151 36 -41 152 -127 208 -153 36 -17 105 -37 159 -47 82 -14 107 -14 180 -4 228 34 355 128 495 365 43 72 91 155 108 185 16 30 120 210 230 400 429 740 419 721 447 824 31 111 25 268 -13 379 -66 191 -213 335 -423 414 -44 16 -91 18 -501 21 -249 1 -453 1 -453 -2z m908 -47 c91 -22 204 -83 268 -146 133 -128 194 -269 194 -448 0 -168 -19 -219 -181 -500 -116 -199 -469 -809 -582 -1005 -159 -276 -261 -361 -480 -398 -85 -14 -102 -14 -189 0 -52 8 -120 26 -149 40 -72 33 -181 122 -225 183 -62 87 -63 82 17 218 39 67 88 151 109 187 20 36 69 119 107 185 38 66 81 140 95 165 14 25 58 101 98 170 297 509 310 542 318 762 4 126 2 144 -22 230 -34 119 -71 196 -135 283 -28 38 -51 73 -51 77 0 13 754 10 808 -3z" id="path3"/>
    <path d="M1395 2723 c-163 -15 -275 -69 -390 -188 -154 -159 -207 -401 -135 -616 16 -48 49 -121 73 -161 25 -40 62 -104 84 -143 22 -38 74 -129 116 -202 42 -72 85 -147 95 -165 11 -18 61 -105 112 -193 97 -168 118 -204 148 -257 177 -312 228 -387 316 -462 184 -160 480 -191 711 -77 134 67 223 161 322 341 17 30 62 109 100 175 38 66 96 165 128 220 31 55 63 107 70 115 7 8 15 25 18 38 5 21 3 22 -31 16 -21 -4 -46 -10 -58 -14 -11 -5 -63 -14 -116 -21 -121 -15 -235 -2 -346 41 -75 29 -194 97 -217 124 -5 6 -22 19 -36 28 -33 21 -120 137 -187 251 -29 49 -52 91 -52 94 0 4 -20 38 -44 77 -24 39 -89 150 -144 246 -205 361 -411 715 -422 728 -11 12 -26 12 -115 5z m97 -50 c15 -18 214 -357 410 -703 55 -96 110 -191 122 -210 13 -19 40 -66 61 -105 57 -104 149 -249 191 -300 74 -91 231 -191 374 -238 122 -41 245 -44 408 -11 19 4 32 2 32 -3 0 -6 -23 -50 -52 -99 -28 -49 -100 -174 -161 -279 -148 -257 -170 -289 -246 -352 -120 -100 -208 -133 -371 -140 -88 -4 -130 -2 -180 11 -141 36 -251 107 -335 216 -23 30 -169 276 -324 545 -300 520 -326 564 -416 717 -31 54 -71 131 -88 170 -28 66 -32 85 -35 195 -5 139 13 221 71 323 68 122 223 236 352 259 132 24 169 25 187 4z" id="path4"/>
    <path d="M1705 2721 c-3 -6 29 -70 71 -143 43 -73 111 -191 152 -263 77 -135 99 -173 131 -227 10 -18 36 -62 58 -98 21 -36 47 -81 58 -102 10 -20 26 -46 35 -58 17 -22 17 -22 48 29 18 28 32 53 32 55 0 2 45 81 101 177 55 96 155 269 221 384 67 116 125 213 131 216 5 4 7 14 4 23 -6 14 -58 16 -521 16 -310 0 -517 -4 -521 -9z m975 -44 c0 -7 -54 -107 -121 -222 -66 -116 -166 -290 -222 -387 -56 -98 -107 -178 -112 -178 -6 0 -26 28 -44 63 -19 34 -42 73 -51 87 -10 14 -70 117 -135 230 -64 113 -142 246 -171 297 -30 50 -54 98 -54 107 0 14 45 16 455 16 359 0 455 -3 455 -13z" id="path5"/>
  </g>
  <path style="fill:#f1d166;fill-opacity:1;stroke-width:0.669127" d="M 96.683581,2.9418051 C 79.347914,7.2186839 61.980159,13.012971 47.692852,24.084092 20.201625,44.210446 2.6984466,77.695893 2.9378844,111.88791 2.488611,129.15745 6.0364845,146.5027 13.994304,161.88923 c 12.627168,25.26623 28.140637,48.84728 41.731864,73.56268 38.419288,65.71199 76.085932,131.85601 114.332652,197.67521 13.56867,22.47083 25.425,46.0834 40.52267,67.62142 25.01531,32.28436 69.11167,48.08094 108.98395,39.36357 21.18535,-4.07094 41.15593,-14.53687 55.82066,-30.4707 16.00233,-15.88723 25.60432,-36.61373 37.20897,-55.63131 39.86207,-69.36806 80.02631,-138.56465 119.931,-207.92659 15.4463,-26.81789 31.23731,-53.44835 46.19902,-80.53672 15.51346,-28.07694 17.02859,-62.99948 5.56888,-92.779262 C 571.07266,38.297803 539.14865,11.806167 502.95064,4.8524754 475.34416,2.8232628 447.61171,3.5254234 419.94891,3.1158673 312.19647,2.7968252 204.42657,2.8131612 96.683581,2.9418051 Z M 411.87754,29.29651 c 29.27878,0.27617 58.63892,-0.265569 87.79412,1.539959 10.87437,1.197573 20.42215,7.459176 29.38408,13.124632 20.54068,13.864292 34.936,37.387508 36.15766,62.525449 1.23704,16.17695 -1.77874,33.18055 -10.07872,47.29627 -23.03575,42.36367 -48.01672,83.67978 -71.86586,125.64655 -11.44813,19.12407 -21.50721,39.15598 -34.47076,57.32959 -10.37743,14.57564 -24.98678,26.20542 -42.67344,30.39033 -16.3333,4.76982 -33.86557,3.61426 -49.6603,-2.04683 -12.76658,-4.73371 -24.04,-12.89355 -33.23561,-22.85853 -4.59528,-5.35509 -8.02342,-11.5843 -11.36863,-17.72794 17.6841,-31.82006 36.64184,-62.95217 54.5321,-94.69266 13.96598,-24.70842 28.9315,-48.88033 42.02995,-74.06318 15.66898,-33.62309 14.05498,-75.446379 -6.92302,-106.470582 -4.66936,-7.182531 -10.31564,-13.656408 -16.19453,-19.863677 8.85692,-0.129964 17.71528,-0.125932 26.57296,-0.129381 z m -194.59956,0.01438 c 37.55915,0.255351 75.17316,-0.445492 112.66635,1.274656 12.76983,0.349055 24.30522,7.749949 34.08412,15.505786 18.9697,15.754248 29.89375,40.530488 28.78159,65.089558 0.0185,13.90693 -5.08889,27.82144 -11.27191,40.41028 -1.37757,2.58185 -3.09188,5.68801 -6.57231,4.54525 -62.53565,0.48752 -125.08851,-0.0163 -187.61028,1.53021 -11.05684,0.0909 -22.22343,1.48568 -32.32119,6.26013 -21.82717,8.94635 -41.3818,24.39578 -52.69971,45.35923 -5.940771,9.90685 -9.113221,21.293 -13.164361,31.86753 C 72.240952,211.59214 54.619215,182.48848 38.725707,152.40406 33.007796,141.79687 29.145788,130.03986 29.459068,117.87026 28.23116,100.87447 31.961924,83.470631 41.334256,69.113468 53.226166,50.436621 72.14447,35.221319 94.193955,30.994157 125.85049,29.004759 157.82347,29.681282 189.65429,29.34615 c 9.20788,-0.02265 18.41578,-0.02983 27.62369,-0.03526 z m 78.67597,153.51883 c 22.48923,0.26411 45.2178,-0.56041 67.52299,0.76845 -22.54774,37.516 -43.83431,75.78139 -65.98752,113.52451 -1.18927,2.79608 -2.39145,-1.585 -3.41347,-2.59846 -20.16752,-35.41897 -41.18227,-70.34844 -60.87648,-106.03738 -0.25166,-1.56825 -3.99611,-5.55767 -0.91112,-5.2582 21.12672,-0.5519 42.466,-0.31663 63.6656,-0.39892 z m -98.52368,0.10847 c 3.43652,-0.3638 3.82019,4.50442 5.7653,6.47352 29.06011,49.3375 57.17989,99.22937 86.03582,148.68025 8.61823,13.64828 17.38647,27.88846 31.01897,37.13071 15.14247,10.69797 32.6924,19.08978 51.34758,20.7801 14.25112,0.77622 28.63225,0.0157 42.45068,-3.7797 1.78029,-0.20744 6.25237,-2.24732 4.01311,0.81959 -16.81333,27.45657 -31.97148,55.90901 -48.91216,83.28978 -12.19857,18.76205 -31.34005,33.71503 -53.68906,37.74102 -28.3089,6.22626 -60.17944,-2.22569 -79.65608,-24.22175 -12.76829,-15.06734 -21.59252,-32.9535 -31.7971,-49.75016 -26.18915,-45.64002 -52.82543,-91.03086 -78.81399,-136.78198 -6.66018,-12.90698 -11.37582,-27.2945 -10.64199,-41.90798 -0.4543,-16.40656 5.33754,-33.08996 15.24919,-46.32387 10.29182,-13.04185 23.57556,-24.50409 40.04002,-28.73071 8.95271,-2.5477 18.37824,-3.37042 27.58971,-3.41882 z" id="path6" transform="scale(0.75)"/>
</svg>