<?xml version="1.0" encoding="utf-8"?>
<!-- Generator: Adobe Illustrator 22.0.1, SVG Export Plug-In . SVG Version: 6.00 Build 0)  -->
<svg version="1.1" id="Calque_2" xmlns="http://www.w3.org/2000/svg" xmlns:xlink="http://www.w3.org/1999/xlink" x="0px" y="0px"
	 viewBox="0 0 205 56" style="enable-background:new 0 0 205 56;" xml:space="preserve">
<style type="text/css">
	.st0{fill:#272118;}
	.st1{fill:#9B9B99;}
</style>
<g>
	<g>
		<path class="st0" d="M30.5,12c-1-7-5.1-10.8-12.3-10.8c-9.5,0-12.4,9-12.4,17.2c0,7.9,3.7,16.1,12.8,16.1c7.7,0,10.7-4.8,12-10.6
			l1.2,0.2c-0.7,3-1,6.2-1.2,9.3c-3.1,0-6.2,2.4-12.5,2.4C6.5,35.8,0,27.5,0,18.1C0,8,7.7,0,17.2,0c7.7,0,9.2,2.5,12,2.5
			c0.7,0,1.2-0.4,1.7-0.8l1,0.2c-0.1,1.7-0.2,3.4-0.2,5c0,1.7,0.1,3.4,0.2,5.1H30.5z"/>
		<path class="st0" d="M34,0.7c1.9,0.3,4.3,0.5,7.2,0.5c2.7,0,5.5-0.5,8.2-0.5c6,0,10.1,2.9,10.1,7.8c0,3.6-2.4,6.3-5.4,7.4v0.5
			c4.5,1.4,7.7,3.7,7.7,8.7c0,6.4-5.2,9.9-11.4,9.9c-2.5,0-3.8-0.3-7.6-0.3c-4.3,0-5.9,0.1-9.2,0.3l0.3-1.2c2.5-0.1,4.8-0.5,4.8-1.8
			V3.9c0-1.4-1.1-1.5-4.7-1.9V0.7z M43.8,16.2h2.7c6,0,9-2.9,9-7.4c0-5.7-4.4-6.9-9.2-6.9c-0.9,0-1.7,0.1-2.4,0.2V16.2z M43.8,30
			c0,2.5,1.4,3.7,4.5,3.7c6.1,0,8.8-3.8,8.8-8.9c0-4.2-2.4-7.4-11-7.4h-2.4V30z"/>
		<path class="st0" d="M77,35.4h-0.6L65.2,4.8c-0.8-2.2-1.2-2.4-3.7-2.5V0.7c1,0,3,0.5,6.2,0.5c2.8,0,4.9-0.3,6.2-0.3v1.2
			c-2,0-3.9,0.3-3.9,1.2c0,0.2,0.1,0.8,0.4,1.7l7.8,22.9h0.1l6.6-19.4c0.2-0.6,0.3-1,0.3-1.2c0-0.8-1-3.8-1.5-4.5
			c-0.4-0.5-1.4-0.8-3.2-0.8V0.9c0.9,0,3.3,0.3,6.5,0.3c3.2,0,5.3-0.3,6.5-0.3v1.2c-2.7,0-3.9,0.5-3.9,1.6c0,0.4,0.3,1.7,0.8,3.6
			l6.1,21.2h0.1L104.3,8c0.7-1.7,1-3.3,1-4.2c0-1-0.9-1.5-4.7-1.7V0.9c0.9,0,2.5,0.2,4.9,0.2s4-0.2,4.9-0.2v1.5
			c-2.1,0.4-3.2,2-4.6,5.6L95,35.4h-0.6L86,9h-0.1L77,35.4z"/>
		<path class="st0" d="M148.9,30.2c0,2.6,0.5,2.9,4,3.1v1.3h-8.2c-4.1,0-4.3,0.3-4.7,0.3v-1.4l2.9-0.7c0.6-0.2,0.9-3,0.9-5.7V6.9
			c0-0.4-0.2-0.4-0.4-0.4c-0.2,0-0.3,0-0.4,0.2l-11.6,28h-0.6L118.3,8.2h-0.1V29c0,1.8,0,3.6,0.5,3.7l4,0.6v1.4
			c-1.1,0-2.7-0.1-4.9-0.1c-4.3,0-4.8,0.3-5,0.3v-1.6c3.4-0.2,4.1-1.2,4.1-4.6V6.9c0-3.3-1.2-4.9-4.1-5V0.6c1.2,0.3,2.8,0.4,4.2,0.5
			c1.4,0.1,2.4,0.1,4.1,0.1l11.9,26.1l11.3-26.2c0.4,0.1,0.9,0.1,1.4,0.1c3.1,0,5.5-0.3,7.2-0.5v1.4c-2.8,0.3-3.9,0.5-3.9,2.2V30.2z
			"/>
	</g>
	<g>
		<path class="st1" d="M129.3,46.4c-3.3,5.4-8.6,8.4-15.1,8.4c-3.6,0-7.3-0.9-10.2-3.2c-2.4,1.6-5.3,3-8.3,3c-3.9,0-7.4-2.4-7.4-6.5
			c0-5.6,5.3-8.7,9.9-10.3c0.6-5.2,4.9-11.9,11.1-11.9c2.4,0,4.1,1.2,4.1,3.1c0,4.9-7.6,6.6-11.2,8c0.2,4.3,1.7,9.1,4.6,11.9
			c5.7-5.2,8.7-11.7,13.6-11.7c1.9,0,2.9,1.2,2.9,2.5c0,1.3-0.8,2.4-2.4,2.4c-1.4,0-2.2-1-2.2-2c0-0.7,0.2-1.1,0.6-1.6
			c-0.1-0.1-0.3-0.1-0.5-0.1c-2.8,0-7.1,6.6-11.7,10.8c2.5,2.7,6.2,4.4,9.9,4.4c5.2,0,9-3.1,11.8-7.3L129.3,46.4z M98.7,52.8
			c1.7,0,3.1-0.3,4.9-1.5c-3.6-2.8-5.4-7.3-5.4-12.2v-0.9c-3.1,1.1-5.5,4.1-5.5,7.5C92.6,49.4,94.9,52.8,98.7,52.8z M107.9,26.8
			c-2.7,0-5.8,4.8-5.8,9.7c3.5-0.9,7.5-3.7,7.5-7.8C109.7,27.6,109.2,26.8,107.9,26.8z"/>
	</g>
	<g>
		<path class="st0" d="M131.2,43.4l4.7,11.9h-0.8l-1.5-3.8h-5.7l-1.5,3.8h-0.8l4.8-11.9H131.2z M133.3,50.8l-2.5-6.7h0l-2.6,6.7
			H133.3z"/>
		<path class="st0" d="M144.8,46.8c-0.1-2-1.6-3-3.8-3c-1.3,0-3.3,0.6-3.3,2.5c0,1.9,2,2.2,4,2.6c2,0.4,4.1,0.9,4.1,3.3
			c0,2.5-2.4,3.3-4.2,3.3c-2.8,0-5-1.1-5-4.2h0.7c-0.1,2.6,1.9,3.6,4.3,3.6c1.4,0,3.4-0.6,3.4-2.7c0-2-2-2.4-4.1-2.8
			c-2-0.4-4-0.9-4-3.2c0-2.3,2.1-3.2,4-3.2c2.5,0,4.4,1.1,4.5,3.7H144.8z"/>
		<path class="st0" d="M155.6,46.8c-0.1-2-1.6-3-3.8-3c-1.3,0-3.3,0.6-3.3,2.5c0,1.9,2,2.2,4,2.6c2,0.4,4.1,0.9,4.1,3.3
			c0,2.5-2.4,3.3-4.2,3.3c-2.8,0-5-1.1-5-4.2h0.7c-0.1,2.6,1.9,3.6,4.3,3.6c1.4,0,3.4-0.6,3.4-2.7c0-2-2-2.4-4.1-2.8
			c-2-0.4-4-0.9-4-3.2c0-2.3,2.1-3.2,4-3.2c2.5,0,4.4,1.1,4.5,3.7H155.6z"/>
		<path class="st0" d="M163.8,55.5c-3.6,0-5.7-2.7-5.7-6.2c0-3.5,2.1-6.2,5.7-6.2c3.5,0,5.6,2.7,5.6,6.2
			C169.4,52.8,167.3,55.5,163.8,55.5z M163.8,54.9c3.1,0,4.9-2.5,4.9-5.6c0-3-1.8-5.6-4.9-5.6c-3.1,0-4.9,2.5-4.9,5.6
			C158.9,52.4,160.7,54.9,163.8,54.9z"/>
		<path class="st0" d="M180.6,46.9c-0.3-2-2.1-3.2-4-3.2c-3.1,0-4.9,2.5-4.9,5.6c0,3,1.8,5.6,4.9,5.6c2.3,0,4.1-2.1,4.2-4.3h0.7
			c-0.3,2.8-2.4,4.9-5,4.9c-3.6,0-5.7-2.7-5.7-6.2c0-3.5,2.1-6.2,5.7-6.2c4.2,0,4.8,3.7,4.8,3.8H180.6z"/>
		<path class="st0" d="M183.4,43.4h0.7v11.9h-0.7V43.4z"/>
		<path class="st0" d="M194.6,54.6v0.6h-8.1V43.4h8V44h-7.2v4.8h6.8v0.6h-6.8v5.2H194.6z M191.2,40.2h0.8l-2.2,2.3h-0.6L191.2,40.2z
			"/>
		<path class="st0" d="M204,46.8c-0.1-2-1.6-3-3.8-3c-1.3,0-3.3,0.6-3.3,2.5c0,1.9,2,2.2,4,2.6c2,0.4,4.1,0.9,4.1,3.3
			c0,2.5-2.4,3.3-4.2,3.3c-2.8,0-5-1.1-5-4.2h0.7c-0.1,2.6,1.9,3.6,4.3,3.6c1.4,0,3.4-0.6,3.4-2.7c0-2-2-2.4-4.1-2.8
			c-2-0.4-4-0.9-4-3.2c0-2.3,2.1-3.2,4-3.2c2.5,0,4.4,1.1,4.5,3.7H204z"/>
	</g>
</g>
</svg>
