<?xml version="1.0" encoding="utf-8"?>
<svg width="52.916668mm" height="21.297453mm" viewBox="5.911 17.007 47.41 4.722" version="1.1" id="svg5" xmlns="http://www.w3.org/2000/svg">
  <defs id="defs2">
    <rect id="SVGID_1_" x="0.833" y="-1.607" width="78.196999" height="62.606998"/>
    <rect id="SVGID_3_" x="11.605" y="48.248001" width="67.425003" height="5.652"/>
  </defs>
  <g id="layer1" transform="translate(-12.354714,-73.026932)">
    <g id="g946" transform="matrix(0.69075496,0,0,0.69075496,10.681015,57.092692)">
      <g id="g884">
        <g id="g832">
          <defs id="defs825">
            <rect id="rect905" x="0.833" y="-1.607" width="78.196999" height="62.606998"/>
          </defs>
        </g>
        <g id="g846"/>
        <polygon fill="#141412" points="15.419,53.766 15.832,53.766 17.067,49.902 16.679,49.902 15.654,53.332 14.572,49.902 14.211,49.902 13.102,53.271 12.028,49.902 11.605,49.902 12.909,53.766 13.27,53.766 14.353,50.473 " id="polygon848"/>
        <g id="g882">
          <defs id="defs851">
            <rect id="rect920" x="11.605" y="48.248001" width="67.425003" height="5.652"/>
          </defs>
          <clipPath id="SVGID_4_">
            <rect id="use853" x="11.605" y="48.248001" width="67.425003" height="5.652" transform="matrix(1, 0, 0, 1, 0, 0)" overflow="visible"/>
          </clipPath>
          <path clip-path="url(#SVGID_4_)" fill="#141412" d="M 20.711,53.766 C 20.705,53.692 20.7,53.6 20.697,53.506 c 0,-0.1 -0.004,-0.221 -0.004,-0.385 -0.101,0.145 -0.211,0.27 -0.337,0.367 -0.118,0.094 -0.248,0.174 -0.37,0.232 -0.127,0.045 -0.255,0.096 -0.384,0.119 -0.127,0.016 -0.247,0.027 -0.351,0.027 -0.164,0 -0.327,-0.018 -0.486,-0.051 -0.166,-0.031 -0.312,-0.088 -0.437,-0.176 -0.132,-0.088 -0.236,-0.203 -0.317,-0.355 -0.083,-0.145 -0.123,-0.338 -0.123,-0.564 0,-0.186 0.032,-0.361 0.093,-0.523 0.062,-0.17 0.16,-0.314 0.297,-0.439 0.13,-0.115 0.306,-0.207 0.518,-0.277 0.211,-0.07 0.468,-0.105 0.773,-0.105 0.233,0 0.443,0.006 0.629,0.023 0.185,0.018 0.342,0.041 0.469,0.059 v -0.221 c 0,-0.209 -0.023,-0.385 -0.076,-0.523 -0.049,-0.143 -0.125,-0.254 -0.225,-0.34 -0.102,-0.08 -0.227,-0.141 -0.373,-0.174 -0.142,-0.037 -0.311,-0.047 -0.504,-0.047 -0.317,0 -0.57,0.039 -0.759,0.135 -0.187,0.092 -0.333,0.18 -0.43,0.26 l -0.205,-0.254 c 0.108,-0.102 0.28,-0.211 0.52,-0.32 0.235,-0.111 0.525,-0.17 0.87,-0.17 0.504,0 0.888,0.109 1.159,0.318 0.268,0.211 0.402,0.568 0.402,1.055 v 1.789 0.314 c 0,0.094 0.003,0.182 0.009,0.25 l 0.017,0.236 H 20.711 Z M 20.68,51.795 c -0.12,-0.031 -0.269,-0.055 -0.442,-0.07 -0.178,-0.023 -0.402,-0.031 -0.675,-0.031 -0.289,0 -0.514,0.037 -0.682,0.107 -0.169,0.068 -0.296,0.156 -0.381,0.262 -0.09,0.098 -0.143,0.215 -0.169,0.33 -0.026,0.123 -0.037,0.227 -0.037,0.328 0,0.285 0.093,0.49 0.279,0.615 0.188,0.125 0.428,0.189 0.719,0.189 0.192,0 0.369,-0.037 0.539,-0.102 0.165,-0.068 0.313,-0.158 0.44,-0.268 0.127,-0.111 0.226,-0.238 0.298,-0.385 0.074,-0.139 0.111,-0.283 0.111,-0.43 z" id="path856"/>
          <path clip-path="url(#SVGID_4_)" fill="#141412" d="m 22.633,50.717 v -0.273 -0.197 c 0,-0.061 0,-0.117 -0.002,-0.176 -0.004,-0.047 -0.006,-0.105 -0.012,-0.168 h 0.352 c 0.005,0.062 0.009,0.121 0.012,0.18 0.003,0.059 0.005,0.117 0.009,0.182 0.002,0.062 0.005,0.135 0.005,0.209 v 0.279 c 0.043,-0.08 0.105,-0.182 0.18,-0.279 0.076,-0.105 0.173,-0.205 0.289,-0.291 0.12,-0.088 0.252,-0.164 0.41,-0.229 0.157,-0.059 0.342,-0.086 0.548,-0.086 0.123,0 0.23,0.012 0.321,0.051 l -0.111,0.361 c -0.042,-0.016 -0.085,-0.023 -0.141,-0.027 -0.051,-0.006 -0.101,-0.012 -0.145,-0.012 -0.2,0 -0.384,0.047 -0.544,0.133 -0.164,0.094 -0.306,0.209 -0.423,0.354 -0.116,0.148 -0.208,0.311 -0.271,0.504 -0.063,0.186 -0.098,0.371 -0.098,0.564 v 1.971 h -0.379 z" id="path858"/>
          <path clip-path="url(#SVGID_4_)" fill="#141412" d="m 26.211,50.256 h -0.772 v -0.354 h 0.772 v -1.275 h 0.378 v 1.275 h 1.277 v 0.354 H 26.59 v 2.232 c 0,0.232 0.017,0.418 0.049,0.553 0.035,0.139 0.085,0.244 0.148,0.314 0.064,0.068 0.14,0.115 0.225,0.133 0.082,0.027 0.175,0.037 0.277,0.037 0.14,0 0.259,-0.023 0.361,-0.078 0.099,-0.047 0.201,-0.135 0.303,-0.26 l 0.236,0.225 c -0.114,0.15 -0.243,0.262 -0.384,0.34 -0.143,0.08 -0.33,0.115 -0.56,0.115 -0.151,0 -0.291,-0.018 -0.418,-0.051 -0.129,-0.041 -0.24,-0.102 -0.327,-0.207 -0.09,-0.094 -0.163,-0.227 -0.212,-0.389 -0.05,-0.168 -0.076,-0.379 -0.076,-0.641 v -2.323 z" id="path860"/>
          <path clip-path="url(#SVGID_4_)" fill="#141412" d="m 29.28,50.717 v -0.273 -0.197 c 0,-0.061 -0.002,-0.117 -0.006,-0.176 -0.002,-0.047 -0.005,-0.105 -0.012,-0.168 h 0.354 c 0.005,0.062 0.009,0.121 0.011,0.168 0.002,0.051 0.005,0.105 0.009,0.162 0.002,0.064 0.005,0.129 0.005,0.203 v 0.277 c 0.043,-0.09 0.104,-0.182 0.183,-0.287 0.079,-0.109 0.178,-0.203 0.295,-0.297 0.116,-0.092 0.255,-0.176 0.419,-0.234 0.163,-0.064 0.35,-0.092 0.565,-0.092 0.372,0 0.658,0.082 0.855,0.24 0.196,0.16 0.333,0.383 0.411,0.67 0.04,-0.078 0.102,-0.17 0.189,-0.277 0.084,-0.104 0.194,-0.203 0.322,-0.295 0.129,-0.098 0.277,-0.176 0.446,-0.238 0.169,-0.072 0.354,-0.1 0.562,-0.1 0.259,0 0.474,0.041 0.652,0.115 0.174,0.084 0.314,0.193 0.419,0.346 0.104,0.148 0.178,0.324 0.225,0.533 0.043,0.211 0.064,0.443 0.064,0.707 v 2.262 h -0.376 v -2.141 c 0,-0.283 -0.023,-0.523 -0.067,-0.717 -0.046,-0.186 -0.113,-0.338 -0.203,-0.449 -0.086,-0.111 -0.195,-0.191 -0.322,-0.236 -0.126,-0.041 -0.272,-0.07 -0.441,-0.07 -0.191,0 -0.368,0.039 -0.537,0.121 -0.166,0.074 -0.314,0.18 -0.441,0.309 -0.125,0.135 -0.227,0.279 -0.296,0.445 -0.072,0.162 -0.111,0.336 -0.111,0.518 v 2.221 h -0.377 v -2.141 c 0,-0.283 -0.024,-0.523 -0.067,-0.717 -0.048,-0.186 -0.111,-0.338 -0.198,-0.449 -0.088,-0.111 -0.192,-0.191 -0.317,-0.236 -0.129,-0.041 -0.274,-0.07 -0.443,-0.07 -0.23,0 -0.431,0.057 -0.602,0.158 -0.175,0.098 -0.321,0.227 -0.44,0.383 -0.117,0.158 -0.204,0.334 -0.263,0.523 -0.061,0.186 -0.09,0.375 -0.09,0.561 v 1.988 H 29.28 Z" id="path862"/>
          <path clip-path="url(#SVGID_4_)" fill="#141412" d="m 39.441,53.766 c -0.007,-0.074 -0.009,-0.166 -0.012,-0.26 -0.004,-0.1 -0.006,-0.221 -0.006,-0.385 -0.099,0.145 -0.212,0.27 -0.335,0.367 -0.123,0.094 -0.248,0.174 -0.375,0.232 -0.125,0.045 -0.25,0.096 -0.382,0.119 -0.127,0.016 -0.245,0.027 -0.349,0.027 -0.164,0 -0.329,-0.018 -0.49,-0.051 -0.163,-0.031 -0.308,-0.088 -0.436,-0.176 -0.132,-0.088 -0.236,-0.203 -0.314,-0.355 -0.083,-0.145 -0.123,-0.338 -0.123,-0.564 0,-0.186 0.032,-0.361 0.093,-0.523 0.061,-0.17 0.16,-0.314 0.292,-0.439 0.137,-0.115 0.308,-0.207 0.524,-0.277 0.211,-0.07 0.468,-0.105 0.771,-0.105 0.236,0 0.446,0.006 0.629,0.023 0.183,0.018 0.344,0.041 0.471,0.059 v -0.221 c 0,-0.209 -0.026,-0.385 -0.076,-0.523 -0.052,-0.143 -0.128,-0.254 -0.227,-0.34 -0.102,-0.08 -0.224,-0.141 -0.37,-0.174 -0.146,-0.037 -0.314,-0.047 -0.503,-0.047 -0.32,0 -0.574,0.039 -0.759,0.135 -0.189,0.092 -0.335,0.18 -0.435,0.26 l -0.201,-0.254 c 0.105,-0.102 0.277,-0.211 0.515,-0.32 0.238,-0.111 0.527,-0.17 0.872,-0.17 0.502,0 0.891,0.109 1.158,0.318 0.268,0.211 0.401,0.568 0.401,1.055 v 1.789 0.314 c 0,0.094 0.006,0.182 0.009,0.25 l 0.018,0.236 z m -0.032,-1.971 c -0.12,-0.031 -0.266,-0.055 -0.443,-0.07 -0.174,-0.023 -0.401,-0.031 -0.676,-0.031 -0.284,0 -0.511,0.037 -0.68,0.107 -0.168,0.068 -0.293,0.156 -0.381,0.262 -0.087,0.098 -0.144,0.215 -0.167,0.33 -0.025,0.123 -0.041,0.227 -0.041,0.328 0,0.285 0.097,0.49 0.284,0.615 0.185,0.125 0.428,0.189 0.715,0.189 0.192,0 0.373,-0.037 0.539,-0.102 0.168,-0.068 0.314,-0.158 0.439,-0.268 0.129,-0.111 0.227,-0.238 0.3,-0.385 0.072,-0.139 0.111,-0.283 0.111,-0.43 z" id="path864"/>
          <path clip-path="url(#SVGID_4_)" fill="#141412" d="m 41.362,50.717 v -0.273 -0.197 c 0,-0.061 0,-0.117 -0.004,-0.176 -0.003,-0.047 -0.005,-0.105 -0.011,-0.168 H 41.7 c 0.005,0.062 0.008,0.121 0.015,0.168 0.002,0.051 0.002,0.105 0.005,0.162 0.004,0.064 0.006,0.129 0.006,0.203 v 0.277 c 0.044,-0.09 0.107,-0.182 0.189,-0.287 0.079,-0.109 0.181,-0.203 0.303,-0.297 0.116,-0.092 0.265,-0.176 0.431,-0.234 0.167,-0.064 0.36,-0.092 0.579,-0.092 0.278,0 0.508,0.041 0.693,0.115 0.186,0.084 0.337,0.193 0.456,0.346 0.121,0.148 0.201,0.324 0.255,0.533 0.05,0.211 0.075,0.443 0.075,0.707 v 2.262 h -0.379 v -2.141 c 0,-0.283 -0.026,-0.523 -0.075,-0.717 -0.049,-0.186 -0.124,-0.338 -0.222,-0.449 -0.098,-0.111 -0.219,-0.191 -0.363,-0.236 -0.14,-0.041 -0.305,-0.07 -0.49,-0.07 -0.247,0 -0.46,0.057 -0.638,0.158 -0.18,0.098 -0.328,0.227 -0.447,0.383 -0.117,0.158 -0.204,0.334 -0.263,0.523 -0.058,0.186 -0.09,0.375 -0.09,0.561 v 1.988 h -0.378 z" id="path866"/>
          <path clip-path="url(#SVGID_4_)" fill="#141412" d="m 46.267,50.717 v -0.273 -0.197 c 0,-0.061 0,-0.117 -0.003,-0.176 -0.002,-0.047 -0.006,-0.105 -0.011,-0.168 h 0.351 c 0.006,0.062 0.012,0.121 0.017,0.168 0,0.051 0.005,0.105 0.007,0.162 0,0.064 0.005,0.129 0.005,0.203 v 0.277 c 0.045,-0.09 0.106,-0.182 0.188,-0.287 0.082,-0.109 0.181,-0.203 0.302,-0.297 0.121,-0.092 0.264,-0.176 0.434,-0.234 0.167,-0.064 0.36,-0.092 0.577,-0.092 0.278,0 0.508,0.041 0.693,0.115 0.188,0.084 0.34,0.193 0.459,0.346 0.118,0.148 0.197,0.324 0.252,0.533 0.047,0.211 0.075,0.443 0.075,0.707 v 2.262 h -0.38 v -2.141 c 0,-0.283 -0.025,-0.523 -0.073,-0.717 -0.053,-0.186 -0.122,-0.338 -0.223,-0.449 -0.095,-0.111 -0.219,-0.191 -0.363,-0.236 -0.139,-0.041 -0.307,-0.07 -0.49,-0.07 -0.247,0 -0.458,0.057 -0.636,0.158 -0.181,0.098 -0.33,0.227 -0.449,0.383 -0.116,0.158 -0.206,0.334 -0.263,0.523 -0.057,0.186 -0.09,0.375 -0.09,0.561 v 1.988 h -0.379 z" id="path868"/>
          <path clip-path="url(#SVGID_4_)" fill="#9ab6a3" d="m 52.074,49.885 h 0.936 l 0.023,0.441 c 0.054,-0.059 0.107,-0.117 0.17,-0.182 0.063,-0.062 0.142,-0.115 0.231,-0.168 0.094,-0.051 0.196,-0.092 0.316,-0.129 0.117,-0.027 0.256,-0.045 0.408,-0.045 0.516,0 0.907,0.186 1.167,0.564 0.199,-0.205 0.402,-0.35 0.608,-0.436 0.209,-0.088 0.449,-0.129 0.728,-0.129 0.487,0 0.863,0.146 1.129,0.43 0.261,0.291 0.394,0.684 0.394,1.178 v 2.355 h -0.979 v -2.35 c 0,-0.25 -0.062,-0.439 -0.182,-0.578 -0.126,-0.135 -0.3,-0.203 -0.511,-0.203 -0.134,0 -0.255,0.027 -0.366,0.082 -0.111,0.051 -0.203,0.121 -0.286,0.223 -0.075,0.092 -0.14,0.203 -0.181,0.324 -0.044,0.123 -0.064,0.258 -0.064,0.402 v 2.1 H 54.64 v -2.35 c 0,-0.25 -0.062,-0.439 -0.188,-0.578 -0.124,-0.135 -0.294,-0.203 -0.508,-0.203 -0.132,0 -0.252,0.027 -0.364,0.082 -0.11,0.051 -0.208,0.121 -0.285,0.223 -0.08,0.092 -0.14,0.203 -0.183,0.324 -0.042,0.123 -0.062,0.258 -0.062,0.402 v 2.1 h -0.977 v -3.879 z" id="path870"/>
          <path clip-path="url(#SVGID_4_)" fill="#9ab6a3" d="m 63.028,53.201 c -0.018,0.02 -0.064,0.064 -0.136,0.143 -0.078,0.068 -0.181,0.148 -0.325,0.232 -0.14,0.082 -0.319,0.156 -0.539,0.227 -0.216,0.064 -0.477,0.098 -0.786,0.098 -0.304,0 -0.588,-0.051 -0.838,-0.158 -0.255,-0.102 -0.472,-0.25 -0.654,-0.436 -0.176,-0.18 -0.314,-0.406 -0.41,-0.66 -0.098,-0.264 -0.146,-0.555 -0.146,-0.865 0,-0.285 0.049,-0.551 0.146,-0.795 0.096,-0.25 0.232,-0.469 0.404,-0.643 0.174,-0.186 0.383,-0.332 0.622,-0.432 0.24,-0.109 0.506,-0.16 0.799,-0.16 0.354,0 0.652,0.068 0.897,0.197 0.247,0.121 0.445,0.297 0.592,0.504 0.149,0.209 0.259,0.449 0.32,0.713 0.072,0.268 0.101,0.535 0.101,0.814 v 0.139 H 60.18 c 0,0.139 0.034,0.273 0.094,0.393 0.064,0.115 0.146,0.213 0.25,0.295 0.101,0.08 0.216,0.145 0.349,0.191 0.128,0.047 0.255,0.064 0.383,0.064 0.187,0 0.354,-0.018 0.493,-0.051 0.141,-0.041 0.26,-0.084 0.36,-0.125 0.099,-0.045 0.181,-0.096 0.245,-0.148 0.064,-0.055 0.113,-0.092 0.145,-0.129 z m -0.956,-1.785 c 0,-0.1 -0.015,-0.199 -0.054,-0.297 -0.039,-0.102 -0.096,-0.188 -0.173,-0.268 -0.072,-0.084 -0.17,-0.148 -0.286,-0.199 -0.116,-0.051 -0.247,-0.082 -0.395,-0.082 -0.162,0 -0.307,0.031 -0.426,0.082 -0.126,0.051 -0.229,0.115 -0.314,0.199 -0.082,0.08 -0.144,0.166 -0.188,0.268 -0.041,0.098 -0.064,0.197 -0.064,0.297 z" id="path872"/>
          <path clip-path="url(#SVGID_4_)" fill="#9ab6a3" d="m 64.078,49.885 h 0.938 l 0.022,0.488 c 0.042,-0.057 0.102,-0.117 0.17,-0.182 0.069,-0.062 0.149,-0.125 0.245,-0.186 0.093,-0.053 0.201,-0.098 0.327,-0.135 0.124,-0.041 0.266,-0.064 0.426,-0.064 0.09,0 0.178,0.01 0.25,0.02 0.078,0.012 0.151,0.027 0.229,0.059 l -0.199,0.92 c -0.064,-0.031 -0.131,-0.047 -0.206,-0.059 -0.064,-0.01 -0.146,-0.02 -0.239,-0.02 -0.134,0 -0.261,0.025 -0.381,0.07 -0.124,0.041 -0.228,0.105 -0.314,0.189 -0.089,0.086 -0.16,0.18 -0.215,0.295 -0.051,0.117 -0.074,0.246 -0.074,0.391 v 2.094 h -0.979 z" id="path874"/>
          <polygon clip-path="url(#SVGID_4_)" fill="#9ab6a3" points="68.467,53.766 67.491,53.766 67.491,48.248 68.467,48.248 68.467,51.258 69.867,49.885 71.015,49.885 69.561,51.316 71.182,53.766 70.015,53.766 68.888,51.98 68.467,52.393 " id="polygon876"/>
          <path clip-path="url(#SVGID_4_)" fill="#9ab6a3" d="m 75.381,53.201 c -0.018,0.02 -0.064,0.064 -0.137,0.143 -0.071,0.068 -0.184,0.148 -0.322,0.232 -0.142,0.082 -0.322,0.156 -0.538,0.227 -0.218,0.064 -0.483,0.097 -0.784,0.097 -0.31,0 -0.59,-0.051 -0.843,-0.158 -0.258,-0.102 -0.475,-0.25 -0.652,-0.436 -0.18,-0.18 -0.317,-0.406 -0.415,-0.66 -0.095,-0.264 -0.143,-0.555 -0.143,-0.865 0,-0.285 0.048,-0.551 0.143,-0.795 0.098,-0.25 0.231,-0.469 0.407,-0.643 0.173,-0.186 0.382,-0.332 0.624,-0.432 0.237,-0.109 0.503,-0.16 0.794,-0.16 0.355,0 0.654,0.068 0.899,0.197 0.247,0.121 0.444,0.297 0.591,0.504 0.149,0.209 0.26,0.449 0.324,0.713 0.066,0.268 0.099,0.535 0.099,0.814 v 0.139 H 72.53 c 0,0.139 0.033,0.273 0.098,0.393 0.059,0.115 0.144,0.213 0.25,0.295 0.098,0.08 0.214,0.145 0.346,0.191 0.131,0.047 0.261,0.064 0.384,0.064 0.191,0 0.353,-0.018 0.492,-0.051 0.14,-0.041 0.264,-0.084 0.36,-0.125 0.101,-0.045 0.181,-0.096 0.245,-0.148 0.064,-0.055 0.111,-0.092 0.143,-0.129 z m -0.954,-1.785 c 0,-0.1 -0.018,-0.199 -0.059,-0.297 -0.039,-0.102 -0.093,-0.188 -0.165,-0.268 -0.078,-0.084 -0.173,-0.148 -0.289,-0.199 -0.113,-0.051 -0.25,-0.082 -0.399,-0.082 -0.158,0 -0.299,0.031 -0.425,0.082 -0.121,0.051 -0.229,0.115 -0.31,0.199 -0.083,0.08 -0.146,0.166 -0.19,0.268 -0.047,0.098 -0.068,0.197 -0.068,0.297 z" id="path878"/>
          <path clip-path="url(#SVGID_4_)" fill="#9ab6a3" d="m 76.423,49.885 h 0.936 l 0.025,0.488 c 0.044,-0.057 0.101,-0.117 0.167,-0.182 0.072,-0.062 0.152,-0.125 0.248,-0.186 0.093,-0.053 0.204,-0.098 0.324,-0.135 0.126,-0.041 0.269,-0.064 0.426,-0.064 0.095,0 0.181,0.01 0.253,0.02 0.077,0.012 0.151,0.027 0.229,0.059 l -0.201,0.92 c -0.064,-0.031 -0.129,-0.047 -0.197,-0.059 -0.073,-0.01 -0.155,-0.02 -0.243,-0.02 -0.136,0 -0.263,0.025 -0.384,0.07 -0.124,0.041 -0.227,0.105 -0.314,0.189 -0.088,0.086 -0.157,0.18 -0.212,0.295 -0.051,0.117 -0.079,0.246 -0.079,0.391 v 2.094 h -0.977 v -3.88 z" id="path880"/>
        </g>
      </g>
      <g id="g886"/>
      <g id="g888"/>
      <g id="g890"/>
      <g id="g892"/>
      <g id="g894"/>
      <g id="g896"/>
    </g>
  </g>
</svg>