<?xml version="1.0" encoding="UTF-8"?>
<!-- Generator: Adobe Illustrator 26.0.1, SVG Export Plug-In . SVG Version: 6.00 Build 0)  -->
<svg version="1.1" id="Ebene_1" xmlns="http://www.w3.org/2000/svg" xmlns:xlink="http://www.w3.org/1999/xlink" x="0px" y="0px" viewBox="0 0 357.2 138.9" style="enable-background:new 0 0 357.2 138.9;" xml:space="preserve">
<style type="text/css">
	.st0{fill:#00655C;stroke:#00655C;stroke-miterlimit:10;}
</style>
<g>
	<g>
		<path class="st0" d="M83.5,58.5h-33v-6.7h40.3c0,11.1-3.9,20.6-11.8,28.5S61.7,92,50.5,92S29.9,88.1,22,80.3S10.2,62.9,10.2,51.8    s4-20.7,11.8-28.5s17.4-11.8,28.5-11.8S71.2,15.4,79,23.2c3.9,4,6.9,8.4,8.9,13.2l-6,3c-1.7-4.2-4.2-8-7.6-11.5    c-6.6-6.5-14.5-9.8-23.8-9.8S33.4,21.5,26.8,28C20.2,34.6,17,42.5,17,51.8s3.3,17.2,9.8,23.7c6.6,6.6,14.5,9.8,23.7,9.8    s17.2-3.3,23.8-9.9C79.2,70.6,82.2,64.9,83.5,58.5z"/>
	</g>
</g>
<g>
	<g>
		<path class="st0" d="M141.8,92c-11.1,0-20.6-3.9-28.5-11.8s-11.8-17.4-11.8-28.5s3.9-20.6,11.8-28.5s17.4-11.8,28.5-11.8    s20.6,3.9,28.5,11.8s11.8,17.4,11.8,28.5s-3.9,20.6-11.8,28.5C162.5,88.1,153,92,141.8,92z M141.8,85.3c9.3,0,17.2-3.3,23.7-9.8    c6.6-6.6,9.8-14.5,9.8-23.7s-3.3-17.2-9.8-23.7c-6.6-6.6-14.5-9.8-23.7-9.8s-17.2,3.3-23.7,9.8c-6.6,6.6-9.8,14.5-9.8,23.7    s3.3,17.2,9.8,23.7C124.6,82,132.6,85.3,141.8,85.3z"/>
	</g>
</g>
<g>
	<g>
		<path class="st0" d="M232.3,92c-11.1,0-20.6-3.9-28.5-11.8S192,62.8,192,51.7s3.9-20.6,11.8-28.5c7.9-7.9,17.4-11.8,28.5-11.8    s20.6,3.9,28.5,11.8c7.9,7.9,11.8,17.4,11.8,28.5s-3.9,20.6-11.8,28.5S243.4,92,232.3,92z M232.3,85.3c9.3,0,17.2-3.3,23.7-9.8    c6.6-6.6,9.8-14.5,9.8-23.7S262.6,34.6,256,28s-14.5-9.8-23.7-9.8s-17.2,3.3-23.7,9.8c-6.6,6.6-9.8,14.5-9.8,23.7    s3.3,17.2,9.8,23.7C215.1,82,223,85.3,232.3,85.3z"/>
	</g>
</g>
<g>
	<g>
		<path class="st0" d="M284.1,83.2L284,51.8h6.5v31.4h16.9c9,0,16.7-3.2,23-9.5c6.4-6.4,9.5-14,9.5-23s-3.2-16.7-9.5-23    c-6.4-6.4-14-9.5-23-9.5h-16.7h-6.5v-6.5h23.3c10.8,0,20,3.8,27.7,11.4c7.6,7.6,11.4,16.8,11.4,27.7s-3.8,20-11.4,27.7    c-7.6,7.6-16.8,11.4-27.7,11.4h-23.3L284.1,83.2"/>
	</g>
</g>
<g>
	<path d="M121.3,126.9l-3.5-4.9c-0.4,0-0.8,0.1-1.2,0.1h-4.1v4.8h-1.6v-15.2h5.7c3.9,0,6.2,2,6.2,5.2c0,2.4-1.3,4.1-3.5,4.8l3.7,5.2   H121.3z M121.2,116.9c0-2.4-1.6-3.8-4.6-3.8h-4v7.6h4C119.6,120.8,121.2,119.3,121.2,116.9z"/>
	<path d="M140.2,125.6v1.4h-10.8v-15.2h10.4v1.4H131v5.4h7.9v1.4H131v5.6C131,125.6,140.2,125.6,140.2,125.6z"/>
	<path d="M145.4,119.3c0-4.5,3.4-7.7,8-7.7c2.2,0,4.2,0.7,5.6,2.2l-1,1c-1.2-1.3-2.8-1.8-4.5-1.8c-3.7,0-6.4,2.7-6.4,6.3   c0,3.6,2.8,6.3,6.4,6.3c1.7,0,3.3-0.5,4.5-1.8l1,1c-1.3,1.5-3.3,2.2-5.6,2.2C148.8,127.1,145.4,123.8,145.4,119.3z"/>
	<path d="M177.9,111.7v15.2h-1.6v-7h-9.5v7h-1.6v-15.2h1.6v6.8h9.5v-6.8H177.9z"/>
	<path d="M188.6,113.1h-5.3v-1.4h12.3v1.4h-5.3v13.8h-1.6L188.6,113.1L188.6,113.1z"/>
	<path d="M199.3,125.1l0.6-1.2c1.1,1.1,3,1.8,5,1.8c2.8,0,4.1-1.2,4.1-2.7c0-4.2-9.4-1.6-9.4-7.2c0-2.2,1.7-4.2,5.6-4.2   c1.7,0,3.5,0.5,4.7,1.3l-0.5,1.3c-1.3-0.8-2.8-1.3-4.2-1.3c-2.8,0-4,1.2-4,2.8c0,4.2,9.4,1.7,9.4,7.2c0,2.2-1.8,4.2-5.7,4.2   C202.6,127.1,200.4,126.3,199.3,125.1z"/>
	<path d="M226.5,122.9H218l-1.8,4.1h-1.7l7-15.2h1.6l7,15.2h-1.7L226.5,122.9z M225.9,121.6l-3.7-8.2l-3.6,8.2H225.9z"/>
	<path d="M248,111.7v15.2h-1.3l-9.8-12.3v12.3h-1.6v-15.2h1.3l9.8,12.3v-12.3H248z"/>
	<path d="M276.5,111.7l-5.1,15.2h-1.7l-4.5-13l-4.5,13H259l-5.1-15.2h1.7l4.4,13.1l4.5-13.1h1.5l4.5,13.1l4.5-13.1H276.5z"/>
	<path d="M291.4,122.9h-8.5l-1.8,4.1h-1.7l7-15.2h1.6l7,15.2h-1.7L291.4,122.9z M290.8,121.6l-3.7-8.2l-3.6,8.2H290.8z M284.3,109.1   c0-0.5,0.4-0.9,0.9-0.9s0.9,0.4,0.9,0.9s-0.4,0.9-0.9,0.9C284.7,110,284.3,109.6,284.3,109.1z M288.2,109.1c0-0.5,0.4-0.9,0.9-0.9   s0.9,0.4,0.9,0.9s-0.4,0.9-0.9,0.9S288.2,109.6,288.2,109.1z"/>
	<path d="M300.2,111.7h1.6v13.8h8.5v1.4h-10.1V111.7z"/>
	<path d="M317.4,113.1h-5.3v-1.4h12.3v1.4H319v13.8h-1.6V113.1z"/>
	<path d="M340.5,125.6v1.4h-10.8v-15.2h10.4v1.4h-8.8v5.4h7.9v1.4h-7.9v5.6C331.3,125.6,340.5,125.6,340.5,125.6z"/>
</g>
</svg>