<?xml version="1.0" encoding="utf-8"?>
<svg id="Ebene_1" data-name="Ebene 1" viewBox="0 0 200.72 68.29" xmlns="http://www.w3.org/2000/svg">
  <defs>
    <style>
      .cls-1, .cls-5 {
        fill: none;
      }

      .cls-2 {
        fill: #c90c0f;
      }

      .cls-3 {
        clip-path: url(#clip-path);
      }

      .cls-4 {
        fill: #1d1d1b;
      }

      .cls-5 {
        stroke: #1d1d1b;
        stroke-miterlimit: 10;
        stroke-width: 0.4px;
      }
    </style>
    <clipPath id="clip-path" transform="translate(-61 -373.6)">
      <rect class="cls-1" x="61" y="373.6" width="200.73" height="68.29"/>
    </clipPath>
  </defs>
  <title>Logo_04</title>
  <rect class="cls-2" width="32.22" height="32.22"/>
  <path class="cls-2" d="M96.39,405.82h14.53V373.6H96.39Zm17.7,0h14.52V373.6H114.09Z" transform="translate(-61 -373.6)"/>
  <rect class="cls-2" y="35.39" width="32.22" height="32.22"/>
  <rect class="cls-2" x="35.39" y="35.39" width="32.22" height="32.22"/>
  <g class="cls-3">
    <path class="cls-4" d="M141.88,395.71h9.24v-2.24h-6.85V374h-2.39Zm0,27.23h9.24v-2.25h-6.85V401.2h-2.39Zm18.9-35.06h-4.41l1.16-5.19c.35-1.5.79-3.52,1.05-5.12.24,1.37.61,3.18,1,5.09Zm1.78,7.83H165L159.84,374h-2.47l-5.15,21.73h2.37l1.29-5.58h5.42Zm-1.78,19.4h-4.41l1.16-5.19c.35-1.51.79-3.52,1.05-5.12.24,1.37.61,3.17,1,5.09Zm1.78,7.83H165l-5.15-21.74h-2.47l-5.15,21.74h2.37l1.29-5.59h5.42ZM178,389.14V374h-2.4v15.16c0,3.1-1.09,4.67-3.25,4.67-1.55,0-3.41-.82-3.41-4.7V374h-2.36v15.19c0,4.37,2.07,6.88,5.68,6.88s5.74-2.52,5.74-6.91m2,12.06-1.73,12.66c-.15,1.07-.33,2.59-.47,3.88-.19-1.44-.5-3.25-.6-3.88L175,401.2h-2l-2.2,12.66s-.46,2.74-.62,3.85c-.13-1.23-.32-2.76-.48-3.85l-1.74-12.66h-2.3l3.32,21.74h2.14L173,412.25c.29-1.53.67-4,.89-5.85.23,1.87.6,4.25.89,5.84l2,10.7h2.2l3.35-21.74Zm11.47-5.49-4.62-11.33,4.25-10.4h-2.51l-1.69,4.38c-.43,1.12-.95,2.52-1.29,3.65-.35-1.16-.9-2.62-1.3-3.65L182.63,374H180l4.26,10.47-4.56,11.09-.07.17h2.54l2.06-5.23c.54-1.37,1-2.64,1.3-3.65.27.92.69,2.12,1.26,3.65l2,5.23Zm-1.2,18.13,5.1-12.64h-2.51L190.69,407c-.52,1.35-1.19,3.16-1.61,4.5-.42-1.32-1.1-3.17-1.6-4.5l-2.12-5.76h-2.6l5.13,12.67v9.07h2.36Zm6.29,9.1h9.79v-2.25h-7.39v-8.22h4.42V410.2h-4.42v-6.76h7V401.2h-9.43ZM213,411h-2.66v-7.59h2.79c2.13,0,3.31,1.34,3.31,3.75S215.24,411,213,411m5.95,11.91-3.4-10.34a5.62,5.62,0,0,0,3.29-5.53c0-3.62-2.15-5.87-5.62-5.87h-5.28v21.74h2.4v-9.73c.92,0,2.33,0,2.76,0l3.22,9.76Zm12.05-4a6.46,6.46,0,0,0,.08-1v0a7.94,7.94,0,0,0-.25-2.05s0-.07,0-.11a6.44,6.44,0,0,0-.72-1.67c-.07-.13-.18-.26-.26-.39a8.93,8.93,0,0,0-.86-1,12.5,12.5,0,0,0-1.17-1.09l-.18-.15c-.36-.28-.66-.58-1.08-.87-2.43-1.71-3.13-2.84-3.27-4.2,0-.13,0-.27,0-.4a1.34,1.34,0,0,1,0-.2,3.5,3.5,0,0,1,.14-1,2.24,2.24,0,0,1,2.25-1.64c1.53,0,2.31.94,3.14,2.57l2.07-1.15c-.9-1.9-2.14-3.67-5.12-3.67a4.73,4.73,0,0,0-4.88,5c0,2.78,1,4.39,4.2,6.64,2.6,1.84,3.66,3.48,3.66,5.67a2.67,2.67,0,0,1-2.86,2.85c-1.42,0-2.4-.92-3.26-3.08l-2.2,1c1,2.89,2.82,4.36,5.4,4.36A5,5,0,0,0,231,419a.28.28,0,0,1,0-.09m14.49-3.81h-4.41l1.16-5.19c.35-1.51.79-3.52,1.05-5.12.24,1.37.6,3.17,1,5.09Zm4.21,7.83-5.15-21.74h-2.47L236.92,423h2.37l1.29-5.59H246l1.26,5.59Zm9.46-1c1.57-1.34,2.34-3.72,2.34-6.64v-3.57h-5.28V414h2.89v1.51c0,3.64-1.13,5.49-3.35,5.49a2.39,2.39,0,0,1-1.56-.58,2.94,2.94,0,0,1-.34-.36c-.08-.09-.16-.17-.23-.26-1-1.44-1.58-4-1.58-7.76,0-4.34.76-7.19,2.12-8.4a2.32,2.32,0,0,1,1.5-.56c1.45,0,2.26.88,3.11,3.38l0,.07,2.21-1c-.1-.29-.23-.53-.34-.79,0-.09-.08-.17-.11-.26a10.52,10.52,0,0,0-.54-1.06,6.43,6.43,0,0,0-.83-1.16l-.08-.06a4.46,4.46,0,0,0-3.38-1.4c-4,0-6.14,4-6.14,11.2s2.15,11.2,6,11.2a5.09,5.09,0,0,0,3.52-1.3" transform="translate(-61 -373.6)"/>
    <path class="cls-4" d="M246.9,431.15h-.05v9h5.61v-.89h-4.59v-3.22h4.06v-.87h-4.06V432h4.53v-.88Zm-9.27,7.13L237,439a4.41,4.41,0,0,0,3.13,1.28h0a2.56,2.56,0,0,0,2.8-2.46v0c0-1.2-.67-1.93-2.5-2.61s-2.1-1.07-2.1-1.86v0a1.37,1.37,0,0,1,1-1.29,2,2,0,0,1,.66-.11,3.24,3.24,0,0,1,2.16.88l0,0,0,0,.58-.75a3.93,3.93,0,0,0-2.7-1h0a2.19,2.19,0,0,0-.27,0,3.74,3.74,0,0,0-.78.13,2.33,2.33,0,0,0-1.67,2.21v0c0,1.27.74,1.94,2.6,2.64,1.63.58,2,1.05,2,1.8h0a1.6,1.6,0,0,1-1.77,1.51,3.55,3.55,0,0,1-2.52-1.11l0,0,0,0M205,430h0v11.68h.79V430H205Zm-17.78,1.14h0v9h1v-4.08h4.34v4.08h1v-9h-1v4h-4.34v-4Zm-10.47,4.48v.08c0,2.74,1.66,4.58,3.89,4.58h0a3.85,3.85,0,0,0,2.86-1.24l-.58-.67h0a3,3,0,0,1-2.21,1c-1.66,0-2.93-1.5-2.93-3.72v-.05a3.7,3.7,0,0,1,1.77-3.42,2.62,2.62,0,0,1,1.15-.26,3,3,0,0,1,2.16.94v0h0l.59-.74a3.92,3.92,0,0,0-4.32-.76,4.47,4.47,0,0,0-2.39,4.27m-5-4.48h0v9h1v-9Zm-9.31.89h2.05c1.35,0,2.17.66,2.17,1.84v0a1.69,1.69,0,0,1-.59,1.36,2.52,2.52,0,0,1-1.68.51h-2Zm-1-.89h0v9h1v-3.5h2.05l2.26,3.5h1.16l-2.42-3.7a3.27,3.27,0,0,0,.86-.33,2.47,2.47,0,0,0,1.28-2.27v0a2.58,2.58,0,0,0-.71-1.86,3.27,3.27,0,0,0-2.37-.83Zm-20.5,0h0V432h4.71l-4.89,7.47v.66H147v-.88h-4.89L147,431.8v-.65Zm10.75,5.62v-5.62h-1v5.65h0a3.19,3.19,0,0,0,1.9,3.27,3.36,3.36,0,0,0,.86.15,3.25,3.25,0,0,0,.45.08h0c1.95,0,3.25-1.24,3.25-3.55v-5.6h-1v5.66c0,1.71-.88,2.6-2.25,2.6s-2.28-.94-2.28-2.64m69.91-3.21a1.5,1.5,0,0,1-1.17,1.52,2.67,2.67,0,0,1-.78.11h-1.94V432h2c1.19,0,1.89.58,1.89,1.5ZM217.76,436h2c1.45,0,2.24.59,2.24,1.6v0c0,1-.83,1.62-2.12,1.62h-2.16Zm4.31-4.12a3.09,3.09,0,0,0-2.23-.77h-3.08v9h3.15c1.89,0,3.14-.9,3.14-2.44v0a2.22,2.22,0,0,0-1.87-2.17,2.13,2.13,0,0,0,1.48-2.09v0a2,2,0,0,0-.59-1.48m9.75,5h-3.37l1.69-4.51Zm1.24,3.25h1l-3.43-9.06h-1l-3.43,9.06h1l.87-2.37h4l.87,2.37Zm28.46,0v-.89h-4.18v-8.12h-1v9h5.2Z" transform="translate(-61 -373.6)"/>
    <path class="cls-5" d="M246.9,431.15h-.05v9h5.61v-.89h-4.59v-3.22h4.06v-.87h-4.06V432h4.53v-.88Zm-9.27,7.13L237,439a4.41,4.41,0,0,0,3.13,1.28h0a2.56,2.56,0,0,0,2.8-2.46v0c0-1.2-.67-1.93-2.5-2.61s-2.1-1.07-2.1-1.86v0a1.37,1.37,0,0,1,1-1.29,2,2,0,0,1,.66-.11,3.24,3.24,0,0,1,2.16.88l0,0,0,0,.58-.75a3.93,3.93,0,0,0-2.7-1h0a2.19,2.19,0,0,0-.27,0,3.74,3.74,0,0,0-.78.13,2.33,2.33,0,0,0-1.67,2.21v0c0,1.27.74,1.94,2.6,2.64,1.63.58,2,1.05,2,1.8h0a1.6,1.6,0,0,1-1.77,1.51,3.55,3.55,0,0,1-2.52-1.11l0,0ZM205,430h0v11.68h.79V430H205Zm-17.78,1.14h0v9h1v-4.08h4.34v4.08h1v-9h-1v4h-4.34v-4Zm-10.47,4.48v.08c0,2.74,1.66,4.58,3.89,4.58h0a3.85,3.85,0,0,0,2.86-1.24l-.58-.67h0a3,3,0,0,1-2.21,1c-1.66,0-2.93-1.5-2.93-3.72v-.05a3.7,3.7,0,0,1,1.77-3.42,2.62,2.62,0,0,1,1.15-.26,3,3,0,0,1,2.16.94v0h0l.59-.74a3.92,3.92,0,0,0-4.32-.76A4.47,4.47,0,0,0,176.79,435.63Zm-5-4.48h0v9h1v-9Zm-9.31.89h2.05c1.35,0,2.17.66,2.17,1.84v0a1.69,1.69,0,0,1-.59,1.36,2.52,2.52,0,0,1-1.68.51h-2Zm-1-.89h0v9h1v-3.5h2.05l2.26,3.5h1.16l-2.42-3.7a3.27,3.27,0,0,0,.86-.33,2.47,2.47,0,0,0,1.28-2.27v0a2.58,2.58,0,0,0-.71-1.86,3.27,3.27,0,0,0-2.37-.83Zm-20.5,0h0V432h4.71l-4.89,7.47v.66H147v-.88h-4.89L147,431.8v-.65Zm10.75,5.62v-5.62h-1v5.65h0a3.19,3.19,0,0,0,1.9,3.27,3.36,3.36,0,0,0,.86.15,3.25,3.25,0,0,0,.45.08h0c1.95,0,3.25-1.24,3.25-3.55v-5.6h-1v5.66c0,1.71-.88,2.6-2.25,2.6S151.74,438.47,151.74,436.77Zm69.91-3.21a1.5,1.5,0,0,1-1.17,1.52,2.67,2.67,0,0,1-.78.11h-1.94V432h2c1.19,0,1.89.58,1.89,1.5ZM217.76,436h2c1.45,0,2.24.59,2.24,1.6v0c0,1-.83,1.62-2.12,1.62h-2.16Zm4.31-4.12a3.09,3.09,0,0,0-2.23-.77h-3.08v9h3.15c1.89,0,3.14-.9,3.14-2.44v0a2.22,2.22,0,0,0-1.87-2.17,2.13,2.13,0,0,0,1.48-2.09v0A2,2,0,0,0,222.07,431.92Zm9.75,5h-3.37l1.69-4.51Zm1.24,3.25h1l-3.43-9.06h-1l-3.43,9.06h1l.87-2.37h4l.87,2.37Zm28.46,0v-.89h-4.18v-8.12h-1v9h5.2Z" transform="translate(-61 -373.6)"/>
  </g>
</svg>