<?xml version="1.0" encoding="utf-8"?>
<svg version="1.1" id="Ebene_1" x="0px" y="0px" viewBox="2.782 -0.087 16.738 9.677" style="enable-background:new 0 0 22.162 14.579;" xmlns="http://www.w3.org/2000/svg">
  <style type="text/css">
	.st0{fill:#FFFFFF;}
	.st1{fill:#020203;}
	.st2{fill:#00973F;}
</style>
  <g>
    <path class="st0" d="M0.988,11.93c0,0.05-0.012,0.099-0.035,0.148c-0.023,0.049-0.056,0.09-0.098,0.124 c-0.046,0.037-0.099,0.065-0.16,0.086c-0.061,0.021-0.135,0.031-0.221,0.031c-0.092,0-0.175-0.009-0.249-0.026 C0.151,12.276,0.076,12.251,0,12.217v-0.213h0.012c0.065,0.054,0.14,0.096,0.225,0.125c0.085,0.029,0.165,0.044,0.239,0.044 c0.106,0,0.188-0.02,0.247-0.059c0.059-0.04,0.088-0.092,0.088-0.158c0-0.057-0.014-0.099-0.042-0.126 c-0.028-0.027-0.07-0.048-0.127-0.063c-0.043-0.011-0.09-0.021-0.14-0.028c-0.05-0.007-0.103-0.017-0.16-0.028 c-0.114-0.024-0.198-0.065-0.253-0.123c-0.055-0.058-0.082-0.134-0.082-0.227c0-0.107,0.045-0.195,0.136-0.264 c0.091-0.069,0.206-0.103,0.345-0.103c0.09,0,0.173,0.009,0.248,0.026c0.075,0.017,0.142,0.038,0.2,0.064v0.201H0.924 c-0.049-0.041-0.113-0.076-0.192-0.103c-0.079-0.027-0.161-0.041-0.244-0.041c-0.091,0-0.164,0.019-0.22,0.057 c-0.055,0.038-0.083,0.087-0.083,0.146c0,0.053,0.014,0.095,0.041,0.125c0.028,0.031,0.076,0.054,0.145,0.07 c0.037,0.008,0.089,0.018,0.157,0.029S0.653,11.59,0.7,11.602c0.095,0.025,0.167,0.063,0.215,0.115 C0.963,11.767,0.988,11.839,0.988,11.93z"/>
    <path class="st0" d="M1.747,12.287c-0.03,0.008-0.064,0.015-0.099,0.02c-0.036,0.005-0.068,0.008-0.096,0.008 c-0.098,0-0.173-0.026-0.224-0.079c-0.051-0.053-0.077-0.137-0.077-0.254v-0.511H1.142v-0.136h0.109v-0.276h0.162v0.276h0.334 v0.136H1.413v0.438c0,0.05,0.001,0.09,0.003,0.118c0.002,0.028,0.01,0.055,0.024,0.08c0.013,0.023,0.03,0.04,0.052,0.05 c0.022,0.011,0.056,0.016,0.101,0.016c0.026,0,0.054-0.004,0.083-0.011c0.029-0.008,0.049-0.014,0.062-0.019h0.009V12.287z"/>
    <path class="st0" d="M2.206,12.296H2.001v-0.245h0.206V12.296z"/>
    <path class="st0" d="M3.665,12.201c-0.07,0.032-0.146,0.06-0.229,0.084c-0.083,0.024-0.163,0.036-0.24,0.036 c-0.1,0-0.191-0.014-0.274-0.041c-0.083-0.028-0.154-0.069-0.212-0.124c-0.059-0.055-0.105-0.125-0.137-0.209 c-0.032-0.083-0.048-0.181-0.048-0.293c0-0.205,0.06-0.366,0.179-0.485c0.119-0.118,0.284-0.178,0.492-0.178 c0.073,0,0.147,0.009,0.223,0.026c0.076,0.018,0.158,0.047,0.246,0.089v0.202H3.648c-0.018-0.014-0.044-0.032-0.077-0.054 c-0.034-0.022-0.067-0.041-0.1-0.056c-0.04-0.018-0.084-0.032-0.135-0.044c-0.05-0.012-0.107-0.018-0.171-0.018 c-0.143,0-0.257,0.046-0.34,0.138C2.742,11.367,2.7,11.492,2.7,11.649c0,0.166,0.044,0.295,0.131,0.387 c0.087,0.092,0.206,0.138,0.356,0.138c0.055,0,0.11-0.005,0.165-0.016c0.055-0.011,0.103-0.025,0.144-0.042v-0.314H3.153v-0.149 h0.512V12.201z"/>
    <path class="st0" d="M4.696,12.296H4.535v-0.102c-0.014,0.01-0.034,0.024-0.058,0.041c-0.024,0.018-0.048,0.031-0.071,0.042 c-0.027,0.013-0.058,0.024-0.093,0.033c-0.035,0.009-0.076,0.013-0.123,0.013c-0.087,0-0.16-0.029-0.22-0.086 c-0.06-0.057-0.09-0.131-0.09-0.219c0-0.073,0.016-0.132,0.047-0.177c0.031-0.045,0.076-0.08,0.134-0.106 c0.058-0.026,0.129-0.043,0.211-0.053c0.082-0.009,0.17-0.016,0.264-0.021v-0.025c0-0.037-0.006-0.067-0.019-0.091 c-0.013-0.024-0.031-0.043-0.056-0.057c-0.023-0.013-0.05-0.022-0.083-0.027c-0.032-0.005-0.066-0.007-0.101-0.007 c-0.042,0-0.09,0.006-0.142,0.017c-0.052,0.011-0.106,0.027-0.162,0.049H3.965v-0.164c0.032-0.009,0.077-0.018,0.137-0.028 c0.06-0.01,0.118-0.015,0.176-0.015c0.068,0,0.127,0.006,0.177,0.017c0.05,0.011,0.094,0.03,0.13,0.057 c0.036,0.026,0.064,0.061,0.083,0.102c0.019,0.042,0.028,0.094,0.028,0.156V12.296z M4.535,12.059v-0.267 c-0.049,0.003-0.107,0.007-0.174,0.013c-0.067,0.006-0.12,0.014-0.159,0.025c-0.046,0.013-0.084,0.034-0.113,0.062 c-0.029,0.028-0.043,0.066-0.043,0.115c0,0.055,0.017,0.096,0.05,0.124c0.033,0.028,0.084,0.042,0.152,0.042 c0.057,0,0.109-0.011,0.156-0.033C4.451,12.117,4.495,12.09,4.535,12.059z"/>
    <path class="st0" d="M5.171,12.296H5.009v-1.339h0.162V12.296z"/>
    <path class="st0" d="M5.654,12.296H5.493v-1.339h0.162V12.296z"/>
    <path class="st0" d="M6.779,11.832H6.071c0,0.059,0.009,0.111,0.027,0.154c0.018,0.044,0.042,0.08,0.073,0.108 c0.03,0.028,0.065,0.048,0.106,0.062c0.041,0.014,0.086,0.021,0.136,0.021c0.065,0,0.131-0.013,0.197-0.039 c0.066-0.026,0.113-0.052,0.141-0.077H6.76v0.176c-0.054,0.023-0.11,0.042-0.167,0.058c-0.057,0.015-0.116,0.023-0.179,0.023 c-0.159,0-0.284-0.043-0.373-0.129c-0.089-0.086-0.134-0.209-0.134-0.368c0-0.157,0.043-0.282,0.129-0.374 c0.086-0.092,0.199-0.138,0.338-0.138c0.13,0,0.229,0.038,0.3,0.114c0.07,0.076,0.105,0.183,0.105,0.323V11.832z M6.621,11.708 c-0.001-0.085-0.022-0.15-0.064-0.197c-0.042-0.046-0.106-0.07-0.192-0.07c-0.087,0-0.156,0.025-0.207,0.076 c-0.051,0.051-0.08,0.114-0.087,0.19H6.621z"/>
    <path class="st0" d="M7.623,11.511H7.615c-0.024-0.006-0.048-0.01-0.07-0.012c-0.023-0.003-0.049-0.004-0.08-0.004 c-0.05,0-0.098,0.011-0.145,0.033c-0.046,0.022-0.091,0.051-0.134,0.086v0.682H7.024v-0.961h0.162v0.142 c0.064-0.052,0.121-0.088,0.17-0.11c0.049-0.021,0.099-0.032,0.15-0.032c0.028,0,0.048,0.001,0.061,0.002 c0.013,0.001,0.032,0.004,0.057,0.008V11.511z"/>
    <path class="st0" d="M9.418,12.296H9.236l-0.126-0.357H8.557l-0.126,0.357H8.258l0.466-1.281h0.227L9.418,12.296z M9.058,11.793 l-0.225-0.629l-0.225,0.629H9.058z"/>
    <path class="st0" d="M10.403,12.296h-0.162v-0.547c0-0.044-0.003-0.086-0.008-0.124c-0.005-0.039-0.015-0.069-0.028-0.091 c-0.014-0.024-0.035-0.042-0.062-0.054c-0.027-0.012-0.062-0.018-0.105-0.018c-0.044,0-0.09,0.011-0.138,0.032 c-0.048,0.022-0.094,0.05-0.138,0.084v0.717H9.599v-0.961h0.162v0.107c0.05-0.042,0.103-0.075,0.157-0.098 c0.054-0.023,0.109-0.035,0.166-0.035c0.104,0,0.183,0.031,0.237,0.094c0.054,0.063,0.082,0.153,0.082,0.27V12.296z"/>
    <path class="st0" d="M11.914,11.335l-0.25,0.961h-0.15l-0.247-0.741l-0.245,0.741h-0.149l-0.253-0.961h0.169l0.176,0.744 l0.24-0.744h0.133l0.246,0.744l0.167-0.744H11.914z"/>
    <path class="st0" d="M12.877,12.296h-0.161v-0.102c-0.014,0.01-0.034,0.024-0.058,0.041c-0.024,0.018-0.048,0.031-0.071,0.042 c-0.027,0.013-0.058,0.024-0.093,0.033c-0.035,0.009-0.076,0.013-0.123,0.013c-0.087,0-0.16-0.029-0.22-0.086 c-0.06-0.057-0.09-0.131-0.09-0.219c0-0.073,0.016-0.132,0.047-0.177c0.031-0.045,0.076-0.08,0.134-0.106 c0.058-0.026,0.129-0.043,0.211-0.053c0.082-0.009,0.17-0.016,0.264-0.021v-0.025c0-0.037-0.006-0.067-0.019-0.091 c-0.013-0.024-0.031-0.043-0.056-0.057c-0.023-0.013-0.05-0.022-0.083-0.027c-0.032-0.005-0.066-0.007-0.101-0.007 c-0.042,0-0.09,0.006-0.142,0.017c-0.052,0.011-0.106,0.027-0.162,0.049h-0.009v-0.164c0.032-0.009,0.077-0.018,0.137-0.028 c0.06-0.01,0.118-0.015,0.176-0.015c0.068,0,0.127,0.006,0.177,0.017c0.05,0.011,0.094,0.03,0.13,0.057 c0.036,0.026,0.064,0.061,0.083,0.102c0.019,0.042,0.028,0.094,0.028,0.156V12.296z M12.716,12.059v-0.267 c-0.049,0.003-0.107,0.007-0.174,0.013c-0.067,0.006-0.12,0.014-0.159,0.025c-0.046,0.013-0.084,0.034-0.113,0.062 c-0.029,0.028-0.043,0.066-0.043,0.115c0,0.055,0.017,0.096,0.05,0.124c0.033,0.028,0.084,0.042,0.152,0.042 c0.057,0,0.109-0.011,0.156-0.033C12.632,12.117,12.676,12.09,12.716,12.059z"/>
    <path class="st0" d="M13.352,12.296H13.19v-1.339h0.162V12.296z"/>
    <path class="st0" d="M14.171,12.287c-0.03,0.008-0.063,0.015-0.099,0.02c-0.036,0.005-0.068,0.008-0.096,0.008 c-0.098,0-0.173-0.026-0.224-0.079c-0.051-0.053-0.077-0.137-0.077-0.254v-0.511h-0.109v-0.136h0.109v-0.276h0.162v0.276h0.334 v0.136h-0.334v0.438c0,0.05,0.001,0.09,0.003,0.118c0.002,0.028,0.01,0.055,0.024,0.08c0.013,0.023,0.03,0.04,0.052,0.05 c0.022,0.011,0.056,0.016,0.101,0.016c0.026,0,0.054-0.004,0.083-0.011c0.028-0.008,0.049-0.014,0.062-0.019h0.008V12.287z"/>
    <path class="st0" d="M15.052,12.019c0,0.088-0.036,0.16-0.109,0.216c-0.072,0.056-0.172,0.084-0.297,0.084 c-0.071,0-0.136-0.009-0.196-0.025c-0.059-0.017-0.109-0.035-0.149-0.056v-0.181h0.009c0.051,0.038,0.108,0.069,0.17,0.092 c0.063,0.023,0.122,0.034,0.18,0.034c0.071,0,0.127-0.011,0.167-0.034s0.06-0.059,0.06-0.108c0-0.038-0.011-0.067-0.033-0.086 c-0.022-0.019-0.063-0.036-0.125-0.05c-0.023-0.005-0.053-0.011-0.09-0.018c-0.037-0.007-0.071-0.014-0.101-0.023 c-0.084-0.022-0.144-0.055-0.179-0.098c-0.035-0.043-0.053-0.096-0.053-0.16c0-0.039,0.008-0.077,0.024-0.112 c0.016-0.035,0.041-0.066,0.074-0.094c0.032-0.027,0.073-0.048,0.123-0.064c0.05-0.016,0.105-0.024,0.167-0.024 c0.057,0,0.115,0.007,0.174,0.021c0.059,0.014,0.108,0.031,0.147,0.051v0.173h-0.009c-0.041-0.03-0.091-0.056-0.15-0.077 c-0.059-0.021-0.117-0.031-0.174-0.031c-0.059,0-0.109,0.011-0.15,0.034c-0.041,0.023-0.061,0.056-0.061,0.101 c0,0.04,0.012,0.069,0.037,0.089c0.024,0.02,0.063,0.037,0.117,0.049c0.03,0.007,0.063,0.014,0.1,0.021 c0.037,0.007,0.068,0.013,0.093,0.019c0.075,0.017,0.133,0.047,0.174,0.089C15.032,11.893,15.052,11.949,15.052,12.019z"/>
    <path class="st0" d="M16.115,11.335l-0.389,0.961h-0.163l-0.386-0.961h0.175L15.65,12.1l0.295-0.765H16.115z"/>
    <path class="st0" d="M17.115,11.832h-0.708c0,0.059,0.009,0.111,0.027,0.154c0.018,0.044,0.042,0.08,0.073,0.108 c0.03,0.028,0.065,0.048,0.106,0.062c0.041,0.014,0.086,0.021,0.136,0.021c0.065,0,0.131-0.013,0.197-0.039 c0.066-0.026,0.113-0.052,0.141-0.077h0.009v0.176c-0.054,0.023-0.11,0.042-0.167,0.058c-0.057,0.015-0.116,0.023-0.179,0.023 c-0.159,0-0.284-0.043-0.373-0.129c-0.089-0.086-0.134-0.209-0.134-0.368c0-0.157,0.043-0.282,0.129-0.374 c0.086-0.092,0.198-0.138,0.338-0.138c0.13,0,0.23,0.038,0.3,0.114c0.07,0.076,0.105,0.183,0.105,0.323V11.832z M16.958,11.708 c-0.001-0.085-0.022-0.15-0.064-0.197c-0.042-0.046-0.106-0.07-0.192-0.07c-0.087,0-0.156,0.025-0.207,0.076 c-0.051,0.051-0.08,0.114-0.087,0.19H16.958z"/>
    <path class="st0" d="M17.96,11.511h-0.009c-0.024-0.006-0.047-0.01-0.07-0.012c-0.023-0.003-0.05-0.004-0.08-0.004 c-0.05,0-0.098,0.011-0.145,0.033c-0.046,0.022-0.091,0.051-0.134,0.086v0.682H17.36v-0.961h0.162v0.142 c0.064-0.052,0.121-0.088,0.17-0.11c0.049-0.021,0.099-0.032,0.15-0.032c0.028,0,0.049,0.001,0.061,0.002 c0.013,0.001,0.032,0.004,0.057,0.008V11.511z"/>
    <path class="st0" d="M18.958,11.808c0,0.08-0.011,0.153-0.034,0.217c-0.023,0.064-0.053,0.118-0.092,0.162 c-0.041,0.045-0.085,0.079-0.134,0.102c-0.049,0.023-0.102,0.034-0.161,0.034c-0.055,0-0.102-0.006-0.143-0.019 c-0.041-0.013-0.081-0.03-0.12-0.052l-0.01,0.045h-0.151v-1.339h0.162v0.478c0.045-0.037,0.093-0.068,0.145-0.092 c0.051-0.024,0.109-0.036,0.172-0.036c0.114,0,0.203,0.044,0.269,0.131C18.925,11.526,18.958,11.649,18.958,11.808z M18.791,11.812 c0-0.115-0.019-0.202-0.057-0.261c-0.038-0.059-0.099-0.089-0.183-0.089c-0.047,0-0.095,0.01-0.143,0.03 c-0.048,0.02-0.093,0.047-0.134,0.079v0.551c0.046,0.021,0.085,0.035,0.118,0.043c0.033,0.008,0.07,0.012,0.112,0.012 c0.089,0,0.16-0.029,0.21-0.088C18.765,12.03,18.791,11.938,18.791,11.812z"/>
    <path class="st0" d="M19.956,12.296h-0.161v-0.102c-0.014,0.01-0.034,0.024-0.058,0.041c-0.024,0.018-0.048,0.031-0.071,0.042 c-0.027,0.013-0.058,0.024-0.093,0.033c-0.035,0.009-0.076,0.013-0.123,0.013c-0.087,0-0.16-0.029-0.22-0.086 c-0.06-0.057-0.09-0.131-0.09-0.219c0-0.073,0.016-0.132,0.047-0.177c0.031-0.045,0.076-0.08,0.134-0.106 c0.058-0.026,0.129-0.043,0.211-0.053c0.082-0.009,0.17-0.016,0.264-0.021v-0.025c0-0.037-0.007-0.067-0.019-0.091 c-0.013-0.024-0.031-0.043-0.055-0.057c-0.023-0.013-0.051-0.022-0.083-0.027c-0.032-0.005-0.066-0.007-0.101-0.007 c-0.042,0-0.09,0.006-0.142,0.017c-0.052,0.011-0.106,0.027-0.162,0.049h-0.008v-0.164c0.031-0.009,0.077-0.018,0.137-0.028 c0.06-0.01,0.118-0.015,0.176-0.015c0.067,0,0.127,0.006,0.177,0.017c0.05,0.011,0.094,0.03,0.13,0.057 c0.036,0.026,0.064,0.061,0.083,0.102c0.019,0.042,0.028,0.094,0.028,0.156V12.296z M19.796,12.059v-0.267 c-0.049,0.003-0.107,0.007-0.174,0.013c-0.067,0.006-0.12,0.014-0.159,0.025c-0.047,0.013-0.084,0.034-0.113,0.062 c-0.029,0.028-0.043,0.066-0.043,0.115c0,0.055,0.017,0.096,0.05,0.124c0.033,0.028,0.084,0.042,0.152,0.042 c0.057,0,0.109-0.011,0.156-0.033C19.712,12.117,19.755,12.09,19.796,12.059z"/>
    <path class="st0" d="M21.071,12.296H20.91v-0.547c0-0.044-0.003-0.086-0.008-0.124c-0.005-0.039-0.015-0.069-0.028-0.091 c-0.014-0.024-0.035-0.042-0.062-0.054c-0.027-0.012-0.062-0.018-0.105-0.018c-0.044,0-0.09,0.011-0.139,0.032 c-0.048,0.022-0.094,0.05-0.139,0.084v0.717h-0.162v-0.961h0.162v0.107c0.05-0.042,0.103-0.075,0.157-0.098 c0.054-0.023,0.109-0.035,0.166-0.035c0.104,0,0.183,0.031,0.237,0.094c0.054,0.063,0.082,0.153,0.082,0.27V12.296z"/>
    <path class="st0" d="M22.162,12.296H22v-0.101c-0.047,0.04-0.095,0.071-0.145,0.094c-0.05,0.022-0.105,0.034-0.164,0.034 c-0.115,0-0.206-0.044-0.273-0.133c-0.067-0.088-0.101-0.211-0.101-0.367c0-0.081,0.012-0.154,0.035-0.218 c0.023-0.063,0.055-0.118,0.094-0.162c0.039-0.044,0.084-0.077,0.136-0.1c0.052-0.023,0.106-0.034,0.161-0.034 c0.05,0,0.095,0.005,0.134,0.016c0.039,0.011,0.08,0.027,0.123,0.05v-0.416h0.162V12.296z M22,12.059v-0.551 c-0.044-0.019-0.083-0.033-0.117-0.041c-0.034-0.007-0.072-0.011-0.113-0.011c-0.091,0-0.161,0.032-0.212,0.095 s-0.076,0.153-0.076,0.268c0,0.114,0.019,0.201,0.058,0.26c0.039,0.059,0.102,0.089,0.188,0.089c0.046,0,0.092-0.01,0.139-0.031 C21.916,12.118,21.96,12.091,22,12.059z"/>
    <path class="st0" d="M9.742,14.188c0,0.05-0.012,0.099-0.035,0.148c-0.023,0.049-0.056,0.09-0.098,0.124 c-0.046,0.037-0.099,0.065-0.16,0.086c-0.061,0.021-0.135,0.031-0.221,0.031c-0.092,0-0.175-0.009-0.249-0.026 c-0.074-0.017-0.149-0.043-0.225-0.076v-0.213h0.012c0.065,0.054,0.14,0.096,0.225,0.125c0.085,0.029,0.165,0.044,0.239,0.044 c0.106,0,0.188-0.02,0.247-0.059c0.059-0.04,0.088-0.092,0.088-0.158c0-0.057-0.014-0.099-0.042-0.126 c-0.028-0.027-0.07-0.048-0.127-0.063c-0.043-0.011-0.09-0.021-0.14-0.028c-0.05-0.007-0.103-0.017-0.16-0.028 c-0.114-0.024-0.198-0.065-0.253-0.123c-0.055-0.058-0.082-0.134-0.082-0.227c0-0.107,0.045-0.195,0.136-0.264 c0.091-0.069,0.206-0.103,0.345-0.103c0.09,0,0.173,0.009,0.248,0.026s0.142,0.038,0.2,0.064v0.201H9.678 c-0.049-0.041-0.113-0.076-0.192-0.103c-0.079-0.027-0.161-0.041-0.244-0.041c-0.091,0-0.164,0.019-0.22,0.057 C8.967,13.491,8.939,13.54,8.939,13.6c0,0.053,0.014,0.095,0.041,0.125c0.028,0.031,0.076,0.054,0.145,0.07 c0.037,0.008,0.089,0.018,0.157,0.029c0.068,0.011,0.125,0.023,0.172,0.035c0.095,0.025,0.167,0.063,0.215,0.115 C9.718,14.025,9.742,14.097,9.742,14.188z"/>
    <path class="st0" d="M11.084,14.459c-0.07,0.032-0.146,0.06-0.229,0.084c-0.083,0.024-0.163,0.036-0.24,0.036 c-0.1,0-0.191-0.014-0.274-0.041c-0.083-0.028-0.154-0.069-0.212-0.124c-0.059-0.055-0.105-0.125-0.137-0.209 c-0.032-0.083-0.048-0.181-0.048-0.293c0-0.205,0.06-0.366,0.179-0.485c0.119-0.118,0.284-0.178,0.492-0.178 c0.073,0,0.147,0.009,0.223,0.026c0.076,0.018,0.158,0.047,0.246,0.089v0.202h-0.015c-0.018-0.014-0.044-0.032-0.077-0.054 c-0.034-0.022-0.067-0.041-0.1-0.056c-0.04-0.018-0.084-0.032-0.135-0.044c-0.05-0.012-0.107-0.018-0.171-0.018 c-0.143,0-0.257,0.046-0.34,0.138c-0.083,0.092-0.125,0.217-0.125,0.374c0,0.166,0.044,0.295,0.131,0.387 c0.087,0.092,0.206,0.138,0.356,0.138c0.055,0,0.11-0.005,0.165-0.016c0.055-0.011,0.103-0.025,0.144-0.042v-0.314h-0.343V13.91 h0.512V14.459z"/>
    <path class="st0" d="M12.392,14.554H12.21l-0.126-0.357H11.53l-0.126,0.357h-0.173l0.466-1.281h0.227L12.392,14.554z M12.032,14.051l-0.225-0.629l-0.225,0.629H12.032z"/>
    <path class="st0" d="M13.544,13.273l-0.466,1.281h-0.227l-0.466-1.281h0.182l0.402,1.127l0.402-1.127H13.544z"/>
  </g>
  <g>
    <polygon class="st1" points="9.226,0.68 4.14,9.49 14.313,9.49 19.4,0.68 &#9;"/>
    <polygon class="st2" points="13.847,8.81 18.934,0 8.761,0 &#9;"/>
    <polygon class="st2" points="7.931,0 2.845,8.81 13.018,8.81 &#9;"/>
  </g>
  <path class="st0" d="M10.523,4.488L8.027,8.81h0.889l0.526-0.911h2.15V7.882l0.536,0.928h0.889L10.523,4.488z M9.862,7.171 l0.66-1.143l0.66,1.143H9.862z"/>
  <polygon id="V_1_" class="st0" points="15.431,4.488 13.847,7.231 12.264,4.488 11.352,4.488 13.847,8.81 16.343,4.488 "/>
</svg>