<svg id="Ebene_1" data-name="Ebene 1" xmlns="http://www.w3.org/2000/svg" width="7.82mm" height="5.14mm" viewBox="0 0 22.16 14.58">
  <defs>
    <style>
      .cls-1 {
        fill: #020203;
      }

      .cls-2 {
        fill: #00973f;
      }

      .cls-3 {
        fill: #fff;
      }
    </style>
  </defs>
  <title>sponsor14new</title>
  <g>
    <path d="M1,11.93a.28.28,0,0,1,0,.15.23.23,0,0,1-.1.12.35.35,0,0,1-.16.09.69.69,0,0,1-.22,0,1,1,0,0,1-.25,0A1.11,1.11,0,0,1,0,12.22V12H0a.65.65,0,0,0,.23.13.67.67,0,0,0,.24,0,.43.43,0,0,0,.24-.06A.18.18,0,0,0,.81,12a.17.17,0,0,0,0-.13.23.23,0,0,0-.13-.06l-.14,0-.16,0a.42.42,0,0,1-.25-.12A.31.31,0,0,1,0,11.36a.3.3,0,0,1,.13-.26A.56.56,0,0,1,.49,11a1,1,0,0,1,.25,0l.2.06v.21h0a.43.43,0,0,0-.19-.11,1,1,0,0,0-.24,0,.36.36,0,0,0-.22.06.17.17,0,0,0,0,.27.26.26,0,0,0,.14.07l.16,0,.17,0a.47.47,0,0,1,.21.12A.29.29,0,0,1,1,11.93Z" transform="translate(0 0)"/>
    <path d="M1.75,12.29l-.1,0h-.1a.29.29,0,0,1-.22-.08A.38.38,0,0,1,1.25,12v-.51H1.14v-.13h.11v-.28h.16v.28h.34v.13H1.41v.44a.41.41,0,0,0,0,.12.24.24,0,0,0,0,.08.12.12,0,0,0,.05.05h.19l.06,0h0Z" transform="translate(0 0)"/>
    <path d="M2.21,12.3H2v-.25h.21v.25Z" transform="translate(0 0)"/>
    <path d="M3.66,12.2l-.22.09-.24,0a.82.82,0,0,1-.28,0,.72.72,0,0,1-.21-.12A.77.77,0,0,1,2.57,12a.9.9,0,0,1,0-.3.65.65,0,0,1,.18-.48A.68.68,0,0,1,3.2,11l.22,0a.89.89,0,0,1,.24.09v.2h0l-.08-.06-.1-.05-.13,0H3.17a.42.42,0,0,0-.34.13.53.53,0,0,0-.13.38.54.54,0,0,0,.13.39.48.48,0,0,0,.36.13h.16l.15,0V11.8H3.15v-.15h.52Z" transform="translate(0 0)"/>
    <path d="M4.7,12.3H4.53v-.11l0,.05-.07,0-.1,0H4.19A.33.33,0,0,1,4,12.24.29.29,0,0,1,3.88,12a.35.35,0,0,1,.05-.18.27.27,0,0,1,.13-.1.65.65,0,0,1,.21-.06l.27,0v0a.2.2,0,0,0,0-.09s0-.05-.06-.06l-.08,0h-.1l-.15,0-.16,0H4v-.16l.14,0,.18,0,.17,0a.3.3,0,0,1,.14.06.27.27,0,0,1,.08.1.35.35,0,0,1,0,.16Zm-.17-.24v-.27l-.17,0-.16,0a.24.24,0,0,0-.11.06.16.16,0,0,0,0,.12.13.13,0,0,0,0,.12.21.21,0,0,0,.15,0,.33.33,0,0,0,.15,0A.57.57,0,0,0,4.53,12.06Z" transform="translate(0 0)"/>
    <path d="M5.17,12.3H5V11h.16Z" transform="translate(0 0)"/>
    <path d="M5.65,12.3H5.49V11h.17V12.3Z" transform="translate(0 0)"/>
    <path d="M6.78,11.83H6.07a.41.41,0,0,0,0,.16.26.26,0,0,0,.07.1.41.41,0,0,0,.11.07l.13,0a.71.71,0,0,0,.2,0,.43.43,0,0,0,.14-.08h0v.18l-.17.06-.18,0A.51.51,0,0,1,6,12.19a.59.59,0,0,1,0-.74.44.44,0,0,1,.33-.14.41.41,0,0,1,.3.11.49.49,0,0,1,.11.33Zm-.16-.12a.23.23,0,0,0-.26-.27.28.28,0,0,0-.2.08.31.31,0,0,0-.09.19Z" transform="translate(0 0)"/>
    <path d="M7.62,11.51H7.46a.35.35,0,0,0-.14,0,.57.57,0,0,0-.13.08v.69H7v-1h.17v.14a.69.69,0,0,1,.17-.11l.15,0h.11v.16Z" transform="translate(0 0)"/>
    <path d="M9.42,12.3H9.24l-.13-.36H8.56l-.13.36H8.26L8.72,11H9Zm-.36-.51-.23-.63-.22.63Z" transform="translate(0 0)"/>
    <path d="M10.4,12.3h-.16v-.55a.45.45,0,0,0,0-.12.17.17,0,0,0,0-.1.1.1,0,0,0-.06,0l-.1,0a.35.35,0,0,0-.14,0l-.14.09v.72H9.6v-1h.16v.11l.16-.1a.45.45,0,0,1,.16,0,.3.3,0,0,1,.24.09.4.4,0,0,1,.08.27Z" transform="translate(0 0)"/>
    <path d="M11.91,11.34l-.25,1h-.15l-.24-.74L11,12.3h-.15l-.25-1h.17l.17.74.24-.74h.14l.24.74.17-.74Z" transform="translate(0 0)"/>
    <path d="M12.88,12.3h-.16v-.11l-.06.05-.07,0-.1,0h-.12a.33.33,0,0,1-.22-.08.29.29,0,0,1-.09-.22.35.35,0,0,1,0-.18.27.27,0,0,1,.13-.1.65.65,0,0,1,.21-.06l.27,0v0a.2.2,0,0,0,0-.09s0-.05-.06-.06l-.08,0h-.1l-.14,0-.17,0h0v-.16l.14,0,.18,0,.17,0a.26.26,0,0,1,.13.06.22.22,0,0,1,.09.1.35.35,0,0,1,0,.16v.65Zm-.16-.24v-.27l-.18,0-.16,0a.24.24,0,0,0-.11.06.16.16,0,0,0,0,.12.13.13,0,0,0,0,.12.21.21,0,0,0,.15,0,.41.41,0,0,0,.16,0Z" transform="translate(0 0)"/>
    <path d="M13.35,12.3h-.16V11h.16Z" transform="translate(0 0)"/>
    <path d="M14.17,12.29l-.1,0H14a.32.32,0,0,1-.23-.08.38.38,0,0,1-.07-.26v-.51h-.11v-.13h.11v-.28h.16v.28h.33v.13h-.33V12a.24.24,0,0,0,0,.08s0,0,.06.05h.18l.06,0h0v.15Z" transform="translate(0 0)"/>
    <path d="M15.05,12a.25.25,0,0,1-.11.22.5.5,0,0,1-.29.08.6.6,0,0,1-.2,0l-.15,0v-.18h0a.56.56,0,0,0,.17.09l.18,0a.4.4,0,0,0,.17,0,.11.11,0,0,0,.06-.11s0-.07,0-.08a.23.23,0,0,0-.12-.05l-.09,0-.1,0a.3.3,0,0,1-.18-.09.24.24,0,0,1,0-.16.25.25,0,0,1,0-.12l.07-.09a.31.31,0,0,1,.13-.06.41.41,0,0,1,.16,0l.18,0,.15.05v.18h0a.53.53,0,0,0-.15-.08l-.18,0a.33.33,0,0,0-.15,0,.12.12,0,0,0-.06.1.1.1,0,0,0,0,.09.23.23,0,0,0,.12.05l.1,0,.09,0a.39.39,0,0,1,.17.09A.24.24,0,0,1,15.05,12Z" transform="translate(0 0)"/>
    <path d="M16.11,11.34l-.38,1h-.17l-.38-1h.17l.3.76.29-.76Z" transform="translate(0 0)"/>
    <path d="M17.11,11.83h-.7a.78.78,0,0,0,0,.16.27.27,0,0,0,.08.1l.1.07.14,0a.79.79,0,0,0,.2,0,.58.58,0,0,0,.14-.08h0v.18l-.17.06-.18,0a.49.49,0,0,1-.37-.13.5.5,0,0,1-.14-.37.54.54,0,0,1,.13-.37.46.46,0,0,1,.34-.14.41.41,0,0,1,.3.11.48.48,0,0,1,.1.33ZM17,11.71a.24.24,0,0,0-.26-.27.28.28,0,0,0-.2.08.26.26,0,0,0-.09.19Z" transform="translate(0 0)"/>
    <path d="M18,11.51H17.8a.32.32,0,0,0-.14,0l-.14.08v.69h-.16v-1h.16v.14a.94.94,0,0,1,.17-.11l.15,0H18Z" transform="translate(0 0)"/>
    <path d="M19,11.81a.54.54,0,0,1,0,.22.51.51,0,0,1-.09.16.35.35,0,0,1-.29.13.36.36,0,0,1-.15,0l-.12-.05v.05h-.15V11h.17v.48a.71.71,0,0,1,.14-.1.47.47,0,0,1,.17,0,.3.3,0,0,1,.27.13A.65.65,0,0,1,19,11.81Zm-.17,0a.48.48,0,0,0-.06-.26.18.18,0,0,0-.18-.09.35.35,0,0,0-.14,0l-.14.08v.55l.12.05h.11a.26.26,0,0,0,.21-.09A.43.43,0,0,0,18.79,11.81Z" transform="translate(0 0)"/>
    <path d="M20,12.3H19.8v-.11l-.06.05-.07,0-.1,0h-.12a.33.33,0,0,1-.22-.08.29.29,0,0,1-.09-.22.35.35,0,0,1,.05-.18.27.27,0,0,1,.13-.1.65.65,0,0,1,.21-.06l.27,0v0a.2.2,0,0,0,0-.09s0-.05-.06-.06l-.08,0h-.1l-.14,0-.17,0h0v-.16l.13,0,.18,0,.18,0a.31.31,0,0,1,.13.06.27.27,0,0,1,.08.1.35.35,0,0,1,0,.16v.65Zm-.16-.24v-.27l-.18,0-.16,0a.24.24,0,0,0-.11.06.16.16,0,0,0,0,.12.13.13,0,0,0,.05.12.21.21,0,0,0,.15,0,.33.33,0,0,0,.15,0Z" transform="translate(0 0)"/>
    <path d="M21.07,12.3h-.16v-.55a.45.45,0,0,0,0-.12.17.17,0,0,0,0-.1.1.1,0,0,0-.06,0l-.1,0a.35.35,0,0,0-.14,0,.67.67,0,0,0-.14.09v.72h-.16v-1h.16v.11l.16-.1a.41.41,0,0,1,.16,0,.3.3,0,0,1,.24.09.46.46,0,0,1,.08.27Z" transform="translate(0 0)"/>
    <path d="M22.16,12.3H22v-.1a.46.46,0,0,1-.15.09.38.38,0,0,1-.16,0,.32.32,0,0,1-.27-.13.58.58,0,0,1-.1-.37.66.66,0,0,1,0-.21.69.69,0,0,1,.1-.17.35.35,0,0,1,.29-.13.32.32,0,0,1,.14,0,.31.31,0,0,1,.12.05V11h.16ZM22,12.06v-.55l-.12,0h-.11a.26.26,0,0,0-.21.09.41.41,0,0,0-.08.27.48.48,0,0,0,.06.26.21.21,0,0,0,.19.09l.14,0A.57.57,0,0,0,22,12.06Z" transform="translate(0 0)"/>
    <path d="M9.74,14.19a.31.31,0,0,1-.13.27.51.51,0,0,1-.16.09.73.73,0,0,1-.22,0,1,1,0,0,1-.25,0l-.23-.07v-.22h0a.61.61,0,0,0,.22.13.75.75,0,0,0,.24,0,.44.44,0,0,0,.25-.06.18.18,0,0,0,.09-.16.17.17,0,0,0-.05-.12A.2.2,0,0,0,9.4,14a.35.35,0,0,0-.14,0L9.1,14a.53.53,0,0,1-.26-.12.36.36,0,0,1-.08-.23.3.3,0,0,1,.14-.26.53.53,0,0,1,.34-.11,1,1,0,0,1,.25,0l.2.06v.2h0a.67.67,0,0,0-.19-.1.73.73,0,0,0-.25,0,.38.38,0,0,0-.22.06.16.16,0,0,0-.08.14.18.18,0,0,0,0,.13.35.35,0,0,0,.15.07l.15,0,.17,0a.42.42,0,0,1,.22.11A.32.32,0,0,1,9.74,14.19Z" transform="translate(0 0)"/>
    <path d="M11.08,14.46a1.23,1.23,0,0,1-.23.08.67.67,0,0,1-.24,0,.77.77,0,0,1-.27,0,.57.57,0,0,1-.21-.13.48.48,0,0,1-.14-.2.94.94,0,0,1-.05-.3.65.65,0,0,1,.18-.48.67.67,0,0,1,.49-.18.91.91,0,0,1,.23,0,.85.85,0,0,1,.24.08v.21h0L11,13.51l-.1,0-.13-.05-.17,0a.43.43,0,0,0-.34.14.62.62,0,0,0,0,.76.45.45,0,0,0,.36.14h.16l.15-.05v-.31h-.35v-.15h.52v.55Z" transform="translate(0 0)"/>
    <path d="M12.39,14.55h-.18l-.13-.35h-.55l-.13.35h-.17l.47-1.28h.22Zm-.36-.5-.22-.63-.23.63Z" transform="translate(0 0)"/>
    <path d="M13.54,13.27l-.46,1.28h-.23l-.46-1.28h.18L13,14.4l.4-1.13Z" transform="translate(0 0)"/>
  </g>
  <g>
    <polygon class="cls-1" points="9.23 0.68 4.14 9.49 14.31 9.49 19.4 0.68 9.23 0.68"/>
    <polygon class="cls-2" points="13.85 8.81 18.93 0 8.76 0 13.85 8.81"/>
    <polygon class="cls-2" points="7.93 0 2.85 8.81 13.02 8.81 7.93 0"/>
  </g>
  <path class="cls-3" d="M10.52,4.49,8,8.81h.89l.52-.91h2.15v0l.54.93H13ZM9.86,7.17,10.52,6l.66,1.14Z" transform="translate(0 0)"/>
  <polygon id="V" class="cls-3" points="15.43 4.49 13.85 7.23 12.26 4.49 11.35 4.49 13.85 8.81 16.34 4.49 15.43 4.49"/>
</svg>
