<?xml version="1.0" encoding="UTF-8"?>
<!-- Generator: Adobe Illustrator 27.9.2, SVG Export Plug-In . SVG Version: 6.00 Build 0)  -->
<svg version="1.1" id="Ebene_1" xmlns="http://www.w3.org/2000/svg" xmlns:xlink="http://www.w3.org/1999/xlink" x="0px" y="0px" width="289.4px" height="149.6px" viewBox="0 0 289.4 149.6" style="enable-background:new 0 0 289.4 149.6;" xml:space="preserve">
<style type="text/css">
	.st0{fill:#B9825F;}
	.st1{fill:#0D262D;}
</style>
<g>
	<path class="st0" d="M229.5,22.7c0.1,0,0.2,0,0.3,0v-9.4c-4.5,0-8.5,0.8-12.7,2.6l3.7,8.6c2.7-1.1,5.6-1.7,8.7-1.7V22.7z"/>
	<path class="st0" d="M220.3,30.9c-4.1,1.7-7.1,3.7-10.3,6.9c-3.2,3.1-5.5,6.6-7.1,10.7l8.4,3.4c1.2-2.9,3-5.5,5.2-7.6   c2.1-2,4.6-3.7,7.4-4.8l-3.7-8.6L220.3,30.9z"/>
	<path class="st0" d="M200.6,49.3l-8.4-3.4c-1.7,4.1-2.4,7.6-2.4,12.1h9C198.8,54.9,199.4,52,200.6,49.3L200.6,49.3z"/>
	<path class="st0" d="M209.6,60.7C209.6,60.7,209.6,60.7,209.6,60.7l-9-0.1c0,4.4,0.8,8.5,2.6,12.6l8.3-3.5c-1.2-2.7-1.8-5.8-1.8-9   L209.6,60.7z"/>
	<path class="st0" d="M195.5,79.1l-8.3,3.5c1.7,4.1,3.8,7,6.9,10.2l6.4-6.4C198.4,84.3,196.7,81.8,195.5,79.1L195.5,79.1z"/>
	<path class="st0" d="M216.4,77l-6.4,6.4c3.2,3.1,6.6,5.4,10.8,7.1l3.4-8.4C221.3,81,218.6,79.2,216.4,77L216.4,77z"/>
	<path class="st0" d="M230.8,93c-3,0-5.8-0.6-8.4-1.6l-3.4,8.4c4.1,1.7,7.7,2.3,12.1,2.3v-9.2C231,92.9,230.9,92.9,230.8,93   L230.8,93z"/>
	<path class="st1" d="M262.8,48c-1.7-4.1-3.8-7-6.9-10.2c-3.2-3.1-6.6-5.4-10.8-7.1c-4.1-1.7-7.7-2.3-12.1-2.3v9.4   c3,0,5.9,0.7,8.5,1.7c2.8,1.2,5.4,2.9,7.5,5c2,2,3.7,4.5,4.8,7.2c1.2,2.7,1.8,5.7,1.8,8.8c0,0,0,0,0,0.1c0,2.9-0.6,5.8-1.6,8.4   c-1.1,2.9-2.8,5.4-4.9,7.6c-2,2.1-4.5,3.8-7.2,5c-2.8,1.2-5.8,1.9-9,1.9v9.2c4.5,0,8.5-0.8,12.7-2.6c4.1-1.7,7.1-3.7,10.3-6.9   c3.2-3.1,5.5-6.6,7.1-10.7c1.7-4.1,2.4-7.6,2.4-12.1s-0.8-8.5-2.6-12.6L262.8,48z"/>
</g>
<g>
	<path class="st1" d="M2,51.4l2.4-2.2c2.1,2.4,4.6,3.4,6.8,3.4c3.5,0,5.7-2,5.7-4.7c0-3-2.8-4.1-5.7-5c-4.4-1.4-8.3-2.9-8.3-7.7   c0-4.2,3.7-7.5,8.8-7.5c2.9,0,5.7,0.9,7.9,3.6l-2.4,2.3c-1.7-2.1-3.7-2.9-5.6-2.9c-3.3,0-5.4,2-5.4,4.4c0,2.8,2.6,3.7,5.2,4.5   c4.6,1.4,8.7,2.8,8.7,8c0,4.4-3.4,7.9-9.2,7.9C7.8,55.5,4.3,54.4,2,51.4L2,51.4z"/>
	<path class="st1" d="M23.7,28.4h3.5L33.7,49l7.1-20.7h2.4l7.1,20.8l6.4-20.6h3.5l-8.7,26.9h-2.1l-7.5-21.2l-7.5,21.2h-2.1   l-8.7-26.9L23.7,28.4z"/>
	<path class="st1" d="M65.7,28.4H69V55h-3.3V28.4z"/>
	<path class="st1" d="M75,51.4l2.4-2.2c2.1,2.4,4.6,3.4,6.8,3.4c3.5,0,5.7-2,5.7-4.7c0-3-2.8-4.1-5.7-5c-4.4-1.4-8.3-2.9-8.3-7.7   c0-4.2,3.7-7.5,8.8-7.5c2.9,0,5.7,0.9,7.9,3.6l-2.4,2.3c-1.7-2.1-3.7-2.9-5.6-2.9c-3.3,0-5.4,2-5.4,4.4c0,2.8,2.6,3.7,5.2,4.5   c4.6,1.4,8.7,2.8,8.7,8c0,4.4-3.4,7.9-9.2,7.9C80.8,55.5,77.3,54.4,75,51.4L75,51.4z"/>
	<path class="st1" d="M97.5,51.4l2.4-2.2c2.1,2.4,4.6,3.4,6.8,3.4c3.5,0,5.7-2,5.7-4.7c0-3-2.8-4.1-5.7-5c-4.4-1.4-8.3-2.9-8.3-7.7   c0-4.2,3.7-7.5,8.8-7.5c2.9,0,5.7,0.9,7.9,3.6l-2.4,2.3c-1.7-2.1-3.7-2.9-5.6-2.9c-3.3,0-5.4,2-5.4,4.4c0,2.8,2.6,3.7,5.2,4.5   c4.6,1.4,8.7,2.8,8.7,8c0,4.4-3.4,7.9-9.2,7.9C103.3,55.5,99.8,54.4,97.5,51.4L97.5,51.4z"/>
	<path class="st1" d="M2,87.3l2.4-2.2c2.1,2.4,4.6,3.4,6.8,3.4c3.5,0,5.7-2,5.7-4.7c0-3-2.8-4.1-5.7-5c-4.4-1.4-8.3-2.9-8.3-7.7   c0-4.2,3.7-7.5,8.8-7.5c2.9,0,5.7,0.9,7.9,3.6l-2.4,2.3c-1.7-2.1-3.7-2.9-5.6-2.9c-3.3,0-5.4,2-5.4,4.4s2.6,3.7,5.2,4.5   c4.6,1.4,8.7,2.8,8.7,8c0,4.4-3.4,7.9-9.2,7.9C7.8,91.4,4.3,90.3,2,87.3L2,87.3z"/>
	<path class="st1" d="M26.5,64.3h9.1c5.3,0,8.7,3.1,8.7,7.8c0,5-3.4,7.9-8.8,7.9h-5.6v10.9h-3.3V64.3L26.5,64.3z M35.3,77.2   c3.9,0,5.6-2.2,5.5-5c0-2.8-1.6-5-5.5-5h-5.5v10H35.3z"/>
	<path class="st1" d="M48.1,77.6c0-8.1,5.3-14,13.3-14s13.2,6,13.2,14c0,8.1-5.2,14-13.2,14S48.1,85.7,48.1,77.6z M71.1,77.6   c0-6.2-3.6-11.1-9.7-11.1s-9.8,4.8-9.8,11.1c0,6.2,3.7,11,9.8,11C67.4,88.6,71.1,83.8,71.1,77.6z"/>
	<path class="st1" d="M81,64.3h9.5c4.8,0,8.1,2.7,8.1,7.3c0,4.5-3.3,7.2-8.1,7.2h-1.4l12.6,12V91h-4.4l-13-12.6l0,0V91H81L81,64.3   L81,64.3z M84.3,67.1v9h6c3,0,4.9-1.7,4.9-4.6c0-2.8-2-4.4-4.9-4.4H84.3z"/>
	<path class="st1" d="M110.6,67.2H102v-3h20.6v3H114v23.7h-3.3V67.2H110.6z"/>
	<path class="st1" d="M124,87.3l2.4-2.2c2.1,2.4,4.6,3.4,6.8,3.4c3.5,0,5.7-2,5.7-4.7c0-3-2.8-4.1-5.7-5c-4.4-1.4-8.3-2.9-8.3-7.7   c0-4.2,3.7-7.5,8.8-7.5c2.9,0,5.7,0.9,7.9,3.6l-2.4,2.3c-1.7-2.1-3.7-2.9-5.6-2.9c-3.3,0-5.4,2-5.4,4.4s2.6,3.7,5.2,4.5   c4.6,1.4,8.7,2.8,8.7,8c0,4.4-3.4,7.9-9.2,7.9c-3.1,0-6.6-1.1-9-4.2L124,87.3z"/>
	<path class="st1" d="M9,103.1H0.4v-3H21v3h-8.6v23.7H9.1v-23.7L9,103.1z"/>
	<path class="st1" d="M25.2,100.1h9.5c4.8,0,8.1,2.7,8.1,7.3c0,4.5-3.3,7.2-8.1,7.2h-1.4l12.6,12v0.2h-4.4l-13-12.6l0,0v12.6h-3.3   V100.1L25.2,100.1z M28.5,103v9h6c3,0,4.9-1.7,4.9-4.6c0-2.8-2-4.4-4.9-4.4H28.5z"/>
	<path class="st1" d="M51,100.1h3.3v26.6H51C51,126.7,51,100.1,51,100.1z"/>
	<path class="st1" d="M62,100.1h11c4.6,0,7.3,2.5,7.3,6.7c0,2.6-1.5,5.1-4.1,6.3c2.9,0.7,5.2,2.4,5.2,6.1c0,4.6-3.2,7.6-8.1,7.6H62   V100.1L62,100.1z M72.2,111.9c3.4,0,4.9-2.3,4.9-4.7c0-2.5-1.6-4.1-4.8-4.1h-7v8.8C65.3,111.9,72.2,111.9,72.2,111.9z M72.6,123.8   c3.1,0,5.4-1.6,5.4-5c0-3.1-2.3-4.3-5.5-4.3h-7.2v9.2h7.3L72.6,123.8z"/>
	<path class="st1" d="M87.4,116.2v-16.1h3.4v15.8c0,5.2,2.6,8.5,7.2,8.5s7.3-3.2,7.3-8.5v-15.8h3.4v16.1c0,7-4.4,11.3-10.7,11.3   C91.7,127.5,87.4,123.3,87.4,116.2z"/>
	<path class="st1" d="M115.9,99.9h2.9l13.5,17.8c0.9,1.2,1.7,2.3,2.4,3.5v-21h3.3V127h-2.8l-13.5-17.7c-0.9-1.2-1.8-2.4-2.5-3.6   v21.2h-3.3V100L115.9,99.9z"/>
	<path class="st1" d="M154,99.8h2.2l11.2,26.9h-3.6l-2.7-6.8h-12.2l-2.8,6.8h-3.4l11.2-26.9H154z M159.9,116.9l-4.8-12.2l-5,12.2   H159.9z"/>
	<path class="st1" d="M172.4,100.1h3.3v23.7h13.2v3h-16.5v-26.6V100.1z"/>
</g>
<script xmlns=""/></svg>