<svg xmlns="http://www.w3.org/2000/svg" width="184.814" height="75.507"><g data-name="Gruppe 2"><g data-name="Gruppe 3" fill="#161615"><path data-name="Pfad 1" d="M53.382 73.049c-7.361 0-9.6-5.769-9.6-24.578 0-16.349 2.348-22.227 8.961-22.227a10.33 10.33 0 018.643 3.954 37.542 37.542 0 00-4.055-.428c-5.014 0-8.963 4.275-8.963 9.726a10.12 10.12 0 0010.243 10.26c6.081 0 10.563-4.594 10.563-11.005 0-8.442-7.577-14.321-18.458-14.321a27.144 27.144 0 00-25.323 18.026V0H0v1.391h2.56c3.842 0 4.907 1.494 4.907 7.373v55.733c0 6.091-1.494 8.764-4.907 8.764H0v1.388h29.446v-1.387c-2.881-.214-4.053-.963-4.053-2.673v-12.2a25.621 25.621 0 0024.148 17.118c9.775 0 16.961-5.275 19.61-13.244 0 0-.789-.244-.791-.24-2.834 7.319-8.788 11.026-14.978 11.026"/><path data-name="Pfad 2" d="M111.396 36.934h-6.7v-.819h.543a3.515 3.515 0 00.948-.084c.168-.057.253-.156.253-.3a3.5 3.5 0 00-.73-1.335l-2.589-3.656-1.53 1.343v2.607a1.411 1.411 0 00.365 1.108 2.2 2.2 0 001.388.316v.819h-6.037v-.819a3.052 3.052 0 001.143-.16.828.828 0 00.48-.454 2.391 2.391 0 00.111-.81v-7.58a2.486 2.486 0 00-.1-.805.811.811 0 00-.48-.454 3.021 3.021 0 00-1.154-.165v-.819h6.032v.819a2.164 2.164 0 00-1.433.32 1.534 1.534 0 00-.32 1.1v3.63l3.754-3.283a3.8 3.8 0 00.57-.583.914.914 0 00.178-.547q0-.641-1.219-.641v-.819h5.508v.819a6.965 6.965 0 00-1.046.151 2.922 2.922 0 00-.788.32 6.864 6.864 0 00-.837.588q-.452.364-1.432 1.219l-1.264 1.094 3.559 5.071a12.782 12.782 0 00.933 1.205 2.317 2.317 0 00.784.574 3.181 3.181 0 001.1.2z"/><path data-name="Pfad 3" d="M117.728 32.201q0-2.028-1.6-2.028a1.386 1.386 0 00-1.188.56 2.64 2.64 0 00-.458 1.468zm2.206.819h-5.472c.007.112.023.352.05.72a4.171 4.171 0 00.249 1.13 2.134 2.134 0 00.72.974 2.192 2.192 0 001.375.4 3.468 3.468 0 001.139-.24 2.451 2.451 0 001.156-.925l.694.471a3.641 3.641 0 01-3.336 1.682 5.634 5.634 0 01-1.864-.294 4.183 4.183 0 01-1.428-.818 3.547 3.547 0 01-.9-1.237 3.778 3.778 0 01-.312-1.53 3.965 3.965 0 01.521-1.993 3.8 3.8 0 011.49-1.459 4.457 4.457 0 012.215-.543 3.818 3.818 0 012.06.525 3.231 3.231 0 011.24 1.361 4.065 4.065 0 01.4 1.78"/><path data-name="Pfad 4" d="M126.051 36.934h-5.116v-.819h.383a1.517 1.517 0 00.752-.142.59.59 0 00.289-.4 3.97 3.97 0 00.054-.756v-7.58c0-.427-.1-.7-.3-.819a2.587 2.587 0 00-1.179-.178v-.819l3.773-.766v10.161a4.307 4.307 0 00.048.752.589.589 0 00.285.4 1.471 1.471 0 00.751.147h.258z"/><path data-name="Pfad 5" d="M132.168 36.934h-5.116v-.819h.383a1.517 1.517 0 00.752-.142.591.591 0 00.289-.4 4 4 0 00.054-.756v-7.58c0-.427-.1-.7-.3-.819a2.587 2.587 0 00-1.179-.178v-.819l3.772-.766v10.161a4.232 4.232 0 00.049.752.589.589 0 00.284.4 1.478 1.478 0 00.753.147h.258z"/><path data-name="Pfad 6" d="M138.706 32.201q0-2.028-1.6-2.028a1.387 1.387 0 00-1.188.56 2.636 2.636 0 00-.458 1.468zm2.206.819h-5.472q.008.168.049.72a4.245 4.245 0 00.249 1.13 2.135 2.135 0 00.72.974 2.192 2.192 0 001.374.4 3.46 3.46 0 001.139-.24 2.451 2.451 0 001.157-.925l.694.471a3.644 3.644 0 01-3.338 1.682 5.64 5.64 0 01-1.864-.294 4.192 4.192 0 01-1.426-.818 3.557 3.557 0 01-.9-1.237 3.8 3.8 0 01-.31-1.53 3.959 3.959 0 01.521-1.993 3.8 3.8 0 011.489-1.459 4.462 4.462 0 012.216-.543 3.818 3.818 0 012.06.525 3.225 3.225 0 011.24 1.361 4.074 4.074 0 01.4 1.78"/><path data-name="Pfad 7" d="M149.764 30.76a1.066 1.066 0 01-.317.814 1.047 1.047 0 01-.742.3 1.108 1.108 0 01-.89-.5 2.253 2.253 0 00-.294-.32.492.492 0 00-.329-.1 1.189 1.189 0 00-1.081.752 3.366 3.366 0 00-.387 1.561v1.553a1.926 1.926 0 00.191 1.023c.128.183.465.276 1.01.276h.472v.818h-5.526v-.817h.464q.747 0 .915-.285a2.144 2.144 0 00.169-1.014v-2.6a2.17 2.17 0 00-.12-.854.621.621 0 00-.432-.343 4.146 4.146 0 00-1-.085v-.819l3.471-.765a12.022 12.022 0 01.249 1.93 3.8 3.8 0 01.653-.96 3.424 3.424 0 01.907-.7 2.175 2.175 0 011.029-.267 1.6 1.6 0 011.156.409 1.327 1.327 0 01.427 1"/><path data-name="Pfad 8" d="M160.002 36.934h-4.568v-.819a1.24 1.24 0 00.845-.218.835.835 0 00.232-.637v-2.989a4.934 4.934 0 00-.058-.8 1.275 1.275 0 00-.307-.645.955.955 0 00-.765-.289 1.813 1.813 0 00-.849.227 1.686 1.686 0 00-.663.592 2.27 2.27 0 00-.316.787 5.329 5.329 0 00-.067.912v1.53a5.907 5.907 0 00.05.912.678.678 0 00.274.454 1.319 1.319 0 00.752.164v.819h-4.661v-.819a2.3 2.3 0 00.876-.124.567.567 0 00.346-.369 3.38 3.38 0 00.067-.805v-7.464a1.346 1.346 0 00-.214-.894 1.647 1.647 0 00-1.075-.236v-.8l3.585-.766v6.006a6.413 6.413 0 011.091-.93 2.79 2.79 0 011.57-.379 3.311 3.311 0 01.925.134 2.763 2.763 0 01.832.391 1.623 1.623 0 01.539.587 3.433 3.433 0 01.365 1.69v2.66a1.925 1.925 0 00.192 1.023c.126.183.464.276 1.009.276z"/><path data-name="Pfad 9" d="M166.243 35.128V32.92a5.256 5.256 0 00-2.148 1.046 1.525 1.525 0 00-.458 1 .9.9 0 00.249.659.954.954 0 00.7.249 1.775 1.775 0 00.863-.2 5.449 5.449 0 00.791-.543m4.084-.071a2.26 2.26 0 01-.276 1.152 1.713 1.713 0 01-.742.7 2.383 2.383 0 01-1.055.227 2.105 2.105 0 01-1.245-.352 1.357 1.357 0 01-.6-.841 4.767 4.767 0 01-2.99 1.192 2.531 2.531 0 01-1.576-.467 1.474 1.474 0 01-.613-1.232 2.064 2.064 0 01.329-1.143 3.049 3.049 0 01.966-.912 7.439 7.439 0 011.517-.707q.881-.307 2.2-.645v-.512a1.514 1.514 0 00-.3-.992 1.373 1.373 0 00-1.1-.36 1.412 1.412 0 00-.988.285 1.489 1.489 0 00-.4.863 1.612 1.612 0 01-.262.672.953.953 0 01-.8.262 1.072 1.072 0 01-.66-.213.742.742 0 01-.284-.632 1.746 1.746 0 01.9-1.441 4.946 4.946 0 012.758-.614 4.11 4.11 0 012.692.658 2.253 2.253 0 01.732 1.762v2.812q0 .534.028.783a.644.644 0 00.146.378.5.5 0 00.379.129.5.5 0 00.406-.24.966.966 0 00.173-.578z"/><path data-name="Pfad 10" d="M176.215 36.934H171.1v-.819h.383a1.516 1.516 0 00.751-.142.6.6 0 00.29-.4 4.187 4.187 0 00.052-.756v-7.58c0-.427-.1-.7-.3-.819a2.577 2.577 0 00-1.178-.178v-.819l3.772-.766v10.161a4.241 4.241 0 00.049.752.585.585 0 00.285.4 1.469 1.469 0 00.751.147h.258z"/><path data-name="Pfad 11" d="M184.814 34.82a1.961 1.961 0 01-.457 1.3 2.821 2.821 0 01-1.255.823 5.527 5.527 0 01-1.838.281 7.409 7.409 0 01-1.413-.138 4.7 4.7 0 01-1.247-.413l-.347.5h-.694l-.088-2.313h.747a2.14 2.14 0 00.9 1.072 3.634 3.634 0 002.037.476 6.023 6.023 0 00.73-.049 1.882 1.882 0 00.752-.271.749.749 0 00.36-.685.605.605 0 00-.369-.582 8.031 8.031 0 00-1.384-.441q-1.226-.313-2.011-.592a3.649 3.649 0 01-1.325-.8 1.8 1.8 0 01-.543-1.353 1.884 1.884 0 01.965-1.663 4.653 4.653 0 012.531-.614 6.157 6.157 0 011.565.16 6.245 6.245 0 01.988.347l.213-.454h.712v2.065h-.729a1.344 1.344 0 00-.445-.668 2.381 2.381 0 00-.92-.467 4.827 4.827 0 00-1.331-.165 5.86 5.86 0 00-1.241.134c-.411.089-.618.3-.618.632a.485.485 0 00.12.337 1.1 1.1 0 00.414.25 9.907 9.907 0 001.032.3c.491.125.785.2.88.222a9.456 9.456 0 012.38.9 1.97 1.97 0 01.929 1.868"/><path data-name="Pfad 12" d="M109.225 52.304h-.836a3.993 3.993 0 00-.614-1.37 7.04 7.04 0 01-1.548 1.21 4.681 4.681 0 01-2.357.507 6.011 6.011 0 01-3.021-.792 5.924 5.924 0 01-2.219-2.211 6.228 6.228 0 01-.828-3.2 6.549 6.549 0 01.449-2.411 6.151 6.151 0 011.282-2.02 6.009 6.009 0 011.987-1.367 6.282 6.282 0 012.522-.5 5.068 5.068 0 013.737 1.477 5.578 5.578 0 00.383-1.112h.8l.142 4.439h-.854a5.438 5.438 0 00-.837-2.011 4.3 4.3 0 00-1.437-1.348 3.5 3.5 0 00-1.739-.467 3.152 3.152 0 00-1.824.556 3.616 3.616 0 00-1.268 1.694 7.651 7.651 0 00-.458 2.838 8.457 8.457 0 00.383 2.754 4.311 4.311 0 00.947 1.659 3.113 3.113 0 001.134.761 3.236 3.236 0 001.068.2 3.464 3.464 0 001.971-.587 4.881 4.881 0 001.436-1.481 5.492 5.492 0 00.747-1.775h.854z"/><path data-name="Pfad 13" d="M116.249 50.623v-2.206a5.278 5.278 0 00-2.149 1.045 1.529 1.529 0 00-.457 1 .889.889 0 00.248.659.951.951 0 00.7.249 1.767 1.767 0 00.863-.2 5.411 5.411 0 00.792-.543m4.084-.071a2.261 2.261 0 01-.276 1.152 1.715 1.715 0 01-.743.7 2.384 2.384 0 01-1.055.227 2.111 2.111 0 01-1.245-.352 1.356 1.356 0 01-.6-.841 4.769 4.769 0 01-2.989 1.192 2.525 2.525 0 01-1.575-.467 1.474 1.474 0 01-.615-1.232 2.07 2.07 0 01.33-1.144 3.066 3.066 0 01.965-.912 7.488 7.488 0 011.518-.707q.881-.307 2.2-.645v-.507a1.513 1.513 0 00-.3-.992 1.372 1.372 0 00-1.1-.36 1.415 1.415 0 00-.987.285 1.483 1.483 0 00-.4.863 1.577 1.577 0 01-.263.671.944.944 0 01-.8.263 1.064 1.064 0 01-.658-.213.74.74 0 01-.285-.632 1.745 1.745 0 01.9-1.441 4.944 4.944 0 012.758-.614 4.111 4.111 0 012.692.658 2.25 2.25 0 01.734 1.762v2.812c0 .356.009.616.027.783a.639.639 0 00.147.378.519.519 0 00.783-.111.964.964 0 00.173-.578z"/><path data-name="Pfad 14" d="M128.958 46.255a1.064 1.064 0 01-.316.814 1.05 1.05 0 01-.744.3 1.11 1.11 0 01-.89-.5 2.345 2.345 0 00-.294-.32.5.5 0 00-.329-.1 1.188 1.188 0 00-1.081.752 3.363 3.363 0 00-.387 1.562v1.548a1.929 1.929 0 00.191 1.023q.192.276 1.01.276h.471v.819h-5.522v-.819h.463c.5 0 .8-.1.916-.285a2.153 2.153 0 00.169-1.014v-2.6a2.182 2.182 0 00-.121-.854.628.628 0 00-.432-.342 4.191 4.191 0 00-1-.085v-.819l3.469-.765a11.965 11.965 0 01.25 1.93 3.827 3.827 0 01.654-.96 3.409 3.409 0 01.908-.7 2.168 2.168 0 011.027-.267 1.6 1.6 0 011.156.409 1.33 1.33 0 01.427 1"/><path data-name="Pfad 15" d="M137.611 46.255a1.064 1.064 0 01-.316.814 1.049 1.049 0 01-.742.3 1.109 1.109 0 01-.89-.5 2.435 2.435 0 00-.294-.32.5.5 0 00-.33-.1 1.19 1.19 0 00-1.081.752 3.368 3.368 0 00-.386 1.562v1.548a1.93 1.93 0 00.191 1.023q.192.276 1.009.276h.472v.819h-5.525v-.819h.463q.747 0 .916-.285a2.141 2.141 0 00.169-1.014v-2.6a2.208 2.208 0 00-.119-.854.629.629 0 00-.432-.342 4.2 4.2 0 00-1-.085v-.819l3.47-.765a11.864 11.864 0 01.25 1.93 3.838 3.838 0 01.654-.96 3.394 3.394 0 01.907-.7 2.171 2.171 0 011.027-.267 1.6 1.6 0 011.158.409 1.331 1.331 0 01.427 1"/><path data-name="Pfad 16" d="M143.579 50.623v-2.206a5.275 5.275 0 00-2.148 1.045 1.53 1.53 0 00-.458 1 .887.887 0 00.249.659.951.951 0 00.7.249 1.761 1.761 0 00.861-.2 5.391 5.391 0 00.793-.543m4.085-.071a2.263 2.263 0 01-.276 1.152 1.719 1.719 0 01-.743.7 2.385 2.385 0 01-1.054.227 2.112 2.112 0 01-1.247-.352 1.353 1.353 0 01-.6-.841 4.774 4.774 0 01-2.989 1.192 2.526 2.526 0 01-1.575-.467 1.472 1.472 0 01-.614-1.232 2.079 2.079 0 01.329-1.144 3.078 3.078 0 01.965-.912 7.466 7.466 0 011.519-.707q.88-.307 2.2-.645v-.507a1.516 1.516 0 00-.3-.992 1.373 1.373 0 00-1.1-.36 1.414 1.414 0 00-.986.285 1.483 1.483 0 00-.4.863 1.588 1.588 0 01-.263.671.942.942 0 01-.8.263 1.069 1.069 0 01-.659-.213.742.742 0 01-.285-.632 1.746 1.746 0 01.9-1.441 4.951 4.951 0 012.759-.614 4.112 4.112 0 012.691.658 2.249 2.249 0 01.734 1.762v2.812c0 .356.009.616.026.783a.642.642 0 00.147.378.52.52 0 00.783-.111.964.964 0 00.173-.578z"/><path data-name="Pfad 17" d="M156.287 46.255a1.063 1.063 0 01-.315.814 1.049 1.049 0 01-.744.3 1.109 1.109 0 01-.889-.5 2.406 2.406 0 00-.294-.32.5.5 0 00-.328-.1 1.189 1.189 0 00-1.082.752 3.377 3.377 0 00-.387 1.562v1.548a1.918 1.918 0 00.192 1.023c.126.184.464.276 1.008.276h.472v.819h-5.525v-.819h.461c.5 0 .8-.1.917-.285a2.15 2.15 0 00.168-1.014v-2.6a2.177 2.177 0 00-.119-.854.631.631 0 00-.431-.342 4.2 4.2 0 00-1-.085v-.819l3.469-.765a11.994 11.994 0 01.249 1.93 3.811 3.811 0 01.654-.96 3.39 3.39 0 01.908-.7 2.161 2.161 0 011.026-.267 1.6 1.6 0 011.158.409 1.331 1.331 0 01.426 1"/><path data-name="Pfad 18" d="M163.561 50.64v-3.6a4.789 4.789 0 00-.889-.828 2.042 2.042 0 00-1.229-.374 1.506 1.506 0 00-.818.24 1.9 1.9 0 00-.614.614 4.062 4.062 0 00-.391 2.074 3.712 3.712 0 00.555 2.224 1.672 1.672 0 001.384.747 2.219 2.219 0 001.113-.294 2.865 2.865 0 00.889-.8m3.6 1.682a21.763 21.763 0 00-3.443.4 2.83 2.83 0 01-.16-.934 3.856 3.856 0 01-2.5.934 3.666 3.666 0 01-1.943-.543 3.991 3.991 0 01-1.424-1.481 4.074 4.074 0 01-.53-2.042 4.191 4.191 0 01.235-1.364 3.651 3.651 0 01.726-1.241 3.422 3.422 0 011.222-.885 4.1 4.1 0 011.664-.321 3.6 3.6 0 011.174.169 2.94 2.94 0 01.783.387 5.408 5.408 0 01.6.521v-2.918a2.634 2.634 0 00-.1-.854.511.511 0 00-.369-.329 4.418 4.418 0 00-.885-.089v-.819l3.648-.765v9.965a4.681 4.681 0 00.057.89.5.5 0 00.327.36 2.989 2.989 0 00.924.138z"/></g></g></svg>