<svg id="Capa_1" data-name="Capa 1" xmlns="http://www.w3.org/2000/svg" width="5.65mm" height="5.64mm" viewBox="0 0 16.02 15.99">
  <defs>
    <style>
      .cls-1 {
        fill-rule: evenodd;
      }
    </style>
  </defs>
  <title>bootstrap-close-big</title>
  <path class="cls-1" d="M.14.14a.49.49,0,0,1,.7,0L5.35,4.65,8,7.29,15.12.17a.53.53,0,0,1,.74,0,.49.49,0,0,1,0,.7L8.71,8l7.11,7.11a.5.5,0,0,1,0,.71.48.48,0,0,1-.69,0L8,8.71l-7,7a.54.54,0,0,1-.74,0,.48.48,0,0,1,0-.69L7.29,8,.13.84a.49.49,0,0,1,0-.7Z" transform="translate(0.01 0.01)"/>
</svg>
