<svg id="Capa_1" data-name="Capa 1" xmlns="http://www.w3.org/2000/svg" width="5.65mm" height="5.63mm" viewBox="0 0 16.02 15.97">
  <defs>
    <style>
      .cls-1 {
        fill: #fff;
        fill-rule: evenodd;
      }
    </style>
  </defs>
  <title>bootstrap-close-big-white</title>
  <path class="cls-1" d="M.15.15a.49.49,0,0,1,.69,0h0L5.36,4.66,8,7.3,15.13.18a.53.53,0,0,1,.74,0,.49.49,0,0,1,0,.69h0L8.72,8l7.11,7.11a.5.5,0,0,1,0,.7h0a.49.49,0,0,1-.68,0h0L8,8.72l-7,7a.55.55,0,0,1-.74,0,.48.48,0,0,1,0-.68h0l7-7L.14.85a.49.49,0,0,1,0-.69h0Z" transform="translate(0.01 0)"/>
</svg>
