<svg id="Capa_1" data-name="Capa 1" xmlns="http://www.w3.org/2000/svg" width="3.84mm" height="3.82mm" viewBox="0 0 10.88 10.84">
  <defs>
    <style>
      .cls-1 {
        fill: #f9f9f9;
        fill-rule: evenodd;
      }
    </style>
  </defs>
  <title>bootstrap-close-medium-white4</title>
  <path class="cls-1" d="M.09.1C.21,0,.54-.15.66,0l0,0L3.81,3.12,5.35,4.65,10,0c.13-.14.47,0,.61.11s.25.45.12.58h0L6.06,5.36,10.69,10c.13.13,0,.46-.11.59h0c-.12.13-.45.25-.58.13v0L5.35,6.07.79,10.64c-.14.13-.48,0-.62-.12S-.08,10.08.05,10h0L4.64,5.36,0,.69C-.17.56,0,.23.08.1h0Z" transform="translate(0.09 0.07)"/>
</svg>
