<svg xmlns="http://www.w3.org/2000/svg" width="22" height="22" viewBox="0 0 24.08 24.1"><defs><style>.a{stroke:#fff;fill:#fff;stroke-miterlimit:10;stroke-width:0.25px;}</style></defs><title>mycourt2</title><path class="a" d="M22.35,8.24H1.66a.48.48,0,0,1-.3-.11.48.48,0,0,1-.2-.4c0-.22,0-.51,9.14-7a2.61,2.61,0,0,1,3.06,0c1.31,1,3.16,2.27,4.88,3.49s3.63,2.57,4.32,3.09a.5.5,0,0,1-.21,1Zm-19.27-1H20.8c-.84-.61-2-1.41-3.14-2.24-1.72-1.22-3.57-2.54-4.88-3.49a1.61,1.61,0,0,0-1.9,0C8.29,3.36,4.8,5.93,3.08,7.24Z" transform="translate(0.04 0.05)"/><path class="a" d="M7.64,19.64H5.18a.48.48,0,0,1-.5-.45V9.89a.48.48,0,0,1,.5-.45H7.64a.48.48,0,0,1,.5.45v9.3A.48.48,0,0,1,7.64,19.64Zm-2-.91H7.14V10.34H5.68Z" transform="translate(0.04 0.05)"/><path class="a" d="M13,19.64H10.55a.47.47,0,0,1-.5-.45V9.91a.47.47,0,0,1,.5-.45H13a.48.48,0,0,1,.5.45v9.28A.48.48,0,0,1,13,19.64Zm-2-.91h1.46V10.36H11.05Z" transform="translate(0.04 0.05)"/><path class="a" d="M18.36,19.64H15.91a.48.48,0,0,1-.5-.45V9.89a.48.48,0,0,1,.5-.45h2.45a.48.48,0,0,1,.5.45v9.3A.47.47,0,0,1,18.36,19.64Zm-1.95-.91h1.45V10.35H16.41Z" transform="translate(0.04 0.05)"/><path class="a" d="M21.58,21.84H2.42a.5.5,0,1,1,0-1H21.57a.5.5,0,0,1,0,1Z" transform="translate(0.04 0.05)"/><path class="a" d="M23.29,23.8H.71a.5.5,0,0,1-.5-.5.51.51,0,0,1,.5-.5H23.29a.51.51,0,0,1,.5.5A.5.5,0,0,1,23.29,23.8Z" transform="translate(0.04 0.05)"/></svg>