<svg id="Ebene_1" data-name="Ebene 1" xmlns="http://www.w3.org/2000/svg" width="308.12mm" height="308.12mm" viewBox="0 0 873.4 873.4">
  <title>maximize1</title>
  <path d="M84.1,126.5,106,148.4l59,59,87.8,87.8L359.3,401.7,476.6,519,594.3,636.7,704.7,747.1l92.7,92.7,67.1,67.1C875,917.4,885.4,928,896,938.4a18.48,18.48,0,0,1,1.4,1.4c11.1,11.1,31.5,11.9,42.4,0s11.9-30.6,0-42.4l-21.9-21.9-59-59-87.8-87.8L664.6,622.2,547.3,504.9,429.6,387.2,319.2,276.8l-92.7-92.7L159.4,117c-10.5-10.5-20.9-21.1-31.5-31.5a18.48,18.48,0,0,1-1.4-1.4C115.4,73,95,72.2,84.1,84.1s-11.8,30.6,0,42.4Z" transform="translate(-75.3 -75.3)"/>
  <path d="M126.5,939.9,148.4,918l59-59,87.8-87.8L401.7,664.7,519,547.4,636.7,429.7,747.1,319.3l92.7-92.7,67.1-67.1C917.4,149,928,138.6,938.4,128a18.48,18.48,0,0,1,1.4-1.4c11.1-11.1,11.9-31.5,0-42.4s-30.6-11.9-42.4,0l-21.9,21.9-59,59-87.8,87.8L622.2,359.4,504.9,476.7,387.2,594.4,276.8,704.8l-92.7,92.7L117,864.6c-10.5,10.5-21.1,20.9-31.5,31.5a18.48,18.48,0,0,1-1.4,1.4c-11.1,11.1-11.9,31.5,0,42.4s30.6,11.8,42.4,0Z" transform="translate(-75.3 -75.3)"/>
  <g>
    <polygon points="197.6 843.4 30 843.4 30 675.8 197.6 843.4"/>
    <path d="M272.9,888.7H105.3l30,30V751.1c-17.1,7.1-34.1,14.1-51.2,21.2L140.8,829l90.3,90.3,20.6,20.6c11.1,11.1,31.5,11.9,42.4,0s11.9-30.6,0-42.4l-56.7-56.7-90.3-90.3-20.6-20.6a30.14,30.14,0,0,0-51.2,21.2V918.7a30.42,30.42,0,0,0,30,30H272.9c15.7,0,30.7-13.8,30-30S289.7,888.7,272.9,888.7Z" transform="translate(-75.3 -75.3)"/>
  </g>
  <g>
    <polygon points="675.8 30 843.4 30 843.4 197.6 675.8 30"/>
    <path d="M751.1,135.3H918.7l-30-30V272.9c17.1-7.1,34.1-14.1,51.2-21.2L883.2,195l-90.3-90.3L772.3,84.1c-11.1-11.1-31.5-11.9-42.4,0s-11.9,30.6,0,42.4l56.7,56.7,90.3,90.3,20.6,20.6a30.14,30.14,0,0,0,51.2-21.2V105.3a30.42,30.42,0,0,0-30-30H751.1c-15.7,0-30.7,13.8-30,30S734.3,135.3,751.1,135.3Z" transform="translate(-75.3 -75.3)"/>
  </g>
  <g>
    <polygon points="843.4 675.8 843.4 843.4 675.8 843.4 843.4 675.8"/>
    <path d="M888.7,751.1V918.7l30-30H751.1c7.1,17.1,14.1,34.1,21.2,51.2L829,883.2l90.3-90.3,20.6-20.6c11.1-11.1,11.9-31.5,0-42.4s-30.6-11.9-42.4,0l-56.7,56.7-90.3,90.3-20.6,20.6a30.14,30.14,0,0,0,21.2,51.2H918.7a30.42,30.42,0,0,0,30-30V751.1c0-15.7-13.8-30.7-30-30S888.7,734.3,888.7,751.1Z" transform="translate(-75.3 -75.3)"/>
  </g>
  <g>
    <polygon points="30 197.6 30 30 197.6 30 30 197.6"/>
    <path d="M135.3,272.9V105.3l-30,30H272.9c-7.1-17.1-14.1-34.1-21.2-51.2L195,140.8l-90.3,90.3L84.1,251.7c-11.1,11.1-11.9,31.5,0,42.4s30.6,11.9,42.4,0l56.7-56.7,90.3-90.3,20.6-20.6a30.14,30.14,0,0,0-21.2-51.2H105.3a30.42,30.42,0,0,0-30,30V272.9c0,15.7,13.8,30.7,30,30S135.3,289.7,135.3,272.9Z" transform="translate(-75.3 -75.3)"/>
  </g>
</svg>
