<?xml version="1.0" encoding="utf-8"?>
<!DOCTYPE svg PUBLIC "-//W3C//DTD SVG 1.1//EN" "http://www.w3.org/Graphics/SVG/1.1/DTD/svg11.dtd">
<svg xmlns="http://www.w3.org/2000/svg" id="qr_bill_svg" width="210mm" height="110mm" font-family="Liberation Sans, Arial, Frutiger, Helvetica, sans-serif"><rect width="210mm" height="110mm" fill="white"/><!----><text x="105mm" y="3mm" text-anchor="middle" font-size="6pt">QR-RECHNUNG.NET</text><!----><line x1="0mm" y1="5mm" x2="202.5mm" y2="5mm" stroke="black" stroke-width="0.1mm"/><line x1="204.8mm" y1="5mm" x2="210mm" y2="5mm" stroke="black" stroke-width="0.1mm"/><line x1="62mm" y1="5mm" x2="62mm" y2="102.5mm" stroke="black" stroke-width="0.1mm"/><line x1="62mm" y1="104.8mm" x2="62mm" y2="110mm" stroke="black" stroke-width="0.1mm"/><svg x="202mm" y="3.5mm" width="3mm" height="3mm" viewBox="0 0 12 12"><path fill="#000" transform="rotate(-180 6 6)" d="M3 1a2 2 0 0 1 1.72 3L6 5.3L9.65 1.65a0.35 0.35 45 0 1 0.7 0.7L6.7 6h-1.4L4 4.72A2 2 0 1 1 3 1v1a1 1 0 0 0 -1 1a1 1 0 1 0 1 -1z"/><path fill="#000" transform="rotate(-180 6 6)" d="M3 11a2 2 0 0 0 1.72 -3L6.7 6h-1.4L4 7.28A2 2 0 1 0 3 11v-1a1 1 0 0 1 -1 -1a1 1 0 1 1 1 1zM7.15 7.85L9.65 10.35a0.35 0.35 45 0 0 0.7 -0.7L7.85 7.15a0.35 0.35 45 0 0 -0.7 0.7z"/></svg><svg x="60.5mm" y="102mm" width="3mm" height="3mm" viewBox="0 0 12 12"><path fill="#000" transform="rotate(-90 6 6)" d="M3 1a2 2 0 0 1 1.72 3L6 5.3L9.65 1.65a0.35 0.35 45 0 1 0.7 0.7L6.7 6h-1.4L4 4.72A2 2 0 1 1 3 1v1a1 1 0 0 0 -1 1a1 1 0 1 0 1 -1z"/><path fill="#000" transform="rotate(-90 6 6)" d="M3 11a2 2 0 0 0 1.72 -3L6.7 6h-1.4L4 7.28A2 2 0 1 0 3 11v-1a1 1 0 0 1 -1 -1a1 1 0 1 1 1 1zM7.15 7.85L9.65 10.35a0.35 0.35 45 0 0 0.7 -0.7L7.85 7.15a0.35 0.35 45 0 0 -0.7 0.7z"/></svg><!----><svg class="receipt" x="0mm" y="5mm" width="62mm" height="105mm"><svg class="innerReceipt" x="5mm" y="5mm" width="53mm" height="95mm"><text x="0mm" y="3mm" font-size="11pt" font-weight="bold">Ricevuta</text><text x="0mm" y="3.65mm"><tspan x="0mm" dy="18pt" font-size="6pt" font-weight="bold">Conto / Pagabile a</tspan><tspan x="0mm" dy="9pt" font-size="8pt">CH04 0900 0000 1412 0685 4</tspan><tspan x="0mm" dy="9pt" font-size="8pt">entscheidsuche.ch</tspan><tspan x="0mm" dy="9pt" font-size="8pt">3000 Berna</tspan></text><text x="0mm" y="42mm" font-size="6pt" font-weight="bold">Pagabile da (nome/indirizzo)</text><svg x="-0.3mm" y="42.7mm" width="52.6mm" height="20.6mm"><svg x="0.3mm" y="0.3mm" width="3mm" height="3mm" viewBox="0 0 12 12"><path d="m0 0h12v1H1v11H0z"/></svg><svg x="49.3mm" y="0.3mm" width="3mm" height="3mm" viewBox="0 0 12 12"><path d="m0 0h12v12H11V1H0z"/></svg><svg x="0.3mm" y="17.3mm" width="3mm" height="3mm" viewBox="0 0 12 12"><path d="m0 0h1v11h11v1H0z"/></svg><svg x="49.3mm" y="17.3mm" width="3mm" height="3mm" viewBox="0 0 12 12"><path d="m11 0h1v12H0V11h11z"/></svg></svg><text x="0mm" y="66mm" font-size="6pt" font-weight="bold">Valuta</text><text x="0mm" y="70mm" font-size="8pt">CHF</text><text x="22mm" y="66mm" font-size="6pt" font-weight="bold">Importo</text><svg x="21.7mm" y="66.7mm" width="30.6mm" height="10.6mm"><svg x="0.3mm" y="0.3mm" width="3mm" height="3mm" viewBox="0 0 12 12"><path d="m0 0h12v1H1v11H0z"/></svg><svg x="27.3mm" y="0.3mm" width="3mm" height="3mm" viewBox="0 0 12 12"><path d="m0 0h12v12H11V1H0z"/></svg><svg x="0.3mm" y="7.300000000000001mm" width="3mm" height="3mm" viewBox="0 0 12 12"><path d="m0 0h1v11h11v1H0z"/></svg><svg x="27.3mm" y="7.300000000000001mm" width="3mm" height="3mm" viewBox="0 0 12 12"><path d="m11 0h1v12H0V11h11z"/></svg></svg><!----><text x="52mm" y="80mm" text-anchor="end" font-size="6pt" font-weight="bold">Punto di accettazione</text></svg></svg><svg class="payment" x="62mm" y="5mm" width="148mm" height="105mm"><svg class="innerPayment" x="5mm" y="5mm" width="138mm" height="95mm"><text x="0mm" y="3mm" font-size="11pt" font-weight="bold">Sezione pagamento</text><svg id="qr_code_svg" width="46mm" height="46mm" x="0mm" y="12mm"><svg width="46mm" height="46mm" viewBox="0 0 49 49"><path d="M0 0h7v7H0zm10 0h1v4h1V3H9V2H8V1h2zm3 0h1v2h-1v2h4v1h-1V3h-1v5h-2v3h-2v1h-1v1h1v1h-1v4H8v-3h1v1H5v1H1v1H0v5h1v-1h2v-1h7v1H5v-2h2v-1H5v-1h2v-1H6v-4h2v-1h1v2H5v1h2v-3H2v-2H1V8H0v3h1v2h2v1H0v1h4v1H3v2H2v2H1v-1h3v4H3v1H2v3H0v2h1v2H0v-1h7v-3H5v2h4v-2H8v1H3v1H2v-1H1v-2h3v6h3v2H5v-3H3v1H0v1h1v1H0v2h2v1h1v1h1v-1h1v2h5v1H8v-5H2v-2h6v-3h1v1H6v5h3v-1h1v2H9v1H6v-1h1v3H6v1h2v1h2v-1h1v-1h3v-2h-3v1h1v2h1v-2h3v1h-1v-2h2v-1h-2v-1h3v-1h-1v-6h1v1h-2v1h-4v-1h-1v-3h-1v-4H9v1h5v-2h-3v3h2v-2h-1v-2h1v-2H8v1h1v-3h2v-2h3v-2h1v-2h1V6h1v3h-2v1h2v4h1v2h-1v-1h-2v1h1v3h1v-2h1v2h4v-4h1v1h1v3h-1v1h1v2h-2v1h-1v6h-1v1h1v3h1v-1h-2v-1h3v2h2v6h1v-8h1v-5h3v-8h1v-1h-1v-1h3v1h-1v1h1v1h-5v-1h1v-1h-1V3h-1v2h6V4h3v5h-3v3h6v1h3v-2h2V8h1v3h1V9h-4v1h-2v1h1v1h8v1h-1v1h-7v1h-5v-2h-1v-2h-3V8h-3v1h1V0h4v2h-1v1h-2V2h-3V1h7v4h4v3h2v1h-1V6h1v1h-3V6h-3v1h-1V3h4v1h-1v6h2v1h-1v3h-3v1h-3v-2h1v1h1v-4h-5v1h-3v6h-1v5h1v-1h2v2h-1v-1h7v1h1v-1h3v-5h2v-3h-1v2h3v1h-1v1h-4v-1h-3v1h1v1h2v1h2v1h2v-2h4v5h1v-5h1v1h2v1h-1v-3h-3v-1h-1v-1h4v-1h-1v-5h-4v3h1v2h-1v3h-1v4h-2v-2h4v2h4v3h-3v6h-1v-2h2v-3h3v-2h-2v4h2v1h-2v1h-1v2h3v-2h-1v-3h-4v1h-2v2h-1v-2h-4v-1h-3v2h-1v-2h-1v4h-4v-6h-1v-1h5v-4h-1v5h2v1h3v-1h-1v-1h2v1h3v-2h-4v-3h-2v1h-1v2h-4v-3h-3v-1h1v-1h-4v-1h-4v5h-4v-3h-1v-1h6v2h-3v3h2v1h-1v-3h-4v-1h-3v-2h1v-2h2v1h-1v-3h3v-1h3V9h1v5h1v-4h2v3h-1v1h5v2h-2v-5h-1v-1h1V9h-4V8h-1V6h2v5h-4V5h1v2h2V5h-1V4h1V2h2V1h-4v1h1v1h3v1h-1V0h2v2h1v1h-1v1h2V2h1V1h-1V0h3v7h2V4h1v3h1V6h-6v3h-1v1h1v2h2v1h2v-1h-1v3h-6v-3H13v1h-1V9h2v1h-3V9H8v2h1V6H8v1h3V6h3v1h-1V5h-1v3h-2V5H8V4h2V2h2V1h1zm3 0h1v3h2v1h-1V2h-3V1h1zm21 0h1v2h1v2h1V3h1V0h-1v1h-3zm5 0h7v7h-7zM1 1h5v5H1zm42 0h5v5h-5zM2 2h3v3H2zm42 0h3v3h-3zM23 5h3v3h-3zm1 1h1v1h-1zM2 8h1v3h1V8h1v2h2v1H6V8h1v1H2zm45 0h1v3h1V9h-2zm-2 5h1v2h-1zm-25 2h1v1h-1zm0 6h1v1h-1zM5 23h3v3H5zm10 0h1v6h-1v-1h2v-2h3v2h9v1h1v-1h6v3h-1v1h2v-3h1v-2h1v-1h1v1h3v2h-3v1h-7v2h-5v1h4v2h-4v-1h8v-1h1v2h1v2h-1v9h1v-4h2v-2h2v-3h-1v2h-1v-3h1v-1h4v3h2v1h1v-1h1v3h-2v-1h-4v-3h4v-4h2v1h-4v-2h-2v-1h-4v2h-1v1h2v-1h1v-1h1v4h1v-3h1v3h5v1h-1v-2h-2v4h-1v4h1v-1h2v3h1v-1h-2v1h-1v-1h-1v3h-2v-1h-2v-1h-1v-1h-4v3h3v1h4v1h3v-3h1v3h2v-3h-1v2h-4v-3h-2v2h-1v2h-1v-3h-1v-3h-4v-2h-1v1h2v-5h-1v2h-2v-3h-2v-9h-5v3h-2v-3h1v4h-1v1h3v3h-4v-1h1v6h4v9h-4v-3h1v-1h-4v1h-1v-4h-2v-2h3v-1h2v1h-1v-3h-1v-3h1v1h-3v1h1v-3h-2v-2h1v-3h-1v-3h1v2h-6v-1h1v-1h1zm8 0h3v3h-3zm18 0h3v3h-3zM0 24h1v1H0zm6 0h1v1H6zm14 0h2v1h-2zm4 0h1v1h-1zm18 0h1v1h-1zm-20 3h1v2h-1zm-10 1h2v1h-2zm17 2h1v11h-1v2h-2v-1h4v2h-1v1h2v2h1v1h2v1h-1v-2h1v-3h-3v-1h2v3h-1v-6h1v-5h1v1h4v2H27v-1h-4v-1h5v3h3v-2h1v4h-1v-1h-2zm-19 2h4v1h1v-1h4v2h-3v1h-1v-1h-2v-1h-3zm1 3h1v2h-1zm2 0h1v1h-1zM0 37h1v3H0v1h3v-1h1v-1H2v-1H0zm19 0h1v2h-1zm-4 4h2v1h-1v2h-1v-1h-1v-1h1zm4 0h3v2h-1v1h-4v-1h2zm4 0h3v3h-3zm18 0h3v3h-3zM0 42h7v7H0zm11 0h1v1h-1zm13 0h1v1h-1zm18 0h1v1h-1zM1 43h5v5H1zm1 1h3v3H2zm6 0h1v1H8zm5 0h1v2h1v-1h1v2h1v-2h2v1h-1v2h1v1h-5v-2h-2v1h1v1h-2v-2H8v-1h1v3H8v-1h2v-2h1v-1h2zm14 0h2v3h-3v1h1v-2h-1v-1h1zm-5 2h1v1h-3v1h2zm8 1h1v2h1v-1h-2zm6 1h1v1h-1z" fill="black" stroke="none" fill-rule="evenodd"/></svg><svg width="7mm" height="7mm" x="19.5mm" y="19.5mm" viewBox="0 0 36 36"><path d="m0 0h36v36h-36z" fill="#fff"/><path d="m2 2h32v32h-32z" fill="#000"/><path d="m15 8h6v7h7v6h-7v7h-6v-7h-7v-6h7z" fill="#fff"/></svg></svg><text x="0mm" y="66mm" font-size="8pt" font-weight="bold">Valuta</text><text x="0mm" y="70mm" font-size="10pt">CHF</text><text x="22mm" y="66mm" font-size="8pt" font-weight="bold">Importo</text><svg x="9.7mm" y="66.7mm" width="40.6mm" height="15.6mm"><svg x="0.3mm" y="0.3mm" width="3mm" height="3mm" viewBox="0 0 12 12"><path d="m0 0h12v1H1v11H0z"/></svg><svg x="37.3mm" y="0.3mm" width="3mm" height="3mm" viewBox="0 0 12 12"><path d="m0 0h12v12H11V1H0z"/></svg><svg x="0.3mm" y="12.3mm" width="3mm" height="3mm" viewBox="0 0 12 12"><path d="m0 0h1v11h11v1H0z"/></svg><svg x="37.3mm" y="12.3mm" width="3mm" height="3mm" viewBox="0 0 12 12"><path d="m11 0h1v12H0V11h11z"/></svg></svg><!----><text x="51mm" y="-4.76mm"><tspan x="51mm" dy="22pt" font-size="8pt" font-weight="bold">Conto / Pagabile a</tspan><tspan x="51mm" dy="11pt" font-size="10pt">CH04 0900 0000 1412 0685 4</tspan><tspan x="51mm" dy="11pt" font-size="10pt">entscheidsuche.ch</tspan><tspan x="51mm" dy="11pt" font-size="10pt">3000 Berna</tspan><tspan x="51mm" dy="22pt" font-size="8pt" font-weight="bold">Informazioni supplementari</tspan><tspan x="51mm" dy="11pt" font-size="10pt">Donazione</tspan></text><text x="51mm" y="59mm" font-size="8pt" font-weight="bold">Pagabile da (nome/indirizzo)</text><svg x="50.7mm" y="59.7mm" width="65.6mm" height="25.6mm"><svg x="0.3mm" y="0.3mm" width="3mm" height="3mm" viewBox="0 0 12 12"><path d="m0 0h12v1H1v11H0z"/></svg><svg x="62.3mm" y="0.3mm" width="3mm" height="3mm" viewBox="0 0 12 12"><path d="m0 0h12v12H11V1H0z"/></svg><svg x="0.3mm" y="22.3mm" width="3mm" height="3mm" viewBox="0 0 12 12"><path d="m0 0h1v11h11v1H0z"/></svg><svg x="62.3mm" y="22.3mm" width="3mm" height="3mm" viewBox="0 0 12 12"><path d="m11 0h1v12H0V11h11z"/></svg></svg><text x="0mm" y="85.18mm"></text></svg></svg></svg>