<svg id="Ebene_1" data-name="Ebene 1" xmlns="http://www.w3.org/2000/svg" width="54.2" height="54.2" viewBox="0 0 54.2 54.2">
  <defs>
    <style>
      .cls-1 {
        fill: #fff;
      }
    </style>
  </defs>
  <title>world2</title>
  <path class="cls-1" d="M32.1,5A27.1,27.1,0,1,0,59.2,32.1,27.19,27.19,0,0,0,32.1,5ZM52.6,21.5h-9a29.81,29.81,0,0,0-6.9-12A22.82,22.82,0,0,1,52.6,21.5Zm2.6,10.6a22.5,22.5,0,0,1-.9,6.4H44.7a33.87,33.87,0,0,0,.6-6.4,36,36,0,0,0-.6-6.6h9.6A23.91,23.91,0,0,1,55.2,32.1ZM32.1,53.7a25.07,25.07,0,0,1-7.4-11.2H39.5A25.07,25.07,0,0,1,32.1,53.7ZM23.6,38.5a33.87,33.87,0,0,1-.6-6.4,28.42,28.42,0,0,1,.7-6.6H40.6a36,36,0,0,1,.7,6.6,33.87,33.87,0,0,1-.6,6.4ZM9,32.1a20.7,20.7,0,0,1,1-6.6h9.6a36,36,0,0,0-.6,6.6,33.87,33.87,0,0,0,.6,6.4H9.9A22.5,22.5,0,0,1,9,32.1ZM32.1,10.5a25.08,25.08,0,0,1,7.3,11H24.8A25.67,25.67,0,0,1,32.1,10.5Zm-4.7-1a31,31,0,0,0-6.9,12h-9A23.45,23.45,0,0,1,27.4,9.5Zm-15.9,33h9a30.59,30.59,0,0,0,6.9,12.2A22.81,22.81,0,0,1,11.5,42.5ZM36.8,54.7a30.59,30.59,0,0,0,6.9-12.2h9A22.81,22.81,0,0,1,36.8,54.7Z" transform="translate(-5 -5)"/>
</svg>
